<svg enable-background="new 0 0 2551.2 2551.2" viewBox="0 0 2551.2 2551.2" xmlns="http://www.w3.org/2000/svg"><path d="m1274.7 856.2c-139.6 0-252.7 105.7-252.7 236 0 114.4 87.1 209.7 202.7 231.4 22.6 4.7 36.3 10.1 43.2 19.9 16.7-27.5 14.7-113.9 14.7-141.4 0-23.5 14.7-15.7 27.5-8.8l54 28.5c2.9-14.7 21.6-15.7 33.4-10.8l22.6 5.9-10.8-22.6c-7.9-14.7-3.9-26.5 4.9-31.4l-18.6-14.7c-14.7-9.8-5.9-19.6 14.7-27.5l33.4-15.7c-19.6-13.7-5.9-29.5 2.9-41.2l18.7-24.5-42.2-1c-20.7-2-25.5-8.8-25.5-21.6l-42.2 28.5c-19.6 12.8-32.4 0-30.4-22.6l6.9-53c-19.6 10.8-32.4-2.9-37.3-16.7 0 0-14.7-28.5-19.6-43.2-4.9 14.7-19.6 43.2-19.6 43.2-4.9 13.8-17.7 27.5-37.3 16.7l6.9 53c2 22.6-10.8 35.3-30.4 22.6l-42.2-28.5c0 12.8-4.9 19.6-25.5 21.6l-42.2 1 18.7 24.5c8.8 11.8 22.6 27.5 2.9 41.2l33.4 15.7c20.6 7.9 29.5 17.7 14.7 27.5l-18.7 14.7c8.8 4.9 12.8 16.7 4.9 31.4l-10.8 22.6 22.6-5.9c11.8-4.9 30.4-3.9 33.4 10.8l54-28.5c12.8-6.9 27.5-14.7 27.5 8.8 0 24.5 4.1 80.8-13.7 97.4-112.6-10.2-200.7-99.1-200.7-207.3 0-115 99.5-208.3 222.2-208.3s222.1 93.2 222.1 208.3c0 107.3-85.5 195.6-196.6 207l.3 27.8c127.4-12.1 226.9-112.6 226.9-234.8-.3-130.3-113.5-236-253.1-236zm1250.9 830.3c-5-7-11.4-16.9-14.9-25.9l-44.2-115.9c-2.5-7-3-17.9-3-22.4h-72.1c0 6 1 16.9-3 25.9l-49.2 118.4c-3 7-6.5 11.4-12.9 19.9h47.7l11.4-31.8h74.1v-.6l10.9 32.4zm-130.3-58.7 28.8-78.6 26.5 78.6zm-506.3-83c-2.5-7-3-17.9-3-22.4h-72.1c0 6 1 16.9-3 25.9l-49.2 118.4c-3 7-6.5 11.4-12.9 19.9h47.8l11.4-31.8h74.1l.1-.4 10.9 32.3h55.2c-5-7-11.4-16.9-14.9-25.9zm-71.1 83 28.9-78.6 26.5 78.6zm-521-83c-2.5-7-3-17.9-3-22.4h-72.1c0 6 1 16.9-3 25.9l-49.2 118.4c-3 7-6.5 11.4-12.9 19.9h47.7l11.4-31.8h74.1l-9-26.8h-55.2l28.8-78.6 46.3 137.3h55.2c-5-7-11.4-16.9-14.9-25.9zm-1131.1 0c-2.5-7-3-17.9-3-22.4h-72.1c0 6 1 16.9-3 25.9l-49.2 118.4c-3 7-6.5 11.4-12.9 19.9h47.7l11.4-31.8h74.1l-9-26.8h-55.1l28.8-78.6 46.2 137.3h55.3c-5-7-11.4-16.9-14.9-25.9zm223.3-22.4h-58.7c1.5 4.5 4.5 11.4 4.5 21.9v119.9c0 10.4-3 17.4-4.5 22.4h58.7c-1.5-5-4.5-11.9-4.5-22.4v-119.9c0-10.5 3-17.4 4.5-21.9zm1755.4 0h-87.5c1.5 4.5 4.5 11.4 4.5 21.9v119.9c0 10.4-3 17.4-4.5 22.4h87.5c72.6 0 86.1-50.2 86.1-82.6-.1-32.4-13.5-81.6-86.1-81.6zm-14.4 137.7h-18.9v-111.4h18.9c20.9 0 49.2 7.9 49.2 55.7s-28.4 55.7-49.2 55.7zm-486.8-137.7h-43.3v89.5l-76.1-89.5h-60.2c1.5 4.5 4.5 11.4 4.5 21.9v119.9c0 10.4-3 17.4-4.5 22.4h43.3v-109.4l93 109.4h43.3c-1.5-5-4.5-11.9-4.5-22.4v-119.9c.1-10.5 3.1-17.4 4.5-21.9zm-599.2-7.5c-8.9-2.6-24.4-4.6-39.3-4.5-48.2.5-103.9 33.3-103.9 94s55.7 90 103.9 90.5c14.9.2 30.4-1.9 39.3-4.4 10.4-3 21.4-4.5 24.9-4v-40.8c-8.5 7.9-29.8 16.4-51.2 16.4s-63.2-15.9-62.7-57.7c0-51.2 41.3-61.2 62.7-61.2s41.3 6.5 51.2 14.4v-38.8c-5 .6-14.5-.9-24.9-3.9zm-387.9 107.4c24.9-9.4 34.8-33.8 34.3-55.7s-20.9-44.3-48.7-44.3h-119.4c1.5 4.5 4.5 11.4 4.5 21.9v119.9c0 10.4-3 17.4-4.5 22.4h54.2v-58.7h31.8l31.3 58.7h59.3c-9-9-15.4-18.9-19.9-25.4zm-46.8-22.8h-32.8v-51.2h37.8c17.9 0 25.9 12.4 25.9 23.9s-8.5 27.3-30.9 27.3z" fill="#b01842"/></svg>