<svg xmlns="http://www.w3.org/2000/svg" viewBox="0 0 1000 1000"><path d="M833.6 440.316c-9 .1-30.4 2.6-35.3 3.2-6 .7-12 1.5-18.3 2.5-5.1.7-21.1 3.8-23.2 4.5-5.5 1.7-7.3 4.7-4.6 10 2.2 4.5 6 7 10.9 8.8 4.4 1.7 12.7 3.6 12.7 3.6s-3.1 8.6-5.1 14.2c-1.4 4-3.1 9-5.7 9.7-.4.1-.9.1-1.5.2-6.5.7-10.5 4.3-10.3 9.3.1 3.3 2.6 13.6 2.4 15.1-.1.6-.2 1.2-.5 1.8-4.2 11.2-5.7 11.5-7.3 19.6-1.7 8.7-1.8 16.7 1.3 24.8.4 1.1.9 2.1 1.5 3.5.7 1.6 4.1 6.8 4.3 7 1.2 1.4 2.9 3.1 3.9 3.9.9.7 3.4 2.4 3.4 2.4 0 .2 4.7 2.5 6 2.8 6.9 1.8 8.8 2.7 16.6 1.8 17-1.9 39.7-12.9 53-23.1 4.2-3.2 7.7-6.2 7.5-10.7-.2-4.8-1.8-8.1-4.9-12.1-3.6-4.5-7-4-13.7-2.9-12.6 2-27.9 4.3-38.3 6.2-1.9.3-4.3.7-6.7.7-1.4 0-3.1-.1-3.1-.1s1.8-6.9 4-13.6c2.1-6.5 4.6-12.8 4.6-12.8s3-.5 5.9-.8c4.6-.5 38.4-.7 41.5-1.2 5.8-1 7.2-4.4 6.9-11.7-.2-6.3-2.2-10.6-7.8-11.9-1.5-.3-4.2-.5-6.9-.5-11.1 0-30.8.3-30.8.3l5.6-18.7s11.1.1 19.1.1c5-.1 32.6-.4 41-5.6 5.5-3.4 3-9.7-.6-14.9-6.8-9.9-14.4-14.7-26-15-.3-.4-.9-.4-1.5-.4zm-744.4-153.1c-2.2 0-4.4.1-6.6.2-15.6.6-36.5 3.8-53.1 8.3-11.7 3.2-19.6 8.3-25.2 18.1-2.8 4.9-5.3 10.2-3.9 15.6 1.2 4.6 7.7 6.2 13 7 5 .8 16.5 1.4 19.6-2.3 1.3-1.6 1.2-3.1.1-5.1-1.1-2-4-3.5-6.8-4.1-3.1-.6-9.1-.9-10.5-1.5l-1.6-.8.7-.7c.6-.5 2.8-1.4 4.2-1.8 1.8-.4 3.7-1 5.7-1.6 13.4-3.7 40.1-4.3 52.3-3.9 47.4 1.8 91.5 12.4 136.2 30.7 43.7 18 93.4 48.7 122.4 86.1 11 14.1 24.7 37.3 26.4 56.9 1.5 17.9-4.2 35-15.1 47.6-8.3 9.5-19.2 16.4-31.1 22.1-27.2 12.9-60.2 15.5-89.8 14.7-3.9-.1-18.5-1.4-22-1.9-6-1-13.6-2.4-13.6-2.4l-1.9-91.7s9.2.3 15.7.7c16.6 1 50.9 6.7 68.1 13.5 3.7 1.4 7.5 3.7 7.8 7.3.2 2.8-2 5.2-4.4 7.4-1.1 1.1-2.4 1.9-3.9 2.7-3 1.6-8 4.2-8.3 4.7-.9 1.2-1 3.1.3 4.1 3.3 2.6 14 4 16.9 3.8 9.6-.5 19.1-7 24-15.8 4.4-7.8 4.9-13.7 2-22.3-3.1-9.4-12.8-18.3-23.2-23.5-12.6-6.4-34.5-11.2-45.8-13-8.8-1.4-18.1-2.7-26.6-3-8.7-.2-22.9.2-22.9.2s-.3-12.4-.8-20.7c-.9-13.6-4.7-40.3-17-48-2.3-1.4-5-1.6-6.6.6-2.4 3.1-4.7 15.1-5.3 18.2-1 5.7-4.2 32.8-4.1 37 .1 4.2-.3 15.7-.6 16-.1.2-.3.3-.5.4-.5.3-8.4 1.7-13.5 2.5-10.8 1.6-36.7 10-45.1 13.7-11.4 5-27.9 13.7-32.6 25.3-3.3 8.3-2.1 15.3 2.3 23.1 5.7 10.1 13.1 17.9 21.4 25.7 3 2.8 16.3 14 19.5 16.3 11.2 8.3 24.1 16.4 37.6 23.1 4.4 2.2 9.7 4.7 9.7 4.7s1 10.6 2 16.7c1.2 7.6 3.8 14.2 10.8 17.2 4.3 1.8 9.2 1.6 13.9.7 3.8-.7 6.5-2.4 8.1-5.8.6-1.2 1.7-5.1 1.9-6.5.4-3.2.3-7.8.3-7.8s11.4 2.6 19 4c22.2 4.1 46.3 4.5 67.3 2 30.9-3.8 66.9-15.2 90.2-35.4 6.3-5.4 16.8-18.1 21.2-26.1 2.8-4.9 5.3-9.9 7.5-15 .5-1.2 3.6-10.5 4.1-14.6.3-1.8 2.1-15.2 1.4-22.3.1-3-1.5-10.7-1.7-12.1-.1-.1-1-3.9-1.6-6.5-.6-2.6-4.2-11.6-5.1-13.1-2.4-4.4-3.9-8.1-5.8-11.9-7.9-15.8-24.2-35.7-37.3-48.7-7.4-7.3-15.2-14.3-23.2-21-3.4-2.9-25.5-19.1-29.2-21.6-11.9-7.8-33.2-19.8-46.7-26.3-18.8-9.1-44.5-19-64.1-25-32.1-9.4-63.5-15.5-96.5-15.1zm63.5 191s-.3 13.6-.4 27.3c-.1 26 .6 52.4.6 52.4s-9.3-3.3-14.8-5.6c-16.3-6.8-38.4-20.9-49.3-30-2.6-2.2-11.9-11.1-13.5-13-2.8-3.3-5.4-6.5-4.7-10.7.7-3.9 8.5-7.2 12.4-8.6 12.8-4.6 35.1-8.5 46.9-9.7 9.2-1.1 22.8-2.1 22.8-2.1zm313.9-162.3c-10.6-.1-21.9 2.7-30.5 6.3-13.2 5.6-25.2 13.8-34.5 23.6-9.2 9.8-16.3 22.1-15.5 35.5.2 4.3 1.9 10.9 4.1 14.8 1.8 3.3 5.2 6.7 6 10.1.4 2 0 4.6.1 7 .2 5.5 2.5 11.1 6.6 14.7 2.9 2.6 5.5 2.5 8.5.2.9-.6 2.2-2.1 2.9-3.3 1.3-2.2 2.6-5.3 3.8-6.6.2-.2 1 .3 1.7.8.5.4 5.5 1.7 6.9 1.8 2.7.2 5.5.9 8.3 1.1 8.9.8 21-2 28.8-5.1 17.8-7 31.5-17 45.5-31.3 8.1-8.3 15.2-21.9 12.6-34.3-1.3-6.2-4.1-10.4-9.3-14.9-2.6-2.2-8.8-5.5-13.2-6.2-1.3-.2-2.9-.4-3.4-.8-.7-.4-1.2-1.3-1.9-2.2-3.1-3.9-9.3-7.7-13.7-9.3-4.3-1.2-9-1.9-13.8-1.9zm-22.8 29s-2.9 2.4-5.4 4.5c-8 6.9-18.7 18-24.6 26-3.2 4.4-7.1 10.2-7.1 10.2s-.8-1.7-1.4-3c-3.6-9.1 4.4-19.4 11.8-25.7 4.5-3.8 13.4-9.8 19.5-11 2.7-.5 7.2-1 7.2-1zm47.4 2.6c1.8-.1 3.5.3 5.8 1.3 3.4 1.5 6.1 4.6 6.6 8.7 1.5 12.8-13.1 23.7-23.1 29.2-10.1 5.6-21 9-32.7 9.8-4.6.3-16.6.5-16.9-.8-.1-.3.7-1.5 1.7-2.7 1.6-2 3.6-5 5.7-7.7 8.8-11.4 25-25.6 36.4-32.2 3.9-2.2 5.7-3 9.8-4.2 2.8-.9 4.8-1.4 6.7-1.4zm-57.9 98.3c-3.5 0-5.5 4.9-6.5 7.4-3.1 7.9-5.3 26.8-5.9 32.7-1.8 17.9-3.3 60.2-.2 81.8 1.3 9 4.3 14.9 13.4 16.8 3.7.8 10.4.6 13.4-1.3 2.6-1.6 4.4-4.7 5-7.4 1.7-7.5 1-18.2.7-26.2-.4-9.5-.6-18.9-1.1-28.5-.6-12.8-2.1-45.4-5.7-60.1-1.5-6.3-4.1-12.1-10.3-14.5l-2.1-.6c-.2-.1-.5-.1-.7-.1zm120.5-1.7c-7.9 0-15.4.6-21.6 1.4-20.7 2.6-48.4 9-60.2 26.1-4.5 6.5-7.2 16.5-5.1 24.7 1.2 4.5 5.1 8.6 9.1 10.4 4 1.8 9.1 2.7 13.7 3.4 4.5.7 23.2 2.2 35.1 3.3 11.4.9 33.4 3.4 45.3 8.3 1 .4 6.1 2.6 7.4 4.2.6.7 1.3 1.9 1.7 2 .1 0 .3-.1.5 0 1.1.4 1.7 3.8 1.7 4.2 0 3.2-2.4 5.7-4.8 7.5-17.7 12.6-42 16.1-63.7 15.8-7.3-.1-13.4-1.3-20.8-4.5-3.2-1.4-7.3-4.7-6.7-8.2 1.2-6.9 8.8-8.7 15.1-8.1 3.5.3 8.1 1.8 11.6 3.2 13.9 5.5 20.2 10.1 32.4 8.2 4.6-.7 20.3-4.1 22.5-10.6.5-1.6-.2-3.3-1.4-4.5-1.7-1.7-11.2-5.4-13.7-6.3-9.3-3.3-26.9-6.3-36.7-6.7-12.9-.5-29.9 1.9-37.9 12.9-5 6.8-5.1 16.2-1 23.4 5.6 9.8 16.7 17.5 25.7 21.9 15.3 7.4 33.7 10.9 50.7 9.1 9.7-1.1 18.2-3.1 26.9-7.3 8.3-4 17.4-11.6 21.5-20.5 5.5-12.1 5.1-28-1-39.5-4-7.5-8.5-11.7-16-15.1-8.1-3.6-18.7-5.6-29.6-7.1-.6-.1-.8-.1-1.4-.2l-50-5.9c-.7-.1-.8-.1-1.4-.2-2.2-.5-12.3-1.6-8.7-5.4 1-1.1 4.1-1.9 5.8-2.4 22.6-6.2 51.3-5.5 75-6.8 5.3-.3 17.4-1 23.2-2.9 5.5-1.7 10.2-5.7 11.4-11.8.7-3.3-.9-4.8-4-6.4-13.7-7.4-33.2-9.7-50.6-9.6zm136.9-20.1c-3.4-.2-5.4 2.3-5.4 6.2 0 3.3.7 6.8 1.6 10.2 2.6 10.6 6.1 22.1 8.9 33 2.6 9.8 5.9 24.3 7.1 34.6.5 3.6.7 6.9 1.2 11 .3 2.6.8 15.5.5 15.8-.5.9-1.6.9-2.9-.1-.9-.8-1.7-2-2.6-3.2-6.9-10.2-13.9-21.5-21.3-32.7-6.5-10-16.4-24.4-23.9-35-2.9-4.2-6.7-8.2-11.9-8.7-7.6-.6-11.1 10.5-13.6 17.3-8.6 23.9-15.3 59.4-13.8 84.9.4 7.8 2.6 23.3 12.2 26.9 3.7 1.4 6.1 2 9.2.6 4.3-2 5.5-5.9 6.6-10.6 1.7-7.2 2-21.9 2.2-27.9 0-1 .9-36.6 2.2-44.2.2-1 .5-2.7 1.3-2.4 1 .3 1.6.9 2 1.6 2 2.9 15.2 29.1 22.8 42.4 2.2 3.9 15.4 26.8 23.4 31.3 7.3 4.2 18 .3 23.3-4.6 3.4-3.2 7.5-9.4 9.5-14.1 5.4-12.7 6.3-31.4 5.3-44.3-1-12.6-3.6-24.9-7.6-36.9-1.1-3.5-6.2-16.2-7.5-18.7-3.8-7.4-16.7-28.5-26.4-32-.6-.2-1.5-.3-2.4-.4zm225 21.5c-4.2-.2-13.4 10.9-14.8 12.6-18.8 23.2-35.6 52.1-35.6 81.3 0 9.2 2.4 20.7 6.8 30.1.3.6.3.7.1 1.3-14.2 37.3-19.4 53.7-24.5 91.2-1.5 10.7-3.2 29 4.2 38.6 3.7 4.9 8.1 7.6 13 10.2 3.8 2 5.1 2.7 8.2.8 1.3-.8 1.6-1.2 2.2-2.2.4-.8 8-36.6 10.7-50.2 1.8-9.2 9.5-38.8 13-49.8 2-6.4 4.8-14.5 4.8-14.5s2.7.1 5 .2c17.1.4 34.6-6.3 49.5-16.2 14.6-9.7 25.3-20.7 33.1-36.1 6.6-12.9 9.7-29.8 8.2-44.8-1.3-12.6-6.1-28.1-17.3-35.4-7-4.6-13.5-3.7-20.7 0-9.1 4.7-12.8 8.1-21.2 16.1-4 3.8-17.9 18.3-21.5 22.4-3.8 4.3-7.5 8.8-10.9 13.4-7.8 10.3-19.7 26.9-19.7 26.9s-.7-3.9-.8-7.1c-.1-1.1 1.4-9.6 1.9-11.4 3.6-11.7 5.1-16.9 12.4-29.6 6.5-11.4 16-25.1 18.1-38.6.7-4.1 0-9-4.2-9.2zm59.3 41.6c1.1 0 2.1.6 2.6 1.2 4.2 5.6 3.5 18.1 2 24-3.3 13.1-10.4 24.3-20.6 32.5-6.7 5.3-19.2 11.8-28.4 13.3-4.3.7-8.5.9-8.8.4-.1-.2 4-7.6 5.4-9.6 6.5-9.1 13.2-20.9 20.4-31.1 5.4-7.7 16.7-22.7 25.4-30 .6-.5 1.3-.7 2-.7z"/></svg>