<svg viewBox="0 0 266.93 154.05" xmlns="http://www.w3.org/2000/svg"><g fill="#fff"><path d="M262 12.36a23.12 23.12 0 0 1 4.82 15.36 22.75 22.75 0 0 1-7.65 15.68 24 24 0 0 1-15.27 6.29h-.5c-7.09 0-12.49-3.69-15.12-5.91a.09.09 0 0 0 0-.08.09.09 0 0 0 0-.06l.06-.06a26.71 26.71 0 0 0 6.35-16.1 26.93 26.93 0 0 0-6.35-18.25v-.06l.33-.29A23.78 23.78 0 0 1 234.89 5 24.81 24.81 0 0 1 248 3.5l.26.06a23.75 23.75 0 0 1 13.74 8.8z"/><path d="M266.67 27.69a22.92 22.92 0 0 0-4.78-15.24 23.83 23.83 0 0 0-13.71-8.74l-.26-.06a24.74 24.74 0 0 0-13 1.48 25.16 25.16 0 0 0-6.35 3.81l-.2.2a27.14 27.14 0 0 1 6.32 18.31 27 27 0 0 1-6.38 16.13v.06a23.54 23.54 0 0 0 15 5.87h.5a23.85 23.85 0 0 0 15.18-6.26 22.49 22.49 0 0 0 7.68-15.56z"/><path d="M261.89 12.45a22.92 22.92 0 0 1 4.78 15.24 22.49 22.49 0 0 1-7.59 15.59 23.85 23.85 0 0 1-15.18 6.26h-.5a23.54 23.54 0 0 1-15-5.87v-.06a27 27 0 0 0 6.38-16.13 27.14 27.14 0 0 0-6.38-18.34l.2-.2a25.16 25.16 0 0 1 6.4-3.81 24.74 24.74 0 0 1 13-1.48l.26.06a23.83 23.83 0 0 1 13.63 8.74zm-29.54 57.94a23.84 23.84 0 0 1-1.24 16.13l-39.24 58-.65.73a24.47 24.47 0 0 1-5.35 4.91 22.7 22.7 0 0 1-11.31 3.84c-.47 0-.94.05-1.42.05a23.86 23.86 0 0 1-15.32-5.81l-.18-.12.06-.06 40.19-59.3a26.85 26.85 0 0 0 2.81-14.94 25.14 25.14 0 0 0-6.06-14.24l-.09-.12h.06a23.78 23.78 0 0 1 14-5.88 22.8 22.8 0 0 1 23.71 16.8z"/><path d="M231 86.43a23.7 23.7 0 0 0 1.21-16 22.56 22.56 0 0 0-22-16.74h-1.57a23.84 23.84 0 0 0-13.91 5.78 25.23 25.23 0 0 1 6.08 14.3A27 27 0 0 1 198 88.88V89l-40.1 59.15h.06a23.83 23.83 0 0 0 15.23 5.79c.48 0 1 0 1.42-.06a23.54 23.54 0 0 0 16.57-8.74l.62-.71z"/><path d="M232.21 70.45a23.7 23.7 0 0 1-1.21 16l-39.25 58-.62.71a23.54 23.54 0 0 1-16.57 8.74c-.47 0-.94.06-1.42.06a23.83 23.83 0 0 1-15.23-5.79h-.06L198 89l.06-.09a27 27 0 0 0 2.83-15.06 25.23 25.23 0 0 0-6.08-14.3 23.84 23.84 0 0 1 13.91-5.78h1.57a22.56 22.56 0 0 1 22 16.74zM208.52 3.06c11.08.35 22.83 9.89 22.65 23.51a22.75 22.75 0 0 1-7.23 16.24 24.08 24.08 0 0 1-15.54 6.64h-.65c-9.8 0-16.39-6.79-18.19-8.91l.09.05a.12.12 0 0 0 .06-.11c1.3 1.56 8.12 8.83 18 8.83h.65a23.94 23.94 0 0 0 15.45-6.62A22.55 22.55 0 0 0 231 26.57c.17-13.53-11.49-23-22.51-23.36a5.31 5.31 0 0 0-.68 0c-10 0-16.77 7.38-18.19 9.09l-.12.06-.05-.06c1.29-1.62 8.15-9.3 18.39-9.3a5.08 5.08 0 0 1 .68.06z"/><path d="M208.52 3.21c11 .35 22.68 9.83 22.51 23.36a22.55 22.55 0 0 1-7.18 16.12 23.94 23.94 0 0 1-15.45 6.62h-.65c-9.92 0-16.74-7.27-18-8.83a25.29 25.29 0 0 0 4.22-12 25.87 25.87 0 0 0-4.28-16.25c1.42-1.71 8.15-9.09 18.19-9.09a5.31 5.31 0 0 1 .64.07zm-13.91 62.55c3.49 6.64 3.81 14.61.8 20.25l-.77 1.45L179 110.5q-11.78 17.35-23.6 34.78c-.73.92-7.35 8.8-18.13 8.8h-.79a23.69 23.69 0 0 1-17-8.44v-.12q30.47-45.63 61-91.25v-.06h.06a24.27 24.27 0 0 1 14.07 11.55z"/><path d="M195.29 85.93c3-5.59 2.66-13.5-.82-20.09a24.09 24.09 0 0 0-13.94-11.48q-30.48 45.57-60.93 91.19a23.7 23.7 0 0 0 16.9 8.36h.79c10.72 0 17.28-7.83 18-8.74q11.77-17.37 23.59-34.79l15.59-23z"/><path d="M194.47 65.84c3.48 6.59 3.8 14.5.82 20.09l-.8 1.47-15.59 23q-11.78 17.4-23.59 34.79c-.74.91-7.3 8.74-18 8.74h-.79a23.7 23.7 0 0 1-16.9-8.36q30.48-45.63 60.93-91.19a24.09 24.09 0 0 1 13.92 11.46zm-4.82-53.57a25.87 25.87 0 0 1 4.28 16.25 25.29 25.29 0 0 1-4.22 12l-.12.09a25.47 25.47 0 0 0 4.26-12 25.94 25.94 0 0 0-4.23-16.13s-.03-.18.03-.21z"/><path d="M189.71 40.48a.12.12 0 0 1-.06.11l-.09-.05.12-.09zm-.06-28.21c-.06 0-.06.06-.09.09l-.06-.06.12-.06zm-.65 7.65a22.39 22.39 0 0 1-2.83 17.63l-69.55 104.22A19.39 19.39 0 0 1 115 144a23.84 23.84 0 0 1-18.28 10 .51.51 0 0 1-.21 0h-.21a1.14 1.14 0 0 0-.26 0h-1.51a24 24 0 0 1-12.22-3.33 24.48 24.48 0 0 1-7.39-6.67c-.62-.76-1.15-1.5-1.65-2.24L33.55 82.2 3.78 37.55A22.27 22.27 0 0 1 .92 19.92 26.11 26.11 0 0 1 12.79 3.36 24.38 24.38 0 0 1 31.72 1a27.73 27.73 0 0 1 15.41 11.33l47.81 71.73 47.85-71.73A27.54 27.54 0 0 1 158.17.93a24.37 24.37 0 0 1 19 2.43A26.18 26.18 0 0 1 189 19.92z"/><path d="M186 37.46A22.19 22.19 0 0 0 188.82 20 25.92 25.92 0 0 0 177 3.5a24.12 24.12 0 0 0-18.8-2.42 27.64 27.64 0 0 0-15.3 11.31l-48 71.94v-.12L47 12.39A27.57 27.57 0 0 0 31.69 1.11 24.77 24.77 0 0 0 25 .2a24.1 24.1 0 0 0-12.15 3.3A26 26 0 0 0 1.06 20 22.12 22.12 0 0 0 3.9 37.46l29.8 44.69q19.85 29.76 39.72 59.56c.47.71 1 1.45 1.62 2.22a24.22 24.22 0 0 0 7.32 6.67 23.77 23.77 0 0 0 12.14 3.34H96a.77.77 0 0 1 .26 0h.18a.59.59 0 0 0 .21 0 23.35 23.35 0 0 0 10.86-3.25 23.69 23.69 0 0 0 7.3-6.67 23.45 23.45 0 0 0 1.65-2.22z"/><path d="M188.82 20A22.19 22.19 0 0 1 186 37.46l-69.5 104.25a23.45 23.45 0 0 1-1.65 2.22 23.69 23.69 0 0 1-7.3 6.67 23.35 23.35 0 0 1-10.86 3.25.59.59 0 0 1-.21 0h-.18a.77.77 0 0 0-.26 0h-1.51a23.77 23.77 0 0 1-12.14-3.34 24.22 24.22 0 0 1-7.39-6.58c-.62-.77-1.15-1.51-1.62-2.22q-19.85-29.8-39.68-59.56L3.9 37.46A22.12 22.12 0 0 1 1.06 20 26 26 0 0 1 12.85 3.5 24.1 24.1 0 0 1 25 .2a24.77 24.77 0 0 1 6.68.91A27.57 27.57 0 0 1 47 12.39l47.89 71.82v.12l48-71.94A27.64 27.64 0 0 1 158.2 1.08 24.12 24.12 0 0 1 177 3.5 25.92 25.92 0 0 1 188.82 20z"/></g></svg>