<svg viewBox="0 0 266.93 154.05" xmlns="http://www.w3.org/2000/svg"><g fill="#231f20"><path d="M262 12.35a23.09 23.09 0 0 1 4.82 15.35 22.73 22.73 0 0 1-7.65 15.68 24 24 0 0 1-15.27 6.29h-.5c-7.09 0-12.49-3.69-15.12-5.9a.11.11 0 0 0 0-.09.09.09 0 0 0 0-.06l.06-.06a26.71 26.71 0 0 0 6.35-16.09 26.9 26.9 0 0 0-6.35-18.25v-.06l.33-.3A24.31 24.31 0 0 1 234.89 5 24.79 24.79 0 0 1 248 3.49l.26.06a23.75 23.75 0 0 1 13.74 8.8z"/><path d="M266.67 27.67a22.9 22.9 0 0 0-4.78-15.23 23.85 23.85 0 0 0-13.71-8.75h-.26a24.61 24.61 0 0 0-13 1.47 25.75 25.75 0 0 0-6.35 3.81l-.2.21a27.14 27.14 0 0 1 6.32 18.31 27 27 0 0 1-6.38 16.12v.06a23.54 23.54 0 0 0 15 5.88h.5a23.9 23.9 0 0 0 15.18-6.26 22.53 22.53 0 0 0 7.68-15.62zm-4.78-15.23a22.9 22.9 0 0 1 4.78 15.23 22.53 22.53 0 0 1-7.59 15.6 23.9 23.9 0 0 1-15.18 6.26h-.5a23.54 23.54 0 0 1-15-5.88v-.06a27 27 0 0 0 6.38-16.12 27.14 27.14 0 0 0-6.38-18.34l.2-.21a25.75 25.75 0 0 1 6.4-3.81 24.61 24.61 0 0 1 13-1.47h.26a23.85 23.85 0 0 1 13.63 8.8zm-29.54 57.94a23.81 23.81 0 0 1-1.24 16.12l-39.24 58c-.21.24-.45.5-.65.74a24.75 24.75 0 0 1-5.35 4.9 22.7 22.7 0 0 1-11.31 3.86c-.47 0-.94.06-1.42.06a23.8 23.8 0 0 1-15.32-5.82l-.18-.12.06-.06 40.19-59.3a26.82 26.82 0 0 0 2.81-14.94 25.08 25.08 0 0 0-6.06-14.23l-.09-.12h.06a23.84 23.84 0 0 1 14-5.88 22.79 22.79 0 0 1 23.71 16.81z"/><path d="M231 86.41a23.67 23.67 0 0 0 1.21-16 23 23 0 0 0-9.16-12.88 22.8 22.8 0 0 0-12.81-3.87h-1.57a23.79 23.79 0 0 0-13.91 5.79 25.17 25.17 0 0 1 6.08 14.29A27 27 0 0 1 198 88.86V89l-40.1 59.15h.06a23.83 23.83 0 0 0 15.23 5.79c.48 0 1 0 1.42-.06a23.54 23.54 0 0 0 16.57-8.74l.62-.71z"/><path d="M232.21 70.44a23.67 23.67 0 0 1-1.21 16l-39.25 58-.62.71a23.54 23.54 0 0 1-16.57 8.74c-.47 0-.94.06-1.42.06a23.83 23.83 0 0 1-15.23-5.79h-.06L198 89l.06-.09a27 27 0 0 0 2.83-15.06 25.17 25.17 0 0 0-6.08-14.29 23.79 23.79 0 0 1 13.91-5.79h1.57a22.8 22.8 0 0 1 12.81 3.87 23 23 0 0 1 9.11 12.8zM208.52 3c11.08.36 22.83 9.9 22.65 23.51a22.75 22.75 0 0 1-7.23 16.24 24.14 24.14 0 0 1-15.54 6.65h-.65c-9.8 0-16.39-6.79-18.19-8.92l.09.06a.16.16 0 0 0 .06-.12c1.3 1.57 8.12 8.83 18 8.83h.65a24 24 0 0 0 15.45-6.61A22.57 22.57 0 0 0 231 26.55c.17-13.52-11.49-23-22.51-23.36a5.31 5.31 0 0 0-.68 0c-10 0-16.77 7.39-18.19 9.1l-.12.06-.05-.06C190.74 10.66 197.6 3 207.84 3a5.08 5.08 0 0 1 .68 0z"/><path d="M208.52 3.19c11 .36 22.68 9.84 22.51 23.36a22.57 22.57 0 0 1-7.18 16.13 24 24 0 0 1-15.45 6.61h-.65c-9.92 0-16.74-7.26-18-8.83a25.24 25.24 0 0 0 4.22-12 25.81 25.81 0 0 0-4.28-16.24c1.42-1.71 8.15-9.1 18.19-9.1a5.31 5.31 0 0 1 .64.07zm-13.91 62.55c3.49 6.64 3.81 14.62.8 20.26l-.77 1.45-15.62 23q-11.78 17.37-23.6 34.79c-.73.91-7.35 8.8-18.13 8.8h-.79a23.72 23.72 0 0 1-17-8.45v-.12q30.47-45.61 61-91.25v-.06h.06a24.31 24.31 0 0 1 14.05 11.58z"/><path d="M195.29 85.91c3-5.58 2.66-13.5-.82-20.08a24.12 24.12 0 0 0-13.94-11.49q-30.48 45.59-60.93 91.19a23.67 23.67 0 0 0 16.9 8.36h.79c10.72 0 17.28-7.83 18-8.74q11.77-17.37 23.59-34.79l15.59-23z"/><path d="M194.47 65.83c3.48 6.58 3.8 14.5.82 20.08l-.8 1.48-15.59 23q-11.78 17.42-23.59 34.79c-.74.91-7.3 8.74-18 8.74h-.79a23.67 23.67 0 0 1-16.9-8.36q30.48-45.61 60.93-91.19a24.12 24.12 0 0 1 13.92 11.46zm-4.82-53.57a25.81 25.81 0 0 1 4.28 16.24 25.24 25.24 0 0 1-4.22 12l-.12.09a25.43 25.43 0 0 0 4.26-12 25.89 25.89 0 0 0-4.23-16.12s-.03-.18.03-.21z"/><path d="M189.71 40.46a.16.16 0 0 1-.06.12l-.09-.06.12-.09zm-.06-28.2c-.06 0-.06.06-.09.09l-.06-.06.12-.06zm-.65 7.65a22.39 22.39 0 0 1-2.83 17.63l-69.55 104.21A20.37 20.37 0 0 1 115 144a23.87 23.87 0 0 1-18.28 10 .51.51 0 0 1-.21 0h-.21a.77.77 0 0 0-.26 0h-1.51a23.93 23.93 0 0 1-12.22-3.34 24.45 24.45 0 0 1-7.39-6.66 32.83 32.83 0 0 1-1.65-2.25L33.55 82.19 3.78 37.54A22.27 22.27 0 0 1 .92 19.91 26.16 26.16 0 0 1 12.79 3.34 24.38 24.38 0 0 1 31.72 1a27.68 27.68 0 0 1 15.41 11.32l47.81 71.73 47.85-71.73A27.5 27.5 0 0 1 158.17.92a24.36 24.36 0 0 1 19 2.42A26.22 26.22 0 0 1 189 19.91z"/><path d="M186 37.45a22.19 22.19 0 0 0 2.8-17.51A25.9 25.9 0 0 0 177 3.49a24 24 0 0 0-18.8-2.42 27.6 27.6 0 0 0-15.3 11.31l-48 71.94v-.12L47 12.38A27.52 27.52 0 0 0 31.69 1.1 24.79 24.79 0 0 0 25 .18a24 24 0 0 0-12.15 3.31A26 26 0 0 0 1.06 19.94 22.12 22.12 0 0 0 3.9 37.45l29.8 44.68q19.85 29.76 39.72 59.56c.47.71 1 1.45 1.62 2.22a24.09 24.09 0 0 0 7.32 6.67 23.67 23.67 0 0 0 12.14 3.34H96a.77.77 0 0 1 .26 0h.18a.59.59 0 0 0 .21 0 23.24 23.24 0 0 0 10.86-3.25 23.57 23.57 0 0 0 7.3-6.67 23.45 23.45 0 0 0 1.65-2.22z"/><path d="M188.82 19.94A22.19 22.19 0 0 1 186 37.45l-69.5 104.24a23.45 23.45 0 0 1-1.65 2.22 23.57 23.57 0 0 1-7.3 6.67 23.24 23.24 0 0 1-10.86 3.25.59.59 0 0 1-.21 0h-.18a.77.77 0 0 0-.26 0h-1.51a23.67 23.67 0 0 1-12.14-3.34 24.09 24.09 0 0 1-7.39-6.58c-.62-.77-1.15-1.51-1.62-2.22q-19.85-29.8-39.68-59.56L3.9 37.45a22.12 22.12 0 0 1-2.84-17.51A26 26 0 0 1 12.85 3.49 24 24 0 0 1 25 .18a24.79 24.79 0 0 1 6.68.92A27.52 27.52 0 0 1 47 12.38L94.89 84.2v.12l48-71.94A27.6 27.6 0 0 1 158.2 1.07 24 24 0 0 1 177 3.49a25.9 25.9 0 0 1 11.82 16.45z"/></g></svg>