<?xml version="1.0" encoding="utf-8"?>
<!-- Generator: Adobe Illustrator 22.1.0, SVG Export Plug-In . SVG Version: 6.00 Build 0)  -->
<svg version="1.1" id="Layer_1" xmlns="http://www.w3.org/2000/svg" xmlns:xlink="http://www.w3.org/1999/xlink" x="0px" y="0px"
	 viewBox="0 0 141.7 90.7" style="enable-background:new 0 0 141.7 90.7;" xml:space="preserve">
<style type="text/css">
	.st0{fill:#6197EE;stroke:#FFFFFF;stroke-width:2;stroke-miterlimit:10;}
	.st1{fill:#3178EF;stroke:#FFFFFF;stroke-width:2;stroke-miterlimit:10;}
	.st2{fill:#6197EE;}
	.st3{fill:#FFFFFF;}
	.st4{fill:url(#SVGID_1_);}
	.st5{fill:url(#SVGID_2_);}
	.st6{fill:#3178EF;}
	.st7{fill:url(#SVGID_3_);}
	.st8{fill:url(#SVGID_4_);}
	.st9{fill:url(#SVGID_5_);}
</style>
<g>
	<path class="st0" d="M70.9,12.3"/>
</g>
<g>
	<path class="st1" d="M70.9,12.3"/>
</g>
<g>
	<path class="st2" d="M92.5,75.2c6.7-9.9,13.3-19.9,20-29.8"/>
</g>
<g>
	
		<rect x="84.5" y="59.2" transform="matrix(0.5573 -0.8303 0.8303 0.5573 -4.7277 111.7915)" class="st3" width="35.9" height="2.3"/>
</g>
<g>
	<linearGradient id="SVGID_1_" gradientUnits="userSpaceOnUse" x1="52.542" y1="35.2501" x2="106.792" y2="62.5001">
		<stop  offset="0" style="stop-color:#09D670"/>
		<stop  offset="0.1762" style="stop-color:#08D683"/>
		<stop  offset="0.5351" style="stop-color:#05D5B6"/>
		<stop  offset="1" style="stop-color:#00D4FF"/>
	</linearGradient>
	<path class="st4" d="M104.2,82.1c6.7-9.9,13.3-19.9,20-29.8c4.1-6.1,1.2-15.1-4.9-18.6c-6.7-3.9-14.5-1.2-18.6,4.9
		c-6.7,9.9-13.3,19.9-20,29.8c-4.1,6.1-1.2,15.1,4.9,18.6C92.3,90.9,100.1,88.2,104.2,82.1L104.2,82.1z"/>
</g>
<g>
	<path class="st3" d="M92.2,89.9c-2.5,0-4.9-0.6-7.2-2c-3.4-2-6-5.7-7-9.8c-0.9-3.8-0.3-7.5,1.7-10.5l20-29.8
		c4.7-7,13.4-9.2,20.2-5.2c3.4,2,6,5.7,7,9.8c0.9,3.8,0.3,7.5-1.7,10.5l-20,29.8C102.1,87.4,97.2,89.9,92.2,89.9z M112.6,33
		c-4.2,0-8.3,2.2-11,6.2L81.7,69c-1.6,2.4-2.1,5.5-1.4,8.7c0.8,3.5,3,6.6,5.9,8.3c5.9,3.4,13,1.5,17.1-4.5l20-29.8
		c1.6-2.4,2.1-5.5,1.4-8.7c-0.8-3.5-3-6.6-5.9-8.3C116.8,33.5,114.7,33,112.6,33z"/>
</g>
<g>
	<linearGradient id="SVGID_2_" gradientUnits="userSpaceOnUse" x1="75.4035" y1="-10.2631" x2="129.6535" y2="16.9869">
		<stop  offset="0" style="stop-color:#09D670"/>
		<stop  offset="0.1762" style="stop-color:#08D683"/>
		<stop  offset="0.5351" style="stop-color:#05D5B6"/>
		<stop  offset="1" style="stop-color:#00D4FF"/>
	</linearGradient>
	<path class="st5" d="M126.3,29.6c18.4,0,18.5-28.6,0-28.6C107.9,1,107.9,29.6,126.3,29.6L126.3,29.6z"/>
</g>
<g>
	<path class="st3" d="M126.3,30.8c-9.8,0-15-7.8-15-15.4c0-7.7,5.1-15.5,15-15.5c4.6,0,8.5,1.7,11.2,4.9c2.4,2.8,3.7,6.6,3.7,10.6
		C141.3,23,136.2,30.8,126.3,30.8z M126.3,2.2c-8.7,0-12.7,6.8-12.7,13.2c0,6.3,4,13.2,12.7,13.2c3.9,0,7.2-1.4,9.5-4.1
		c2.1-2.4,3.2-5.6,3.2-9.1C139,9,135,2.2,126.3,2.2z"/>
</g>
<g>
	<path class="st6" d="M75.5,75.2c7-10.2,14-20.4,21-30.7"/>
</g>
<g>
	
		<rect x="67.5" y="58.8" transform="matrix(0.5649 -0.8252 0.8252 0.5649 -11.9854 97.0636)" class="st3" width="37.2" height="2.3"/>
</g>
<g>
	<linearGradient id="SVGID_3_" gradientUnits="userSpaceOnUse" x1="49.4067" y1="41.4921" x2="103.6567" y2="68.7421">
		<stop  offset="0" style="stop-color:#09D670"/>
		<stop  offset="0.1762" style="stop-color:#08D683"/>
		<stop  offset="0.5351" style="stop-color:#05D5B6"/>
		<stop  offset="1" style="stop-color:#00D4FF"/>
	</linearGradient>
	<path class="st7" d="M87.9,82.4c7-10.2,14-20.4,21-30.7c4.4-6.4,1.2-15.9-5.1-19.6c-7.1-4.1-15.2-1.3-19.6,5.1
		c-7,10.2-14,20.4-21,30.7c-4.4,6.4-1.2,15.9,5.1,19.6C75.4,91.7,83.5,88.8,87.9,82.4L87.9,82.4z"/>
</g>
<g>
	<path class="st3" d="M75.3,90.7c-2.6,0-5.2-0.7-7.6-2.1c-3.6-2.1-6.4-6-7.3-10.4c-0.9-4-0.2-7.8,1.8-10.8l21-30.7
		c5.1-7.4,13.9-9.7,21.1-5.5c3.6,2.1,6.4,6,7.3,10.4c0.9,4,0.2,7.8-1.8,10.8l-21,30.7l-0.9-0.6l0.9,0.6C85.5,88,80.4,90.7,75.3,90.7
		z M96.8,31.4c-4.7,0-9.1,2.8-11.7,6.6l-21,30.7c-1.7,2.5-2.2,5.7-1.5,9c0.8,3.8,3.2,7.1,6.3,8.9c6.9,4.1,14.3,0.7,18.1-4.8l21-30.7
		c1.7-2.5,2.2-5.7,1.5-9c-0.8-3.8-3.2-7.1-6.3-8.9C101.1,32,98.9,31.4,96.8,31.4z"/>
</g>
<g>
	<linearGradient id="SVGID_4_" gradientUnits="userSpaceOnUse" x1="72.6095" y1="-4.7006" x2="126.8595" y2="22.5494">
		<stop  offset="0" style="stop-color:#09D670"/>
		<stop  offset="0.1762" style="stop-color:#08D683"/>
		<stop  offset="0.5351" style="stop-color:#05D5B6"/>
		<stop  offset="1" style="stop-color:#00D4FF"/>
	</linearGradient>
	<path class="st8" d="M112.5,29.6c18.4,0,18.5-28.6,0-28.6C94,1,94,29.6,112.5,29.6L112.5,29.6z"/>
</g>
<g>
	<path class="st3" d="M112.5,30.8c-4.6,0-8.5-1.7-11.2-4.9c-2.4-2.8-3.7-6.6-3.7-10.6c0-7.7,5.1-15.5,15-15.5
		c4.6,0,8.5,1.7,11.2,4.9c2.4,2.8,3.7,6.6,3.7,10.6C127.4,23,122.3,30.8,112.5,30.8z M112.5,2.2c-8.7,0-12.7,6.8-12.7,13.2
		c0,6.3,4,13.2,12.7,13.2s12.7-6.8,12.7-13.2C125.1,9,121.2,2.2,112.5,2.2z"/>
</g>
<g>
	<linearGradient id="SVGID_5_" gradientUnits="userSpaceOnUse" x1="53.1576" y1="34.0247" x2="107.4076" y2="61.2747">
		<stop  offset="0" style="stop-color:#09D670"/>
		<stop  offset="0.1762" style="stop-color:#08D683"/>
		<stop  offset="0.5351" style="stop-color:#05D5B6"/>
		<stop  offset="1" style="stop-color:#00D4FF"/>
	</linearGradient>
	<path class="st9" d="M102.6,3c-7-4.1-15.3-1.3-19.6,5.1c-9.1,13.8-18.3,27.5-27.4,41.3C46.5,35.6,37.4,21.9,28.3,8.1
		C24,1.7,15.6-1.1,8.7,3C2.3,6.7-0.7,16.1,3.6,22.5c13.2,20,26.5,39.9,39.7,59.9c0.3,0.4,0.6,0.9,0.9,1.3c1.1,1.6,2.5,2.9,4.2,3.9
		c2.4,1.4,5,2,7.6,1.9c0.1,0,0.3,0,0.4,0c0.1,0,0.1,0,0.2,0c2.1-0.1,4.2-0.7,6.2-1.9c1.6-1,3.1-2.3,4.2-3.9c0.3-0.4,0.6-0.8,0.9-1.3
		c13.2-20,26.5-39.9,39.7-59.9C112.1,16.1,109,6.7,102.6,3z"/>
</g>
<g>
	<path class="st3" d="M55.4,90.6c-2.6,0-5.2-0.7-7.5-2.1c-1.7-1-3.3-2.4-4.5-4.2c-0.4-0.4-0.7-0.9-1-1.3L2.6,23.2
		c-2.1-3.1-2.7-7-1.8-11C1.8,7.9,4.6,4.1,8.1,2c7.2-4.2,16.3-1.8,21.1,5.5l26.4,39.8L82.1,7.5C87,0.1,96-2.2,103.2,2
		c3.6,2.1,6.3,5.9,7.3,10.2c0.9,4,0.3,7.9-1.8,11L69,83.1c-0.3,0.4-0.6,0.9-1,1.4c-1.2,1.7-2.8,3.1-4.5,4.1c-2.1,1.2-4.4,1.9-6.8,2
		l-0.4,0c-0.1,0-0.2,0-0.3,0C55.8,90.6,55.6,90.6,55.4,90.6z M15.7,2.2c-2.2,0-4.4,0.6-6.4,1.7c-3,1.8-5.4,5-6.2,8.7
		c-0.8,3.4-0.3,6.6,1.5,9.2l39.7,59.9c0.3,0.4,0.5,0.8,0.9,1.2c1.1,1.5,2.4,2.7,3.9,3.6c2.2,1.3,4.5,1.8,6.9,1.7l0.6,0
		c2-0.1,4-0.7,5.7-1.7c1.5-0.9,2.8-2,3.8-3.5c0.3-0.4,0.6-0.8,0.9-1.2l39.7-59.9c1.7-2.6,2.2-5.9,1.5-9.2c-0.9-3.7-3.2-7-6.2-8.7
		l0,0C96,0.4,88.2,2.4,84,8.7L55.7,51.4L27.3,8.7C24.5,4.5,20.1,2.2,15.7,2.2z"/>
</g>
</svg>
