<svg id="Layer_1" xmlns="http://www.w3.org/2000/svg" viewBox="0 0 141.7 141.7"><style>.st0{fill:#0057a2}</style><path class="st0" d="M25.6 65.7l.1-.2c1.5-1.4 2.7-2 4.5-2 3.4 0 6.1 2.7 6.1 6.1v15.1c0 3.4-2.7 6.1-6.1 6.1-1.8 0-3-.6-4.5-2l-3.2-3.2 3.4-3.4 3.2 3.2c.2.2.5.3.9.3.7 0 1.3-.6 1.3-1.3V69.9c0-.7-.6-1.3-1.3-1.3-.4 0-.7.2-.9.4l-8.6 8.6-3.1 3.1-3.4-3.4 11.6-11.6z"/><path class="st0" d="M14.2 85.5l5-5 6.7-6.7 3.4 3.4-11.6 11.6c-1.5 1.4-2.7 2-4.5 2-3.4 0-6.1-2.7-6.1-6.1V69.6c0-3.4 2.7-6.1 6.1-6.1 1.8 0 3 .6 4.5 2l3.1 3.1-3.4 3.4-3.2-3.2c-.2-.2-.6-.3-.9-.3-.7 0-1.3.6-1.3 1.3v14.6c0 .7.6 1.3 1.3 1.3.4.1.7 0 .9-.2m.6-26.3h13.9v1.6h-14l.1-1.6zm6.1-5.6h1.6v4.7h-1.6v-4.7zm4.6 0c1.1 0 2.1 1 2.1 2 0 .5-.2 1.1-.5 1.4l-1.2 1.2h-2.3l2.2-2.2c.1-.1.2-.2.2-.4 0-.3-.2-.5-.5-.5h-2v-1.6h2z"/><path class="st0" d="M29.1 53.6c1.1 0 2.1.9 2.1 2 0 .5-.2 1.1-.6 1.4l-1.2 1.2h-2.3l2.2-2.2c.1-.1.1-.2.1-.4 0-.3-.2-.5-.5-.5h-.5c-.1-.6-.5-1.2-1-1.6h1.7zm-13.2 2c0-1.1 1-2 2.1-2h2v1.6h-2c-.3 0-.5.3-.5.5s.1.3.1.4l2.2 2.2h-2.3c-.1 0-1.2-1.2-1.2-1.2-.2-.4-.4-.9-.4-1.5"/><path class="st0" d="M12.3 55.6c0-1.1 1-2 2.1-2H16c-.5.4-.9.9-1 1.6h-.5c-.3 0-.5.3-.5.5s.1.3.1.4l2.2 2.2H14c-.1 0-1.2-1.2-1.2-1.2-.3-.4-.5-1-.5-1.5m8.4-3.7c0-.6.5-1 1.1-1 .5 0 1 .5 1 1 0 .6-.5 1-1.1 1-.6 0-1-.5-1-1m92.9 38.6h-4.8V64.4h4.8v26.1zM72.3 64.4v9.3h.2c1.3-2.2 3.5-2.7 5.1-2.7 4.7 0 6.8 2.4 6.8 7.9v11.6h-5V79.9c0-3.3-1-4.7-3.2-4.7-2.8 0-3.9 1.6-3.9 5.4v9.9h-5V64.4h5zm62.4 0v26.1h-4.8c0-.1-.1-2.2-.1-2.2h-.2c-1.1 1.9-3.4 2.4-4.2 2.6-.4.1-.7.1-1.1.1-5.8 0-8.4-5.1-8.4-10.2 0-4.8 2.6-9.9 8.3-9.9.3 0 .7 0 1.2.1 1.5.3 3.1 1.1 4.3 2.1h.1v-8.8h4.9zM120.9 81c0 2.8 1.2 6.1 4.5 6.1h.1c2.9 0 4.6-2.4 4.6-6.2 0-2.9-1.2-6-4.6-6.1h-.1c-2.8.1-4.5 2.3-4.5 6.2m-34.1-.1c0-6.1 3.8-10 9.7-10 5.9 0 9.8 3.9 9.8 10S102.5 91 96.5 91c-5.9 0-9.7-4-9.7-10.1m4.7 0c0 1.9.5 6.3 4.9 6.3 4.3 0 5-4 5-6.3 0-2.4-.6-6.3-5-6.4-4.4 0-4.9 4.5-4.9 6.4M56.9 64.4l8.7 26.1h-5.2l-2-6.6h-8.3l-1.9 6.6h-5.1l8.6-26.1h5.2zm-2.6 5.7h-.1l-3 10.2h6.1l-3-10.2z"/></svg>