<?xml version="1.0" encoding="utf-8"?>
<!-- Generator: Adobe Illustrator 22.1.0, SVG Export Plug-In . SVG Version: 6.00 Build 0)  -->
<svg version="1.1" id="Layer_1" xmlns="http://www.w3.org/2000/svg" xmlns:xlink="http://www.w3.org/1999/xlink" x="0px" y="0px"
	 viewBox="0 0 141.7 141.7" style="enable-background:new 0 0 141.7 141.7;" xml:space="preserve">
<style type="text/css">
	.st0{fill:#6197EE;stroke:#FFFFFF;stroke-width:2;stroke-miterlimit:10;}
	.st1{fill:#3178EF;stroke:#FFFFFF;stroke-width:2;stroke-miterlimit:10;}
	.st2{fill:#6197EE;}
	.st3{fill:#FFFFFF;}
	.st4{fill:#0CF279;}
	.st5{fill:#3178EF;}
	.st6{fill:#0CE573;}
	.st7{fill:#09D670;}
</style>
<g>
	<g>
		<path class="st0" d="M70.9,19.3"/>
	</g>
	<g>
		<path class="st1" d="M70.9,19.3"/>
	</g>
	<g>
		<g>
			<path class="st2" d="M92.5,82.2c6.7-9.9,13.3-19.9,20-29.8"/>
		</g>
		<g>
			
				<rect x="84.5" y="66.2" transform="matrix(0.5573 -0.8303 0.8303 0.5573 -10.5642 114.9068)" class="st3" width="35.9" height="2.3"/>
		</g>
		<g>
			<path class="st4" d="M104.2,89.1c6.7-9.9,13.3-19.9,20-29.8c4.1-6.1,1.2-15.1-4.9-18.6c-6.7-3.9-14.5-1.2-18.6,4.9
				c-6.7,9.9-13.3,19.9-20,29.8c-4.1,6.1-1.2,15.1,4.9,18.6C92.3,97.9,100.1,95.2,104.2,89.1L104.2,89.1z"/>
		</g>
		<g>
			<path class="st3" d="M92.2,96.9c-2.5,0-4.9-0.6-7.2-2c-3.4-2-6-5.7-7-9.8c-0.9-3.8-0.3-7.5,1.7-10.5l20-29.8
				c4.7-7,13.4-9.2,20.2-5.2c3.4,2,6,5.7,7,9.8c0.9,3.8,0.3,7.5-1.7,10.5l-20,29.8C102.1,94.4,97.2,96.9,92.2,96.9z M112.6,40
				c-4.2,0-8.3,2.2-11,6.2L81.7,76c-1.6,2.4-2.1,5.5-1.4,8.7c0.8,3.5,3,6.6,5.9,8.3c5.9,3.4,13,1.5,17.1-4.5l20-29.8
				c1.6-2.4,2.1-5.5,1.4-8.7c-0.8-3.5-3-6.6-5.9-8.3C116.8,40.5,114.7,40,112.6,40z"/>
		</g>
		<g>
			<path class="st4" d="M126.3,36.6c18.4,0,18.5-28.6,0-28.6C107.9,8,107.9,36.6,126.3,36.6L126.3,36.6z"/>
		</g>
		<g>
			<path class="st3" d="M126.3,37.8c-9.8,0-15-7.8-15-15.4c0-7.7,5.1-15.5,15-15.5c4.6,0,8.5,1.7,11.2,4.9c2.4,2.8,3.7,6.6,3.7,10.6
				C141.3,30,136.2,37.8,126.3,37.8z M126.3,9.2c-8.7,0-12.7,6.8-12.7,13.2c0,6.3,4,13.2,12.7,13.2c3.9,0,7.2-1.4,9.5-4.1
				c2.1-2.4,3.2-5.6,3.2-9.1C139,16,135,9.2,126.3,9.2z"/>
		</g>
		<g>
			<path class="st5" d="M75.5,82.2c7-10.2,14-20.4,21-30.7"/>
		</g>
		<g>
			
				<rect x="67.5" y="65.7" transform="matrix(0.5649 -0.8252 0.8252 0.5649 -17.7132 100.1674)" class="st3" width="37.2" height="2.3"/>
		</g>
		<g>
			<path class="st6" d="M87.9,89.4c7-10.2,14-20.4,21-30.7c4.4-6.4,1.2-15.9-5.1-19.6c-7.1-4.1-15.2-1.3-19.6,5.1
				c-7,10.2-14,20.4-21,30.7c-4.4,6.4-1.2,15.9,5.1,19.6C75.4,98.7,83.5,95.8,87.9,89.4L87.9,89.4z"/>
		</g>
		<g>
			<path class="st3" d="M75.3,97.7c-2.6,0-5.2-0.7-7.6-2.1c-3.6-2.1-6.4-6-7.3-10.4c-0.9-4-0.2-7.8,1.8-10.8l21-30.7
				c5.1-7.4,13.9-9.7,21.1-5.5c3.6,2.1,6.4,6,7.3,10.4c0.9,4,0.2,7.8-1.8,10.8l-21,30.7l-0.9-0.6l0.9,0.6
				C85.5,95,80.4,97.7,75.3,97.7z M96.8,38.4c-4.7,0-9.1,2.8-11.7,6.6l-21,30.7c-1.7,2.5-2.2,5.7-1.5,9c0.8,3.8,3.2,7.1,6.3,8.9
				c6.9,4.1,14.3,0.7,18.1-4.8l21-30.7c1.7-2.5,2.2-5.7,1.5-9c-0.8-3.8-3.2-7.1-6.3-8.9C101.1,39,98.9,38.4,96.8,38.4z"/>
		</g>
		<g>
			<path class="st6" d="M112.5,36.6c18.4,0,18.5-28.6,0-28.6C94,8,94,36.6,112.5,36.6L112.5,36.6z"/>
		</g>
		<g>
			<path class="st3" d="M112.5,37.8c-4.6,0-8.5-1.7-11.2-4.9c-2.4-2.8-3.7-6.6-3.7-10.6c0-7.7,5.1-15.5,15-15.5
				c4.6,0,8.5,1.7,11.2,4.9c2.4,2.8,3.7,6.6,3.7,10.6C127.4,30,122.3,37.8,112.5,37.8z M112.5,9.2c-8.7,0-12.7,6.8-12.7,13.2
				c0,6.3,4,13.2,12.7,13.2s12.7-6.8,12.7-13.2C125.1,16,121.2,9.2,112.5,9.2z"/>
		</g>
		<g>
			<path class="st7" d="M102.6,10c-7-4.1-15.3-1.3-19.6,5.1c-9.1,13.8-18.3,27.5-27.4,41.3c-9.1-13.8-18.3-27.5-27.4-41.3
				C24,8.7,15.6,5.9,8.7,10c-6.4,3.7-9.4,13.1-5.1,19.6c13.2,20,26.5,39.9,39.7,59.9c0.3,0.4,0.6,0.9,0.9,1.3
				c1.1,1.6,2.5,2.9,4.2,3.9c2.4,1.4,5,2,7.6,1.9c0.1,0,0.3,0,0.4,0c0.1,0,0.1,0,0.2,0c2.1-0.1,4.2-0.7,6.2-1.9
				c1.6-1,3.1-2.3,4.2-3.9c0.3-0.4,0.6-0.8,0.9-1.3c13.2-20,26.5-39.9,39.7-59.9C112.1,23.1,109,13.7,102.6,10z"/>
		</g>
		<g>
			<path class="st3" d="M55.4,97.6c-2.6,0-5.2-0.7-7.5-2.1c-1.7-1-3.3-2.4-4.5-4.2c-0.4-0.4-0.7-0.9-1-1.3L2.6,30.2
				c-2.1-3.1-2.7-7-1.8-11c1-4.3,3.7-8.1,7.3-10.2c7.2-4.2,16.3-1.8,21.1,5.5l26.4,39.8L82,14.5c5-7.4,14-9.7,21.2-5.5
				c3.6,2.1,6.3,5.9,7.3,10.2c0.9,4,0.3,7.9-1.8,11L69,90.1c-0.3,0.4-0.6,0.9-1,1.4c-1.2,1.7-2.8,3.1-4.5,4.1
				c-2.1,1.2-4.4,1.9-6.8,2h-0.4c-0.1,0-0.2,0-0.3,0C55.8,97.6,55.6,97.6,55.4,97.6z M15.7,9.2c-2.2,0-4.4,0.6-6.4,1.7
				c-3,1.8-5.4,5-6.2,8.7c-0.8,3.4-0.3,6.6,1.5,9.2l39.7,59.9c0.3,0.4,0.5,0.8,0.9,1.2c1.1,1.5,2.4,2.7,3.9,3.6
				c2.2,1.3,4.5,1.8,6.9,1.7h0.6c2-0.1,4-0.7,5.7-1.7c1.5-0.9,2.8-2,3.8-3.5c0.3-0.4,0.6-0.8,0.9-1.2l39.7-59.9
				c1.7-2.6,2.2-5.9,1.5-9.2c-0.9-3.7-3.2-7-6.2-8.7l0,0c-6-3.6-13.8-1.6-18,4.7L55.7,58.4L27.3,15.7C24.5,11.5,20.1,9.2,15.7,9.2z"
				/>
		</g>
	</g>
	<g>
		<path class="st7" d="M1,119.4c0-0.4,0.2-0.7,0.7-1s1-0.4,1.5-0.4c0.7,0,1,0.2,1.2,0.7l3.2,11.8l3.2-11.8c0.1-0.4,0.5-0.7,1.2-0.7
			c0.5,0,1,0.1,1.5,0.4s0.7,0.6,0.7,1c0,0,0,0.1,0,0.3l-4.3,14c-0.1,0.4-0.4,0.7-0.8,0.9c-0.4,0.2-0.9,0.3-1.5,0.3s-1.1-0.1-1.5-0.3
			s-0.7-0.5-0.8-0.9l-4.3-14C1,119.5,1,119.4,1,119.4z"/>
		<path class="st7" d="M15.9,121.2c-0.4-0.3-0.5-0.7-0.5-1.1s0.2-0.8,0.5-1.1c0.4-0.3,0.8-0.5,1.3-0.5s0.9,0.2,1.3,0.5
			s0.5,0.7,0.5,1.1s-0.2,0.8-0.5,1.1c-0.4,0.3-0.8,0.5-1.3,0.5C16.7,121.6,16.3,121.5,15.9,121.2z M15.5,133.5v-8.7
			c0-0.3,0.2-0.6,0.5-0.8c0.3-0.2,0.8-0.3,1.3-0.3s0.9,0.1,1.3,0.3c0.3,0.2,0.5,0.5,0.5,0.8v8.7c0,0.3-0.2,0.5-0.5,0.8
			c-0.4,0.2-0.8,0.3-1.3,0.3s-0.9-0.1-1.3-0.3C15.6,134.1,15.5,133.8,15.5,133.5z"/>
		<path class="st7" d="M21.5,121.2c-0.4-0.3-0.5-0.7-0.5-1.1s0.2-0.8,0.5-1.1c0.4-0.3,0.8-0.5,1.3-0.5s0.9,0.2,1.3,0.5
			s0.5,0.7,0.5,1.1s-0.2,0.8-0.5,1.1c-0.4,0.3-0.8,0.5-1.3,0.5C22.3,121.6,21.9,121.5,21.5,121.2z M21.1,133.5v-8.7
			c0-0.3,0.2-0.6,0.5-0.8c0.3-0.2,0.8-0.3,1.3-0.3s0.9,0.1,1.3,0.3c0.3,0.2,0.5,0.5,0.5,0.8v8.7c0,0.3-0.2,0.5-0.5,0.8
			c-0.4,0.2-0.8,0.3-1.3,0.3s-0.9-0.1-1.3-0.3S21.1,133.8,21.1,133.5z"/>
		<path class="st6" d="M26.9,133.5V119c0-0.3,0.1-0.5,0.4-0.8c0.2-0.2,0.6-0.3,1-0.3H33c1.6,0,2.9,0.4,3.9,1.3c1,0.8,1.5,2.2,1.5,4
			v0.1c0,1.8-0.5,3.2-1.5,4c-1,0.9-2.4,1.3-4.1,1.3h-2.3v4.9c0,0.4-0.2,0.6-0.5,0.8c-0.4,0.2-0.8,0.3-1.3,0.3s-0.9-0.1-1.3-0.3
			C27,134.2,26.9,133.9,26.9,133.5z M30.4,125.8h2.3c1.4,0,2.1-0.8,2.1-2.3v-0.3c0-1.5-0.7-2.3-2.1-2.3h-2.3
			C30.4,120.9,30.4,125.8,30.4,125.8z"/>
		<path class="st6" d="M39.5,133.5v-8.7c0-0.3,0.2-0.6,0.5-0.8c0.3-0.2,0.7-0.3,1.2-0.3c0.4,0,0.8,0.1,1.1,0.3
			c0.3,0.2,0.5,0.5,0.5,0.8v0.9c0.2-0.6,0.6-1,1.1-1.5c0.5-0.4,1-0.6,1.6-0.6h0.7c0.3,0,0.6,0.2,0.9,0.5c0.3,0.3,0.4,0.7,0.4,1.1
			s-0.1,0.8-0.4,1.1c-0.3,0.3-0.5,0.5-0.9,0.5h-0.7c-0.7,0-1.2,0.3-1.7,0.9s-0.8,1.5-0.8,2.5v3.4c0,0.3-0.2,0.5-0.5,0.8
			c-0.4,0.2-0.8,0.3-1.3,0.3s-0.9-0.1-1.2-0.3C39.7,134.1,39.5,133.8,39.5,133.5z"/>
		<path class="st6" d="M48,130v-1.6c0-1.3,0.5-2.4,1.5-3.4s2.2-1.4,3.7-1.4c1.4,0,2.6,0.5,3.7,1.4c1,0.9,1.6,2.1,1.6,3.4v1.6
			c0,1.3-0.5,2.4-1.6,3.4c-1,1-2.3,1.5-3.7,1.5s-2.6-0.5-3.6-1.5C48.5,132.4,48,131.3,48,130z M51.5,130c0,0.5,0.2,0.9,0.5,1.2
			c0.3,0.4,0.7,0.5,1.2,0.5s0.9-0.2,1.2-0.5c0.3-0.4,0.5-0.8,0.5-1.2v-1.6c0-0.4-0.2-0.8-0.5-1.2c-0.3-0.3-0.7-0.5-1.2-0.5
			c-0.4,0-0.8,0.2-1.2,0.5c-0.3,0.3-0.5,0.7-0.5,1.2V130z"/>
		<path class="st4" d="M59.7,130v-1.6c0-1.3,0.4-2.4,1.2-3.4c0.8-0.9,1.7-1.4,2.9-1.4c0.7,0,1.2,0.2,1.8,0.5
			c0.5,0.3,0.9,0.8,1.2,1.2v-6.7c0-0.3,0.2-0.6,0.5-0.8c0.3-0.2,0.8-0.3,1.3-0.3s0.9,0.1,1.2,0.3c0.3,0.2,0.5,0.5,0.5,0.8v14.9
			c0,0.3-0.2,0.5-0.5,0.8c-0.3,0.2-0.7,0.3-1.2,0.3c-0.4,0-0.8-0.1-1.1-0.3c-0.3-0.2-0.5-0.5-0.5-0.8V133c-0.2,0.5-0.7,0.9-1.3,1.3
			c-0.6,0.4-1.2,0.5-1.9,0.5c-1.1,0-2-0.5-2.8-1.5C60.1,132.4,59.7,131.3,59.7,130z M63.2,130c0,0.5,0.2,0.9,0.5,1.2
			c0.3,0.4,0.7,0.5,1.2,0.5c0.4,0,0.8-0.2,1.2-0.5c0.4-0.4,0.5-0.7,0.5-0.9v-1.9c0-0.5-0.2-0.9-0.5-1.2c-0.4-0.3-0.8-0.5-1.2-0.5
			c-0.5,0-0.9,0.2-1.2,0.5s-0.5,0.7-0.5,1.2V130z"/>
		<path class="st4" d="M72.2,130.1v-5.2c0-0.3,0.2-0.5,0.5-0.8c0.4-0.2,0.8-0.3,1.3-0.3s0.9,0.1,1.2,0.3c0.4,0.2,0.5,0.5,0.5,0.8
			v5.2c0,0.4,0.2,0.8,0.5,1.2c0.3,0.3,0.7,0.5,1.2,0.5c0.4,0,0.8-0.2,1.2-0.5c0.3-0.4,0.5-0.7,0.5-1.2v-5.2c0-0.3,0.2-0.5,0.5-0.8
			c0.4-0.2,0.8-0.3,1.2-0.3c0.5,0,0.9,0.1,1.3,0.3c0.3,0.2,0.5,0.5,0.5,0.8v5.2c0,1.3-0.5,2.4-1.5,3.4s-2.2,1.4-3.7,1.4
			c-1.4,0-2.6-0.5-3.7-1.4C72.7,132.5,72.2,131.3,72.2,130.1z"/>
		<path class="st4" d="M84.1,130v-1.6c0-1.5,0.4-2.6,1.3-3.5s2.1-1.3,3.9-1.3c1.1,0,2,0.2,2.8,0.6c0.7,0.4,1.1,0.8,1.1,1.3
			c0,0.4-0.1,0.8-0.4,1.2c-0.3,0.4-0.6,0.6-1,0.6c-0.1,0-0.4-0.1-0.8-0.3c-0.4-0.2-0.9-0.3-1.4-0.3c-1.3,0-1.9,0.6-1.9,1.7v1.5
			c0,1.2,0.6,1.7,1.9,1.7c0.5,0,0.9-0.1,1.3-0.3s0.7-0.3,0.9-0.3c0.4,0,0.8,0.2,1.1,0.5c0.3,0.4,0.4,0.7,0.4,1.1
			c0,0.5-0.4,1-1.2,1.4c-0.8,0.4-1.7,0.6-2.8,0.6c-1.7,0-3-0.4-3.9-1.3C84.6,132.7,84.1,131.5,84.1,130z"/>
		<path class="st4" d="M94.6,130.8v-10.5c0-0.3,0.2-0.6,0.5-0.8c0.4-0.2,0.8-0.3,1.2-0.3c0.5,0,0.9,0.1,1.2,0.3
			c0.4,0.2,0.5,0.4,0.5,0.7v3.5h2.6c0.3,0,0.5,0.1,0.6,0.4c0.2,0.3,0.2,0.6,0.2,1s-0.1,0.7-0.2,1c-0.2,0.3-0.4,0.4-0.6,0.4H98v4.2
			c0,0.3,0.1,0.5,0.2,0.7s0.4,0.2,0.7,0.2h1c0.5,0,0.9,0.2,1.1,0.5c0.3,0.3,0.4,0.7,0.4,1.1c0,0.4-0.1,0.8-0.4,1.1s-0.6,0.5-1.1,0.5
			h-1C96.1,134.6,94.6,133.4,94.6,130.8z"/>
		<path class="st4" d="M103.4,121.2c-0.4-0.3-0.5-0.7-0.5-1.1s0.2-0.8,0.5-1.1c0.4-0.3,0.8-0.5,1.3-0.5s0.9,0.2,1.3,0.5
			s0.5,0.7,0.5,1.1s-0.2,0.8-0.5,1.1c-0.4,0.3-0.8,0.5-1.3,0.5C104.2,121.6,103.8,121.5,103.4,121.2z M103,133.5v-8.7
			c0-0.3,0.2-0.6,0.5-0.8c0.3-0.2,0.8-0.3,1.3-0.3s0.9,0.1,1.3,0.3c0.3,0.2,0.5,0.5,0.5,0.8v8.7c0,0.3-0.2,0.5-0.5,0.8
			c-0.4,0.2-0.8,0.3-1.3,0.3s-0.9-0.1-1.3-0.3C103.2,134.1,103,133.8,103,133.5z"/>
		<path class="st4" d="M108.2,130v-1.6c0-1.3,0.5-2.4,1.5-3.4s2.2-1.4,3.7-1.4c1.4,0,2.6,0.5,3.7,1.4c1,0.9,1.6,2.1,1.6,3.4v1.6
			c0,1.3-0.5,2.4-1.6,3.4c-1,1-2.3,1.5-3.7,1.5s-2.6-0.5-3.6-1.5C108.7,132.4,108.2,131.3,108.2,130z M111.7,130
			c0,0.5,0.2,0.9,0.5,1.2c0.3,0.4,0.7,0.5,1.2,0.5s0.9-0.2,1.2-0.5c0.3-0.4,0.5-0.8,0.5-1.2v-1.6c0-0.4-0.2-0.8-0.5-1.2
			c-0.3-0.3-0.7-0.5-1.2-0.5s-0.8,0.2-1.2,0.5c-0.3,0.3-0.5,0.7-0.5,1.2V130z"/>
		<path class="st4" d="M120.2,133.5v-8.7c0-0.3,0.2-0.6,0.5-0.8c0.3-0.2,0.8-0.3,1.3-0.3c0.4,0,0.8,0.1,1.1,0.3
			c0.3,0.2,0.5,0.5,0.5,0.8v0.5c0.2-0.5,0.6-0.9,1.2-1.2c0.5-0.3,1.2-0.5,1.9-0.5c1.1,0,2,0.5,2.7,1.4c0.8,0.9,1.2,2.1,1.2,3.4v5.1
			c0,0.4-0.2,0.6-0.5,0.8s-0.8,0.3-1.3,0.3s-0.9-0.1-1.2-0.3c-0.4-0.2-0.5-0.5-0.5-0.8v-5.1c0-0.4-0.2-0.8-0.5-1.2
			c-0.3-0.3-0.7-0.5-1.2-0.5c-0.4,0-0.8,0.2-1.1,0.5c-0.3,0.3-0.5,0.7-0.5,1.2v5.1c0,0.3-0.2,0.5-0.5,0.8c-0.4,0.2-0.8,0.3-1.2,0.3
			c-0.5,0-0.9-0.1-1.3-0.3C120.4,134.1,120.2,133.8,120.2,133.5z"/>
		<path class="st4" d="M131.9,132.8c0-0.3,0.1-0.7,0.3-1c0.2-0.4,0.5-0.5,0.8-0.5c0.2,0,0.4,0.1,0.7,0.2c0.3,0.1,0.6,0.3,1,0.5
			s0.9,0.2,1.4,0.2c0.9,0,1.4-0.2,1.4-0.7c0-0.3-0.2-0.5-0.5-0.7c-0.4-0.2-0.8-0.3-1.3-0.4c-0.5-0.1-1.1-0.3-1.6-0.5s-1-0.5-1.3-0.9
			c-0.4-0.4-0.5-1-0.5-1.7c0-1,0.3-1.9,1-2.6s1.8-1.1,3.3-1.1c1,0,1.9,0.2,2.7,0.5s1.2,0.7,1.2,1.2c0,0.3-0.1,0.7-0.4,1.1
			c-0.2,0.4-0.5,0.6-0.9,0.6c-0.2,0-0.5-0.1-1.1-0.3c-0.5-0.2-1.1-0.3-1.5-0.3s-0.8,0.1-1,0.2s-0.3,0.3-0.3,0.5s0.2,0.4,0.6,0.5
			c0.4,0.1,0.8,0.3,1.4,0.4c0.5,0.1,1.1,0.3,1.6,0.5s1,0.5,1.4,1s0.6,1.1,0.6,1.8c0,1.1-0.4,2-1.2,2.6s-1.9,1-3.3,1
			c-1.2,0-2.2-0.2-3.1-0.6C132.4,133.8,131.9,133.3,131.9,132.8z"/>
	</g>
</g>
</svg>
