<svg xmlns="http://www.w3.org/2000/svg" xmlns:xlink="http://www.w3.org/1999/xlink" viewBox="0 0 189.86 38.23"><defs><linearGradient id="a" x1="24.98" y1="-13.9" x2="59.71" y2="6.15" gradientUnits="userSpaceOnUse"><stop offset="0" stop-color="#4db86b"/><stop offset=".19" stop-color="#4cba7e"/><stop offset=".57" stop-color="#49bfb1"/><stop offset="1" stop-color="#45c6ef"/></linearGradient><linearGradient id="c" x1="24.97" y1="-13.9" x2="59.71" y2="6.15" xlink:href="#a"/><linearGradient id="d" x1="14.16" y1="6.5" x2="48.84" y2="26.52" xlink:href="#a"/><linearGradient id="e" x1="14.15" y1="6.49" x2="48.83" y2="26.51" xlink:href="#a"/><linearGradient id="f" x1="23.18" y1="-9.85" x2="57.74" y2="10.1" xlink:href="#a"/><linearGradient id="g" x1="23.18" y1="-9.85" x2="57.74" y2="10.1" xlink:href="#a"/><linearGradient id="h" x1="15.85" y1="12.61" x2="46.53" y2="30.32" xlink:href="#a"/><linearGradient id="i" x1="15.88" y1="12.63" x2="46.52" y2="30.32" xlink:href="#a"/><linearGradient id="j" x1="20.11" y1="-8.97" x2="57.51" y2="12.62" xlink:href="#a"/><linearGradient id="k" x1="21.5" y1="-4.67" x2="55.11" y2="14.73" xlink:href="#a"/><linearGradient id="l" x1="24.59" y1="-9.88" x2="57.61" y2="9.18" xlink:href="#a"/><linearGradient id="m" x1="13.69" y1="8.48" x2="47.45" y2="27.97" xlink:href="#a"/><linearGradient id="n" x1="13.69" y1="8.48" x2="47.45" y2="27.97" xlink:href="#a"/><linearGradient id="b" x1="74.24" y1="5.29" x2="173.18" y2="64.19" gradientUnits="userSpaceOnUse"><stop offset="0" stop-color="#45c6ef"/><stop offset=".43" stop-color="#49bfb1"/><stop offset=".81" stop-color="#4cba7e"/><stop offset="1" stop-color="#4db86b"/></linearGradient><linearGradient id="o" x1="71.72" y1="9.53" x2="170.66" y2="68.43" xlink:href="#b"/><linearGradient id="p" x1="84.87" y1="-12.58" x2="183.82" y2="46.33" xlink:href="#b"/><linearGradient id="q" x1="79.29" y1="-3.19" x2="178.23" y2="55.71" xlink:href="#b"/><linearGradient id="r" x1="69" y1="14.09" x2="167.95" y2="72.99" xlink:href="#b"/></defs><title>logo_gradient_full_2</title><g data-name="Warstwa 1"><path d="M65 3.06a5.77 5.77 0 0 1 1.2 3.82 5.67 5.67 0 0 1-1.9 3.89 6 6 0 0 1-3.79 1.56h-.12a5.93 5.93 0 0 1-3.75-1.47 6.64 6.64 0 0 0 1.58-4 6.69 6.69 0 0 0-1.58-4.53l.08-.07A6.07 6.07 0 0 1 61.47.87h.06A5.89 5.89 0 0 1 65 3.06z" fill="url(#a)"/><path d="M66.11 6.87a5.65 5.65 0 0 0-1.18-3.78A6 6 0 0 0 61.52.92h-.06a6 6 0 0 0-4.79 1.31l-.06.06a6.56 6.56 0 0 1 0 8.54 5.84 5.84 0 0 0 3.73 1.46h.12a5.91 5.91 0 0 0 3.77-1.55 5.62 5.62 0 0 0 1.88-3.87z" fill="url(#c)"/><path d="M64.93 3.09a5.61 5.61 0 0 1-.7 7.65 5.91 5.91 0 0 1-3.77 1.55h-.12a5.84 5.84 0 0 1-3.73-1.46 6.56 6.56 0 0 0 0-8.54l.06-.06A6 6 0 0 1 61.46.9h.06a6 6 0 0 1 3.41 2.19z" fill="url(#c)"/><path d="M57.6 17.46a6 6 0 0 1-.31 4l-9.74 14.4-.16.18a6.17 6.17 0 0 1-1.33 1.22 5.59 5.59 0 0 1-2.8 1h-.36a6 6 0 0 1-3.8-1.44L49 22a6.57 6.57 0 0 0 .7-3.71 6.24 6.24 0 0 0-1.5-3.53 5.86 5.86 0 0 1 3.48-1.45 5.67 5.67 0 0 1 5.89 4.16z" fill="url(#d)"/><path d="M57.26 21.44a5.81 5.81 0 0 0-2-7.16 5.67 5.67 0 0 0-3.18-1h-.39a5.89 5.89 0 0 0-3.45 1.44 6.27 6.27 0 0 1 1.51 3.55 6.61 6.61 0 0 1-.71 3.73l-10 14.68a6 6 0 0 0 3.86 1.52h.36a5.83 5.83 0 0 0 4.11-2.2l.15-.17z" fill="url(#e)"/><path d="M57.56 17.48a5.81 5.81 0 0 1-.3 4l-9.74 14.4-.15.17a5.83 5.83 0 0 1-4.11 2.17h-.36a6 6 0 0 1-3.78-1.44l10-14.68a6.61 6.61 0 0 0 .71-3.73 6.27 6.27 0 0 0-1.51-3.55 5.89 5.89 0 0 1 3.45-1.44h.39a5.67 5.67 0 0 1 3.18 1 5.75 5.75 0 0 1 2.22 3.1z" fill="url(#e)"/><path d="M51.68.76a5.88 5.88 0 0 1 5.62 5.83 5.66 5.66 0 0 1-1.79 4 6 6 0 0 1-3.86 1.65h-.16A6.22 6.22 0 0 1 47 10.06a6.28 6.28 0 0 0 4.48 2.19h.16a6 6 0 0 0 3.84-1.64 5.62 5.62 0 0 0 1.78-4A5.86 5.86 0 0 0 51.68.79h-.17A6.22 6.22 0 0 0 47 3 6.29 6.29 0 0 1 51.51.75z" fill="url(#f)"/><path d="M51.68.79a5.86 5.86 0 0 1 5.59 5.8 5.62 5.62 0 0 1-1.78 4 6 6 0 0 1-3.84 1.64h-.16A6.28 6.28 0 0 1 47 10a6.22 6.22 0 0 0 1.05-3A6.39 6.39 0 0 0 47 3 6.22 6.22 0 0 1 51.51.79z" fill="url(#g)"/><path d="M48.23 16.31a5.54 5.54 0 0 1 .2 5l-.19.36-3.88 5.72-5.85 8.63A6.1 6.1 0 0 1 34 38.23h-.2a5.89 5.89 0 0 1-4.23-2.1Q37.13 24.8 44.7 13.49a6 6 0 0 1 3.53 2.82z" fill="url(#h)"/><path d="M48.4 21.32a5.47 5.47 0 0 0-.21-5 5.93 5.93 0 0 0-3.45-2.85Q37.16 24.8 29.62 36.12a5.89 5.89 0 0 0 4.19 2.07H34A6.07 6.07 0 0 0 38.48 36l5.85-8.64 3.87-5.7z" fill="url(#i)"/><path d="M48.19 16.34a5.47 5.47 0 0 1 .21 5l-.2.37-3.87 5.7L38.48 36A6.07 6.07 0 0 1 34 38.2h-.2a5.89 5.89 0 0 1-4.19-2.07q7.57-11.33 15.13-22.64a5.93 5.93 0 0 1 3.45 2.85z" fill="url(#i)"/><path d="M47 3a6.39 6.39 0 0 1 1.06 4A6.22 6.22 0 0 1 47 10a6.28 6.28 0 0 0 1.06-3 6.52 6.52 0 0 0-1.05-4S47 3.05 47 3z" fill="url(#j)"/><path d="M46.83 4.94a5.56 5.56 0 0 1-.7 4.38L28.88 35.18a6 6 0 0 1-.41.55 5.88 5.88 0 0 1-4.54 2.48h-.54a5.9 5.9 0 0 1-4.86-2.5c-.15-.19-.29-.37-.41-.55Q13.2 27.79 8.26 20.4L.88 9.32a5.57 5.57 0 0 1-.72-4.38A6.52 6.52 0 0 1 3.11.83a6 6 0 0 1 4.7-.59 6.85 6.85 0 0 1 3.82 2.82l11.87 17.8 11.87-17.8A6.82 6.82 0 0 1 39.19.23a6 6 0 0 1 4.7.6 6.47 6.47 0 0 1 2.94 4.11z" fill="url(#m)"/><path d="M46.1 9.29A5.5 5.5 0 0 0 46.79 5 6.39 6.39 0 0 0 43.87.87a5.93 5.93 0 0 0-4.67-.6 6.8 6.8 0 0 0-3.8 2.8L23.5 20.92 11.6 3.07A6.86 6.86 0 0 0 7.8.27 6.31 6.31 0 0 0 6.14.05a5.88 5.88 0 0 0-3 .82A6.43 6.43 0 0 0 .2 5a5.46 5.46 0 0 0 .7 4.29l7.4 11.09q4.92 7.4 9.86 14.78a4.46 4.46 0 0 0 .4.55 6 6 0 0 0 4.83 2.49h.54a5.8 5.8 0 0 0 2.7-.8 5.93 5.93 0 0 0 1.81-1.66 6 6 0 0 0 .41-.55z" fill="url(#n)"/><path d="M46.79 5a5.5 5.5 0 0 1-.69 4.34L28.85 35.16a6 6 0 0 1-.41.55 5.93 5.93 0 0 1-1.81 1.66 5.8 5.8 0 0 1-2.7.8h-.54a6 6 0 0 1-4.83-2.49 4.46 4.46 0 0 1-.4-.55q-4.94-7.36-9.86-14.75L.9 9.29A5.46 5.46 0 0 1 .2 5 6.43 6.43 0 0 1 3.13.87a5.88 5.88 0 0 1 3-.82A6.31 6.31 0 0 1 7.8.27a6.86 6.86 0 0 1 3.8 2.8l11.88 17.82L35.4 3.07a6.8 6.8 0 0 1 3.8-2.8 5.93 5.93 0 0 1 4.67.6A6.39 6.39 0 0 1 46.79 5z" fill="url(#n)"/><path d="M112.09 25.61a1.23 1.23 0 0 0-1 .59 3.52 3.52 0 0 0-.5 1.48v.48a2.59 2.59 0 0 0 .15.93.91.91 0 0 0 .92.63 1.2 1.2 0 0 0 1-.64 3.45 3.45 0 0 0 .46-1.4 5.59 5.59 0 0 0 0-.56 2.32 2.32 0 0 0-.16-.93.9.9 0 0 0-.87-.58z" fill="url(#b)"/><path d="M102.45 25.56a1.4 1.4 0 0 0-1.36 1.1 3.51 3.51 0 0 0-.24 1 4.46 4.46 0 0 0 0 .63 1.88 1.88 0 0 0 .29 1.09 1 1 0 0 0 .85.42 1.19 1.19 0 0 0 .83-.31 2 2 0 0 0 .56-.86 4.62 4.62 0 0 0 .23-1v-.53a2 2 0 0 0-.28-1.15 1 1 0 0 0-.88-.39z" fill="url(#o)"/><path d="M152.74 25.56a1.4 1.4 0 0 0-1.36 1.1 2.94 2.94 0 0 0-.24 1 3.35 3.35 0 0 0 0 .63 1.8 1.8 0 0 0 .29 1.09 1 1 0 0 0 .85.42 1.22 1.22 0 0 0 .83-.31 2.14 2.14 0 0 0 .56-.86 5.43 5.43 0 0 0 .22-1v-.53a2 2 0 0 0-.28-1.15 1 1 0 0 0-.87-.39z" fill="url(#p)"/><path d="M177.59 13.52H78.51a12.3 12.3 0 0 0-12.26 12.26v.11a12.3 12.3 0 0 0 12.26 12.27h99.08a12.3 12.3 0 0 0 12.27-12.27v-.11a12.3 12.3 0 0 0-12.27-12.26zM90.53 24a4.15 4.15 0 0 1-.73 1.95 3.84 3.84 0 0 1-1.54 1.31 4.67 4.67 0 0 1-2.11.46h-2a.14.14 0 0 0-.14.12l-.49 4a.38.38 0 0 1-.1.22.32.32 0 0 1-.23.09h-2.11a.26.26 0 0 1-.21-.09.26.26 0 0 1-.06-.22l1.39-11.37a.42.42 0 0 1 .11-.22.38.38 0 0 1 .23-.08h4.66a3.46 3.46 0 0 1 2.46.86 3.13 3.13 0 0 1 .91 2.35 5.7 5.7 0 0 1-.04.62zm7.14-.24L97 25.9c0 .1-.06.16-.12.19a.38.38 0 0 1-.24 0 2.31 2.31 0 0 0-.49-.05 2.07 2.07 0 0 0-.41 0 1.84 1.84 0 0 0-.91.41 1.37 1.37 0 0 0-.47.9l-.52 4.37c0 .21-.15.31-.34.31h-2.12a.23.23 0 0 1-.2-.09.26.26 0 0 1-.05-.22l1-8.18a.41.41 0 0 1 .1-.22.33.33 0 0 1 .22-.08h2.15a.29.29 0 0 1 .21.08.28.28 0 0 1 .06.22l-.05.38v.1c0 .01.06 0 .1 0a2.22 2.22 0 0 1 1.76-.85 1.67 1.67 0 0 1 .85.19.24.24 0 0 1 .14.23.46.46 0 0 1 0 .13zm8.64 3.89a5.68 5.68 0 0 1-.37 1.5 4.64 4.64 0 0 1-1.65 2.26 4.36 4.36 0 0 1-2.66.83 3.55 3.55 0 0 1-2.41-.81 3.42 3.42 0 0 1-1.12-2.21 4.4 4.4 0 0 1 0-.73 5.46 5.46 0 0 1 0-.8 7.12 7.12 0 0 1 .41-1.69 4.48 4.48 0 0 1 4.26-2.86 3.64 3.64 0 0 1 2.37.76 3.31 3.31 0 0 1 1.14 2.1 6.17 6.17 0 0 1 .06.92 6 6 0 0 1-.03.69zm9 4.15a.33.33 0 0 1-.11.22.28.28 0 0 1-.22.09h-2.14a.26.26 0 0 1-.21-.09.26.26 0 0 1-.06-.22l.05-.41v-.1c0-.01-.06 0-.1.05a2.48 2.48 0 0 1-2 .9 2.75 2.75 0 0 1-1.89-.73 3 3 0 0 1-1-1.88 6.13 6.13 0 0 1-.09-1 9 9 0 0 1 .07-1 6.61 6.61 0 0 1 .61-2.14 4.44 4.44 0 0 1 1.44-1.71 3.31 3.31 0 0 1 2-.65 2 2 0 0 1 1.78.78s0 .06.09.05a.1.1 0 0 0 0-.1l.42-3.39a.36.36 0 0 1 .11-.22.31.31 0 0 1 .22-.08h2.16a.26.26 0 0 1 .2.08.32.32 0 0 1 0 .22zm9.6 0a.32.32 0 0 1-.34.31h-2.14a.23.23 0 0 1-.2-.09.26.26 0 0 1-.06-.22l.06-.42v-.1c0-.01-.06 0-.1.05a2.68 2.68 0 0 1-2.16.91 2.39 2.39 0 0 1-1.78-.65 2.48 2.48 0 0 1-.67-1.86 3 3 0 0 1 0-.58l.68-5.53a.35.35 0 0 1 .1-.22.33.33 0 0 1 .22-.08h2.14a.29.29 0 0 1 .21.08.28.28 0 0 1 .06.22l-.61 4.88v.23a1.14 1.14 0 0 0 .26.79.88.88 0 0 0 .71.29 1.14 1.14 0 0 0 .8-.29 1.47 1.47 0 0 0 .48-.76l.63-5.14a.35.35 0 0 1 .1-.22.33.33 0 0 1 .22-.08h2.14a.33.33 0 0 1 .22.08.24.24 0 0 1 0 .22zm10.15-5.25l-2.14.32h-.09a.23.23 0 0 1-.16-.06.2.2 0 0 1-.06-.14v-.24a.93.93 0 0 0-.36-.62 1.22 1.22 0 0 0-.75-.23 1.27 1.27 0 0 0-1.24.8 4 4 0 0 0-.34 1.29 5.42 5.42 0 0 0 0 .66 3.49 3.49 0 0 0 0 .61 1 1 0 0 0 1.07.87 1.32 1.32 0 0 0 .75-.22 1.55 1.55 0 0 0 .55-.65v-.08a.52.52 0 0 1 .16-.18.3.3 0 0 1 .23-.08l2.06.34c.2 0 .28.15.22.34a2.47 2.47 0 0 1-.15.43 4 4 0 0 1-1.64 1.85 4.77 4.77 0 0 1-2.48.66 3.71 3.71 0 0 1-2.27-.69 3.3 3.3 0 0 1-1.21-1.92 4.49 4.49 0 0 1-.12-1.09 8.14 8.14 0 0 1 .05-.87 5.54 5.54 0 0 1 .55-1.95 4.33 4.33 0 0 1 1.67-1.87 4.68 4.68 0 0 1 2.46-.67 3.89 3.89 0 0 1 2.32.7 2.86 2.86 0 0 1 1.18 1.77 2.77 2.77 0 0 1 .07.56.32.32 0 0 1-.3.32zm7.29-1.28a.33.33 0 0 1-.11.22.32.32 0 0 1-.23.09h-1.36c-.07 0-.11 0-.13.12l-.36 3a1.91 1.91 0 0 0 0 .28c0 .46.22.69.65.69h.53a.24.24 0 0 1 .2.09.26.26 0 0 1 0 .22l-.22 1.78a.31.31 0 0 1-.32.31l-1-.07a3.88 3.88 0 0 1-2-.38 1.51 1.51 0 0 1-.64-1.42v-.44l.51-4.13c0-.05 0-.08-.1-.08H137a.26.26 0 0 1-.21-.09.21.21 0 0 1-.06-.22l.2-1.65a.32.32 0 0 1 .34-.3h.8a.12.12 0 0 0 .09 0 .09.09 0 0 0 0-.08l.24-1.92a.34.34 0 0 1 .34-.31h2a.24.24 0 0 1 .2.09.26.26 0 0 1 .05.22l-.24 1.92c0 .08 0 .12.11.12h1.37a.29.29 0 0 1 .21.08.32.32 0 0 1 .05.22zm3.68 6.53a.38.38 0 0 1-.03.2.28.28 0 0 1-.22.09h-2.14a.26.26 0 0 1-.21-.09.26.26 0 0 1-.06-.22l1-8.18a.32.32 0 0 1 .34-.3h2.14a.29.29 0 0 1 .21.08.32.32 0 0 1 .05.22zm1.06-9.59a1.76 1.76 0 0 1-1.32.53 1.45 1.45 0 0 1-1-.38 1.36 1.36 0 0 1-.39-1 1.78 1.78 0 0 1 1.84-1.84 1.41 1.41 0 0 1 1 .37 1.27 1.27 0 0 1 .39 1 1.87 1.87 0 0 1-.49 1.28zm9.47 5.44a5.32 5.32 0 0 1-.37 1.5 4.64 4.64 0 0 1-1.65 2.26 4.33 4.33 0 0 1-2.65.83 3.53 3.53 0 0 1-2.41-.81 3.43 3.43 0 0 1-1.13-2.21 5.84 5.84 0 0 1 0-.73 7.31 7.31 0 0 1 0-.8 7.66 7.66 0 0 1 .41-1.65 4.64 4.64 0 0 1 1.68-2.1 4.56 4.56 0 0 1 2.59-.76 3.61 3.61 0 0 1 2.36.76 3.31 3.31 0 0 1 1.17 2.06 5 5 0 0 1 .07.92 4.14 4.14 0 0 1-.04.69zm9.59-1.34l-.68 5.49a.32.32 0 0 1-.1.22.29.29 0 0 1-.22.09H163a.26.26 0 0 1-.21-.09.21.21 0 0 1-.06-.22l.61-4.88v-.22a1.17 1.17 0 0 0-.26-.8.91.91 0 0 0-.72-.3 1.18 1.18 0 0 0-.86.36 1.58 1.58 0 0 0-.43 1l-.6 4.88a.32.32 0 0 1-.34.31H158a.23.23 0 0 1-.2-.09.26.26 0 0 1-.06-.22l1-8.18a.35.35 0 0 1 .1-.22.33.33 0 0 1 .22-.08h2.14a.33.33 0 0 1 .22.08.24.24 0 0 1 .05.22l-.06.48v.1c0 .01.06 0 .1-.05a2.78 2.78 0 0 1 3.94-.28 2.59 2.59 0 0 1 .7 1.91 4.67 4.67 0 0 1 .03.45zm9.1-.2a.26.26 0 0 1-.1.14.39.39 0 0 1-.23.06h-2c-.19 0-.29 0-.29-.1v-.1a.56.56 0 0 0-.23-.53 1.2 1.2 0 0 0-.77-.2 1.74 1.74 0 0 0-.81.17.54.54 0 0 0-.31.49.43.43 0 0 0 .3.4 6.49 6.49 0 0 0 1 .26 8.07 8.07 0 0 1 1.3.31 3.37 3.37 0 0 1 1.37.81 1.81 1.81 0 0 1 .48 1.31 2.68 2.68 0 0 1 0 .34 2.74 2.74 0 0 1-1.26 2.05 5.07 5.07 0 0 1-2.82.72 4.53 4.53 0 0 1-2.59-.64 2 2 0 0 1-.94-1.72 2.36 2.36 0 0 1 0-.29v-.08a.38.38 0 0 1 .1-.22.29.29 0 0 1 .22-.09h2c.21 0 .31 0 .29.1v.1a.56.56 0 0 0 .28.54 1.49 1.49 0 0 0 .84.21 1.52 1.52 0 0 0 .79-.18.51.51 0 0 0 .3-.46.39.39 0 0 0-.27-.36 4.81 4.81 0 0 0-.89-.24 7 7 0 0 1-1.61-.49 3.44 3.44 0 0 1-1.14-.79 1.72 1.72 0 0 1-.43-1.23 2.68 2.68 0 0 1 0-.34 2.89 2.89 0 0 1 1.26-2.1 4.53 4.53 0 0 1 2.72-.78 3.93 3.93 0 0 1 2.46.71 2.27 2.27 0 0 1 .9 1.88 3.23 3.23 0 0 1 .11.3z" fill="url(#q)"/><path d="M86.47 22.58h-1.66a.13.13 0 0 0-.1 0 .09.09 0 0 0 0 .08l-.32 2.62c0 .06 0 .09.1.09h1.66a1.73 1.73 0 0 0 1.19-.37 1.57 1.57 0 0 0 .47-1.19 1.15 1.15 0 0 0-.36-.88 1.42 1.42 0 0 0-.98-.35z" fill="url(#r)"/></g></svg>