<svg enable-background="new 0 0 198.4 198.4" viewBox="0 0 198.4 198.4" xmlns="http://www.w3.org/2000/svg"><path d="m5.2 76.3v11.7h4.3c4.1 0 6.6-1.7 6.6-5.4v-.9c0-3.6-2.5-5.4-6.6-5.4zm4.6-3.6c6.3 0 10.4 3 10.4 8.9v1.2c0 5.9-4.1 8.9-10.4 8.9h-4.6v11.9c.1.5-.3 1.1-.8 1.2h-2c-.5.1-1.1-.2-1.2-.8v-30.2c-.1-.5.3-1 .8-1.1zm19.4 20.1h8.1l-4.1-14.4s-4 14.4-4 14.4zm14.9 10.6c.3.8-.1 1.3-1 1.3h-1.6c-.6 0-1.2-.4-1.3-1l-2.1-7.4h-9.8l-2.1 7.4c-.1.6-.7 1-1.3 1h-1.6c-.9 0-1.3-.5-1-1.3l8.4-29.7c.1-.6.7-1 1.3-1h2.4c.6 0 1.2.4 1.3 1zm25.1.1c.1.5-.3 1.1-.8 1.2h-1.9c-.6 0-1.1-.3-1.4-.9l-11-22.3v22c.1.5-.3 1.1-.8 1.2h-2c-.5.1-1.1-.3-1.2-.8v-30.1c-.1-.5.3-1.1.8-1.2h1.9c.6 0 1.1.3 1.4.9l11 22.3v-22c0-.5.4-1 .9-1.1h1.9c.5-.1 1.1.3 1.2.8zm28-20.2c0 .8-.3 1.2-1.2 1.2h-1.7c-.6 0-1.1-.4-1.1-1v-.2c-.4-4.6-2.5-6.9-6.4-6.9-4.2 0-6.6 3.2-6.6 8.4v8.9c0 5.3 2.4 8.4 6.5 8.4 3.9 0 6.1-2.3 6.4-7-.1-.6.4-1.1.9-1.2h1.9c.8 0 1.2.4 1.2 1.2-.4 6.5-4.2 10.6-10.3 10.6-6.6 0-10.5-4.6-10.5-11.9v-9.1c0-7.3 3.8-11.9 10.5-11.9 6.1 0 9.9 4 10.4 10.5m12 9.5h8.1l-4.1-14.4zm14.9 10.6c.3.8-.1 1.3-1 1.3h-1.6c-.6 0-1.2-.4-1.3-1l-2.1-7.4h-9.8l-2.1 7.4c-.1.6-.7 1-1.3 1h-1.6c-.8 0-1.3-.5-1-1.3l8.4-29.7c.1-.6.7-1 1.3-1h2.4c.6 0 1.2.4 1.3 1 0 0 8.4 29.7 8.4 29.7zm17.9-16.2 8.1 16.1c.4.8 0 1.4-.8 1.4h-1.9c-.6 0-1.2-.3-1.4-.9l-6.6-12.8-4.2 6.8v5.6c.1.5-.3 1.1-.8 1.2h-2c-.5.1-1.1-.2-1.2-.8v-29.9c-.1-.5.3-1.1.8-1.2h2c.5-.1 1.1.2 1.2.8v17.9l9.9-17.9c.3-.5.8-.8 1.4-.8h1.8c.9 0 1.2.6.8 1.4zm30.2-12.1c.1.5-.3 1.1-.8 1.2h-11.2v10.1h10.2c.5-.1 1.1.2 1.2.8v1.7c.1.5-.3 1.1-.8 1.2h-10.6v11.1h10.9c.5-.1 1.1.3 1.1.8v1.6c.1.5-.3 1.1-.8 1.2h-14c-.5.1-1.1-.2-1.2-.8v-30.1c-.1-.5.3-1.1.8-1.2h14c.5-.1 1.1.3 1.2.8zm24 5.2c.1.8-.3 1.2-1.1 1.2h-1.8c-.7 0-1.2-.4-1.3-1.1-.3-2.4-2.4-4.2-4.8-4-3.3 0-5.1 2-5.1 5.1s1.7 4.3 5.9 5.8c3.1 1.2 4.9 1.9 6.7 3.4s2.7 3.7 2.5 6.1c0 5.9-4 9-9.8 9-5.5 0-9.4-3-10.1-8.2-.1-.8.3-1.2 1.1-1.2h1.7c.7 0 1.2.4 1.3 1.1.5 2.9 3 4.9 5.9 4.7 3.4 0 5.7-1.5 5.7-5.1.1-1.4-.4-2.7-1.5-3.6-1.6-1-3.3-1.8-5.1-2.4-2.2-.6-4.2-1.6-5.9-3-1.8-1.4-2.6-3.4-2.6-6.2-.1-2.4.8-4.7 2.5-6.4 1.8-1.7 4.2-2.7 6.7-2.6 5.1-.1 8.5 2.7 9.1 7.4m-142.5 39.6c.1 0 .1 0 0 0zm-1.2-3.9-.6 1.9-.6 1.9h2.4s-1.2-3.8-1.2-3.8zm1.8 5.8c0-.1-.1-.2-.1-.2h-3.1c-.1 0-.2 0-.3.1-.1.2-.2.3-.2.5l-.5 1.3v.2c0 .2.1.3.4.3h.9c.7 0 1 .3 1 .8s-.4.8-1.1.7h-.4l-.8-.1h-1.5l-.7.1h-.7c-.6 0-.9-.3-.9-.8s.3-.8.9-.8h.3c.2 0 .3-.1.4-.2.1-.2.2-.5.3-.7l3-8.5c.2-.6.8-.9 1.4-.8.6 0 1.1.3 1.3.9l2.9 8.4c.1.3.3.6.5.9.1.2.3.2.5.2h.6c.6 0 .9.3.9.8s-.3.8-.9.8h-.5l-.9-.1h-1.4l-1.2.1h-.5c-.6 0-.9-.3-.9-.8s.3-.8 1-.8h.9c.2 0 .2-.1.2-.2v-.1l-.1-.1v-.2zm8.7-5c.3 0 .7.2.7.5.3-.3.6-.5 1-.6s.8-.2 1.2-.2c.5 0 1 .1 1.4.2.4.2.7.5 1 .8.3-.3.7-.6 1.2-.8s1-.3 1.5-.3c.6 0 1.3.1 1.9.4s1 .8 1.3 1.4c.1.2.2.5.2.7 0 .3.1.7.1 1v3.6c0 .3 0 .4.1.4h.7c.6 0 .9.2.9.7s-.3.7-.9.8h-3.3c-.7 0-1-.3-1-.8s.3-.8.8-.7h.6s.1 0 .1-.1c.1-.4.1-.9.1-1.3v-2c0-.5 0-1-.2-1.5-.1-.3-.3-.6-.6-.7-.3-.2-.6-.3-1-.3-.6-.1-1.1.2-1.4.7-.2.7-.3 1.4-.2 2.1v2.4c0 .2 0 .5.1.7 0 .1 0 .2.1.2h.6c.2 0 .4.1.6.2s.2.3.2.5c0 .5-.4.8-1.1.8h-3.1c-.7 0-1-.3-1-.8s.3-.8.8-.7h.8c.1 0 .1-.2.1-.6v-1.5-1.6c0-.4 0-.7-.1-1.1 0-.3-.1-.5-.2-.7s-.3-.3-.5-.4-.5-.1-.7-.1c-.6 0-1.1.2-1.5.7-.4.6-.5 1.4-.5 2.1v2.9c0 .2 0 .3.1.3h.6c.6 0 .9.3.9.8s-.3.8-1 .7h-3.2c-.7 0-1-.3-1-.8s.3-.8 1-.8h.2l.5.1c.1-.1.1-.2.2-.6v-4.5c0-.2 0-.4-.1-.6 0-.1 0-.2-.1-.2h-.7c-.6 0-.9-.3-.9-.8s.3-.8 1-.8h1.3zm17.9-.2c.5 0 1.1.1 1.6.4.1-.3.4-.5.7-.5.5 0 .8.2.8.7v.5c0 .1 0 .2-.1.3v.3c0 .2 0 .3.1.5 0 .1 0 .2.1.3v.3c0 .6-.3.8-.8.8s-.8-.2-.8-.7v-.5c0-.3-.2-.5-.5-.7s-.7-.3-1.1-.3-.7.1-1 .3-.4.5-.4.8.1.5.3.6c.2.2.5.3.8.3l.5.1.5.1c2 .3 3 1.1 3 2.4 0 .8-.4 1.5-1 2-.7.5-1.6.8-2.5.8-.7 0-1.4-.2-2-.6-.1.4-.3.6-.8.6-.4.1-.8-.2-.9-.6v-.3c0-.1 0-.3.1-.4v-.9-.4c0-.1 0-.3-.1-.4 0-.1-.1-.3-.1-.5 0-.4.2-.7.6-.8h.2c.4 0 .6.1.7.3.1.3.1.6.1.9 0 .4.3.7.6.9.5.3 1 .4 1.6.4.3 0 .7-.1 1-.3s.4-.5.4-.8c0-.6-.5-.9-1.5-1-.5-.1-1-.1-1.6-.3-.4-.1-.7-.2-1.1-.4-.3-.2-.5-.4-.7-.7s-.3-.7-.2-1.1c0-.4.1-.8.2-1.1.2-.3.4-.6.7-.8s.6-.4 1-.5c.7.1 1.1 0 1.6 0m10.5 5.3c0-.4.3-.8.7-.9h.2c.6 0 .9.3.9 1 0 .5 0 1-.1 1.5-.1.4-.2.7-.4 1-.6.7-1.4 1.1-2.3 1-.4 0-.9-.1-1.3-.2-.3-.1-.6-.4-.8-.7-.4-.6-.6-1.4-.5-2.1v-4h-.6c-.2 0-.5-.1-.7-.2s-.3-.3-.3-.6c0-.2.1-.4.3-.5.2-.2.4-.2.6-.2h.7v-1.7c0-.6.3-.8.9-.8s.9.3.9.8v1.7h1.8c.6 0 .9.3.9.8s-.3.8-1 .8h-1.9l.1.1v3.9c0 1 .3 1.4.9 1.4s.9-.4.9-1.1c0 0 .1-1 .1-1zm9.9-2c0-.5-.2-1-.6-1.3-.4-.4-.8-.6-1.3-.6-.6 0-1.1.2-1.5.6-.4.3-.7.8-.7 1.3zm1.9.4v.6c0 .1 0 .2-.1.3s-.2.1-.2.1h-5.7c0 .7.2 1.3.7 1.8.4.5 1 .7 1.6.7.4 0 .8-.1 1.2-.3.3-.2.6-.5.7-.9l.2-.5c.1-.2.2-.3.3-.4s.3-.2.5-.2c.6 0 .9.3.9.8 0 .8-.5 1.6-1.2 2-.8.6-1.7.9-2.7.9-1.1.1-2.2-.4-3-1.2-.7-.9-1.1-2-1-3.2 0-1.2.4-2.4 1.1-3.3.8-.9 1.9-1.3 3-1.3.5 0 1 .1 1.5.3s.9.5 1.2.8c.7 1 1 2 1 3zm3.7-3.4c.3 0 .6.2.7.5.5-.5 1.3-.8 2-.7.4 0 .8.1 1.1.2s.6.3.9.5c.2.2.4.5.6.8.1.3.2.7.2 1 0 .5-.1 1-.4 1.3s-.7.5-1.1.5c-.3 0-.6-.1-.8-.3s-.3-.4-.3-.7c0-.5.4-.9.9-.9v-.1c0-.3-.1-.5-.3-.6-.2-.2-.5-.3-.8-.3-.6 0-1.2.4-1.4 1-.2.7-.3 1.3-.2 2v2.3c.1.5.1.8.2.8h.3c.1 0 .3-.1.4-.1.4-.1.7.2.8.6v.2c0 .5-.3.8-.9.8h-2.5l-.9.1c-.6 0-.9-.3-.9-.8s.3-.8.9-.7h.7c.1 0 .2-.2.2-.5v-1.1l-.1-3.7c0-.4-.1-.7-.2-.7h-.7c-.4.1-.7-.2-.8-.6v-.2c0-.5.3-.8.9-.8h1.7m12.8 5.8v-.6-1.6c0-.2 0-.4-.1-.5-.1-.4-.3-.8-.6-1.1-.4-.3-.8-.5-1.3-.5-.6 0-1.2.3-1.6.8-.4.6-.6 1.4-.5 2.1 0 .8.2 1.6.6 2.2.7.9 2 1.1 2.9.4.3-.3.5-.7.6-1.2m-2.1-5.7c.4 0 .8.1 1.2.2s.7.3 1 .5v-.9-.5-.3c0-.1-.1-.2-.1-.3h-.8c-.6 0-.9-.2-.9-.7s.4-.7 1.1-.8h1.9c.5 0 .7.3.7.9v8.7c0 .1 0 .1.1.1h.7c.6 0 .9.2.9.7 0 .6-.4 1-1 1h-1.8c-.3 0-.6-.4-.7-.7-.6.5-1.4.8-2.2.7-1.1.1-2.2-.4-2.9-1.2-.8-.9-1.2-2.1-1.1-3.3 0-.6.1-1.2.3-1.8.2-.5.4-1 .8-1.4.7-.6 1.8-1.1 2.8-.9m12.8 4.8-.2.1-.2.1c-.5.1-1 .2-1.6.2-1.1.1-1.7.5-1.7 1.1 0 .3.1.6.4.8s.7.3 1.1.3c.6 0 1.2-.1 1.6-.5s.6-.9.6-1.4zm2.2 4.1c-.7.1-1.4-.3-1.8-.9-.7.6-1.7 1-2.7.9-.9 0-1.7-.2-2.5-.7-.6-.4-.9-1.1-.9-1.9 0-.4.1-.9.4-1.3s.6-.7 1-.9c.3-.1.6-.3.9-.3.5-.1.9-.2 1.4-.2.6 0 1.2-.1 1.8-.4.2-.2.3-.5.3-.8s-.1-.7-.4-.9-.7-.3-1.2-.3-.9.1-1.3.4c-.1 0-.1.1-.1.1.2.2.4.4.4.7s-.1.5-.3.7-.5.3-.8.3c-.4 0-.7-.1-1-.3-.2-.2-.4-.5-.4-.9 0-.7.4-1.4 1.1-1.7.7-.5 1.6-.7 2.5-.7 2.3 0 3.5 1 3.5 3v4.1c.1.2.2.4.3.4s.2-.3.3-.8v-.8c0-.5.3-.7.8-.7s.8.3.9 1v1c0 1.2-.7 1.8-2.1 1.8 0 0-.1.1-.1.1zm5.9-8.8c.3 0 .7.2.7.5.3-.3.6-.5 1-.6s.8-.2 1.2-.2c.5 0 1 .1 1.4.2.4.2.7.5 1 .8.3-.3.7-.6 1.2-.8s1-.3 1.5-.3c.6 0 1.3.1 1.9.4s1 .8 1.3 1.4c.1.2.2.5.2.7 0 .3.1.7.1 1v3.6c0 .3 0 .4.1.4h.7c.6 0 .9.2.9.7s-.3.7-.9.8h-2.5l-.5.1h-.4c-.7 0-1-.3-1-.9s.3-.8.8-.7h.6s.1 0 .1-.1c.1-.5.1-.9.1-1.4v-2c0-.5 0-1-.1-1.5-.1-.3-.3-.6-.6-.7-.3-.2-.6-.3-1-.3-.6-.1-1.1.2-1.4.7-.3.7-.4 1.4-.3 2.1v2.4c0 .2 0 .5.1.7 0 .1 0 .2.1.2h.6c.2 0 .4.1.6.2s.2.3.2.5c0 .5-.4.8-1.1.8h-3.1c-.7 0-1-.3-1-.8s.3-.8.8-.7h.8c.1 0 .1-.2.1-.6v-1.5-1.6c0-.4 0-.7-.1-1.1 0-.3-.1-.5-.3-.7-.1-.2-.3-.3-.5-.4s-.5-.1-.7-.1c-.6 0-1.1.2-1.5.7-.4.6-.5 1.4-.4 2.1v2.9c0 .2 0 .3.1.3h.6c.6 0 .9.3.9.8s-.3.8-1 .8h-.8l-.5-.1h-2c-.7 0-1-.3-1-.8s.3-.8.9-.7h.2l.5.1c.1-.1.1-.2.2-.6v-4.5c0-.2 0-.4-.1-.6 0-.1-.1-.2-.1-.2h-.8c-.6 0-.9-.3-.9-.8s.3-.8 1-.8h1.2z"/></svg>