<?xml version="1.0" standalone="no"?>
<!DOCTYPE svg PUBLIC "-//W3C//DTD SVG 20010904//EN"
 "http://www.w3.org/TR/2001/REC-SVG-20010904/DTD/svg10.dtd">
<svg version="1.0" xmlns="http://www.w3.org/2000/svg"
 width="900.000000pt" height="900.000000pt" viewBox="0 0 900.000000 900.000000"
 preserveAspectRatio="xMidYMid meet">
<metadata>
Created by potrace 1.11, written by Peter Selinger 2001-2013
</metadata>
<g transform="translate(0.000000,900.000000) scale(0.100000,-0.100000)"
fill="#000000" stroke="none">
<path d="M1200 6812 c-153 -9 -328 -85 -443 -192 -107 -100 -199 -254 -232
-385 -4 -16 -9 -39 -12 -50 -2 -11 -6 -63 -8 -115 -4 -112 12 -203 53 -292 29
-64 2122 -3212 2196 -3303 165 -203 365 -294 619 -282 133 6 204 23 312 76 88
44 155 97 227 180 78 89 2197 3274 2226 3344 34 84 50 186 46 284 -5 101 -16
152 -55 255 -82 212 -245 368 -469 449 -57 21 -83 24 -215 24 -131 0 -159 -3
-219 -23 -143 -48 -255 -118 -354 -222 -32 -33 -348 -498 -784 -1150 -401
-602 -734 -1099 -738 -1104 -5 -4 -333 479 -730 1075 -397 596 -738 1103 -756
1126 -139 171 -339 283 -533 299 -36 3 -70 6 -76 7 -5 1 -30 1 -55 -1z"/>
<path d="M6673 6719 c-157 -15 -323 -97 -445 -221 -27 -26 -48 -50 -48 -52 0
-2 15 -30 33 -63 68 -120 92 -211 92 -353 0 -63 -3 -131 -7 -150 -14 -69 -56
-180 -88 -232 l-33 -53 68 -63 c81 -75 176 -134 277 -170 67 -25 85 -27 213
-26 129 0 146 3 210 28 63 25 153 69 180 88 42 30 126 110 156 147 156 198
193 459 98 688 -30 71 -97 171 -152 226 -86 85 -247 173 -352 193 -82 15 -140
18 -202 13z"/>
<path d="M7685 6705 c-38 -7 -90 -20 -115 -29 -63 -23 -170 -83 -201 -113
l-26 -24 45 -67 c154 -229 185 -500 85 -742 -30 -72 -74 -149 -111 -195 l-24
-29 37 -33 c54 -46 183 -111 267 -133 90 -23 254 -21 338 5 371 115 585 466
504 826 -35 158 -121 293 -259 404 -143 115 -351 165 -540 130z"/>
<path d="M6698 5200 c-126 -23 -225 -64 -316 -131 l-52 -40 39 -52 c53 -71 96
-161 123 -254 17 -62 22 -104 22 -208 0 -221 -25 -282 -242 -600 -83 -121
-248 -364 -367 -540 -119 -176 -267 -394 -328 -485 -62 -91 -165 -243 -230
-339 -65 -95 -116 -180 -113 -187 8 -21 133 -98 206 -127 98 -38 178 -51 288
-44 253 15 427 131 614 412 48 72 171 254 273 405 103 151 243 358 311 460 69
102 211 311 315 465 105 154 195 291 201 305 70 172 64 397 -15 570 -84 184
-258 329 -449 375 -79 19 -218 27 -280 15z"/>
<path d="M5902 5177 c-11 -14 -501 -747 -1260 -1884 -309 -463 -562 -846 -562
-851 0 -5 25 -31 55 -58 162 -143 313 -200 505 -192 127 6 230 38 337 104 118
73 173 138 378 442 105 156 233 345 285 422 352 515 698 1028 714 1058 44 84
58 145 62 262 2 95 -1 130 -20 200 -53 199 -169 349 -346 448 -80 45 -136 64
-148 49z"/>
</g>
</svg>
