<svg enable-background="new 0 0 218.7 38.3" viewBox="0 0 218.7 38.3" xmlns="http://www.w3.org/2000/svg" xmlns:xlink="http://www.w3.org/1999/xlink"><linearGradient id="a"><stop offset="0" stop-color="#4db86b"/><stop offset=".19" stop-color="#4cba7e"/><stop offset=".57" stop-color="#49bfb1"/><stop offset="1" stop-color="#45c6ef"/></linearGradient><linearGradient id="b" gradientTransform="matrix(1 0 0 -1 0 37.7323)" gradientUnits="userSpaceOnUse" x1="24.4886" x2="60.1486" xlink:href="#a" y1="52.8198" y2="32.2298"/><linearGradient id="c" gradientTransform="matrix(1 0 0 -1 0 37.7323)" gradientUnits="userSpaceOnUse" x1="14.9654" x2="49.6554" xlink:href="#a" y1="31.1296" y2="11.0996"/><linearGradient id="d" gradientTransform="matrix(1 0 0 -1 0 37.7323)" gradientUnits="userSpaceOnUse" x1="22.1306" x2="58.0306" xlink:href="#a" y1="48.8933" y2="28.1633"/><linearGradient id="e" gradientTransform="matrix(1 0 0 -1 0 37.7323)" gradientUnits="userSpaceOnUse" x1="14.0099" x2="47.4199" xlink:href="#a" y1="26.4621" y2="7.1721"/><linearGradient id="f" gradientTransform="matrix(1 0 0 -1 0 37.7323)" gradientUnits="userSpaceOnUse" x1="13.6944" x2="47.4544" xlink:href="#a" y1="29.2599" y2="9.7699"/><linearGradient id="g" gradientUnits="userSpaceOnUse" x1="199.8757" x2="83.7159" xlink:href="#a" y1="56.8677" y2="-10.1972"/><path d="m65.5 2.3c.9 1.1 1.3 2.5 1.2 3.9-.1 1.5-.8 3-2 4-1.1 1-2.4 1.5-3.9 1.6h-.1c-1.4 0-2.8-.6-3.8-1.5 1-1.2 1.5-2.6 1.6-4.1.1-1.7-.5-3.4-1.6-4.7l.1-.1c.5-.4 1-.8 1.6-1 1.1-.4 2.3-.5 3.4-.3h.1c1.4.3 2.6 1.1 3.4 2.2z" fill="url(#b)"/><path d="m58.4 17.5c.4 1.3.3 2.7-.3 4l-9.7 14.4-.2.2c-.4.5-.8.9-1.3 1.2-.8.6-1.8.9-2.8 1h-.3c-1.4 0-2.7-.5-3.8-1.4l10-14.7c.6-1.1.8-2.4.7-3.7s-.6-2.5-1.5-3.5c1-.9 2.2-1.4 3.5-1.5 2.7-.2 5.2 1.6 5.9 4.2z" fill="url(#c)"/><path d="m51.8 0c3.2.1 5.7 2.8 5.7 6 0 1.6-.7 3-1.8 4.1-1.1 1-2.5 1.6-3.9 1.7h-.2c-1.8-.1-3.5-.9-4.6-2.3.6-.9 1-1.9 1.1-3 .1-1.5-.4-2.9-1.3-4 1.1-1.5 2.9-2.5 4.8-2.5z" fill="url(#d)"/><path d="m48.9 16.4c-.6-1.2-1.7-2.1-2.9-2.6-.4-.2-.9-.5-1.3-.6l-15.1 22.6c.6.7 1.3 1.2 2.1 1.6.8.5 1.8.8 2.8.9h.2c1.7 0 3.4-.8 4.5-2.2l5.8-8.6 3.9-5.7.2-.4c.7-1.6.6-3.4-.2-5z" fill="url(#e)"/><path d="m46.8 4.9c.4 1.5.2 3.1-.7 4.4l-17.2 25.9c-.1.2-.3.4-.4.5-1 1.5-2.7 2.4-4.5 2.5h-.5c-1.9 0-3.7-.9-4.9-2.5-.1-.2-.3-.4-.4-.5-3.3-4.9-6.6-9.8-9.9-14.8l-7.4-11.1c-.9-1.3-1.1-2.9-.7-4.4.4-1.7 1.5-3.2 2.9-4.1 1.4-.8 3.1-1 4.7-.6 1.6.5 2.9 1.5 3.8 2.8l11.9 17.8 11.9-17.7c.9-1.4 2.2-2.4 3.8-2.8 1.6-.5 3.3-.2 4.7.6 1.5.8 2.5 2.3 2.9 4z" fill="url(#f)"/><g fill="#fff"><path d="m94.9 13.9c.6.3 1.1.8 1.4 1.3.3.6.5 1.3.5 2s-.2 1.4-.5 2-.8 1-1.4 1.3c-.7.3-1.4.5-2.1.5h-2c-.1 0-.1 0-.1.1v4c0 .1 0 .2-.1.2-.1.1-.1.1-.2.1h-2.2c-.1 0-.2 0-.2-.1-.1-.1-.1-.1-.1-.2v-11.3c0-.2.1-.3.2-.3h.1 4.8c.6-.1 1.3.1 1.9.4zm-1.4 4.4c.3-.3.4-.6.4-1s-.1-.8-.4-1c-.3-.3-.7-.4-1.1-.4h-1.7c-.1 0-.1 0-.1.1v2.6c0 .1 0 .1.1.1h1.7c.4.1.8-.1 1.1-.4z"/><path d="m105 25.1-2-4.4c0-.1-.1-.1-.1-.1h-1.1c-.1 0-.1 0-.1.1v4.3c0 .1 0 .2-.1.2-.1.1-.1.1-.2.1h-2.2c-.2 0-.3-.1-.3-.3v-11.2c0-.1 0-.2.1-.2.1-.1.1-.1.2-.1h4.9c.7 0 1.4.1 2 .5.6.3 1 .7 1.3 1.3s.5 1.3.5 1.9c0 .7-.2 1.4-.6 2s-.9 1-1.5 1.2c-.1 0-.1.1-.1.2l2.2 4.5v.1c0 .1-.1.2-.3.2h-2.3c-.1-.1-.3-.1-.3-.3zm-3.3-9.1v2.3c0 .1 0 .1.1.1h1.9c.4 0 .7-.1 1-.4.3-.2.4-.6.4-.9 0-.4-.1-.7-.4-1-.3-.2-.6-.4-1-.4h-1.9c-.1.2-.1.2-.1.3z"/><path d="m112.2 25c-.7-.3-1.2-.9-1.6-1.5-.4-.7-.6-1.5-.6-2.3v-3.4c0-.8.2-1.6.6-2.3s.9-1.2 1.6-1.5c.8-.4 1.6-.6 2.4-.6s1.7.2 2.4.6c.7.3 1.2.9 1.6 1.5.4.7.6 1.5.6 2.3v3.4c0 .8-.2 1.6-.6 2.3s-1 1.2-1.6 1.5c-.8.4-1.6.6-2.4.6-.9 0-1.7-.2-2.4-.6zm3.7-2.4c.3-.4.5-.9.5-1.4v-3.5c0-.5-.2-1-.5-1.4s-.8-.5-1.3-.5-1 .2-1.3.5c-.3.4-.5.9-.5 1.4v3.5c0 .5.2 1 .5 1.4s.8.5 1.3.5c.5.1.9-.1 1.3-.5z"/><path d="m121.6 25.3c-.1-.1-.1-.1-.1-.2v-11.3c0-.1 0-.2.1-.2.1-.1.1-.1.2-.1h4.2c.8 0 1.6.1 2.4.5.6.3 1.2.7 1.6 1.3s.6 1.3.6 1.9v4.5c0 .7-.2 1.4-.6 2s-.9 1-1.6 1.3-1.5.5-2.3.5h-4.2c-.1-.1-.2-.2-.3-.2zm2.9-2.3h1.7c.4 0 .8-.2 1.1-.5.3-.4.5-.8.4-1.3v-3.5c0-.5-.1-.9-.4-1.3-.3-.3-.7-.5-1.1-.5h-1.7c-.1 0-.1 0-.1.1v6.8c0 .1 0 .2.1.2z"/><path d="m135 25c-.7-.3-1.2-.8-1.6-1.5s-.6-1.4-.6-2.2v-7.6c0-.1 0-.2.1-.2.1-.1.1-.1.2-.1h2.2c.1 0 .2 0 .2.1.1.1.1.1.1.2v7.5c0 .5.1.9.5 1.3.7.6 1.8.6 2.5 0 .3-.4.5-.8.5-1.3v-7.5c0-.1 0-.2.1-.2.1-.1.1-.1.2-.1h2.2c.1 0 .2 0 .2.1.1.1.1.1.1.2v7.5c0 .8-.2 1.5-.6 2.2-.4.6-.9 1.2-1.6 1.5-1.4.8-3.2.8-4.7.1z"/><path d="m146.4 25c-.7-.3-1.2-.9-1.6-1.5-.4-.7-.6-1.5-.6-2.2v-3.7c0-.8.2-1.5.6-2.2.4-.6.9-1.2 1.6-1.5.7-.4 1.6-.5 2.4-.5s1.6.2 2.4.5c.7.3 1.2.8 1.6 1.4s.6 1.4.6 2.1c0 .1-.1.2-.3.2l-2.2.2h-.1c-.2 0-.2 0-.2-.1v-.1c.1-.9-.6-1.7-1.5-1.7-.1 0-.2 0-.2 0-.9-.1-1.7.6-1.8 1.5v.2 3.9c0 .5.1.9.5 1.3.7.6 1.8.6 2.5 0 .3-.3.5-.8.5-1.3 0-.1 0-.1.1-.2h.2l2.2.1c.2 0 .3 0 .3.1v.1c0 .7-.2 1.5-.6 2.1s-.9 1.1-1.6 1.4c-.7.4-1.6.5-2.4.5-.9-.1-1.7-.2-2.4-.6z"/><path d="m164.3 13.5c.1.1.1.1.1.2v1.8c0 .1 0 .2-.1.2-.1.1-.1.1-.2.1h-2.8c-.1 0-.1 0-.1.1v9c0 .1 0 .2-.1.2-.1.1-.1.1-.2.1h-2.2c-.1 0-.2 0-.2-.1-.1-.1-.1-.1-.1-.2v-9c0-.1 0-.1-.1-.1h-2.7c-.1 0-.2 0-.2-.1-.1-.1-.1-.1-.1-.2v-1.8c0-.1 0-.2.1-.2.1-.1.1-.1.2-.1h8.6c0 .1.1.1.1.1z"/><path d="m166.6 25.3c-.1-.1-.1-.1-.1-.2v-11.3c0-.1 0-.2.1-.2.1-.1.1-.1.2-.1h2.2c.1 0 .2 0 .2.1.1.1.1.1.1.2v11.2c0 .2-.1.3-.3.3h-2.2c-.1.1-.2 0-.2 0z"/><path d="m173.9 25c-.7-.3-1.2-.9-1.6-1.5-.4-.7-.6-1.5-.6-2.3v-3.4c0-.8.2-1.6.6-2.3s.9-1.2 1.6-1.5c1.5-.7 3.3-.7 4.9 0 .7.3 1.3.9 1.6 1.5.4.7.6 1.5.6 2.3v3.4c0 .8-.2 1.6-.6 2.3s-1 1.2-1.6 1.5c-1.6.7-3.4.7-4.9 0zm3.7-2.4c.3-.4.5-.9.5-1.4v-3.5c0-.5-.2-1-.5-1.4-.7-.7-1.9-.7-2.6 0-.3.4-.5.9-.5 1.4v3.5c0 .5.2 1 .5 1.4.7.7 1.9.7 2.6 0z"/><path d="m183.4 25.3c-.1-.1-.1-.1-.1-.2v-11.3c0-.1 0-.2.1-.2.1-.1.1-.1.2-.1h2.1c.1 0 .3.1.4.2l3.7 6.3s0 .1.1 0c0 0 .1-.1.1-.1v-6.2c0-.1 0-.2.1-.2.1-.1.1-.1.2-.1h2.2c.1 0 .2 0 .2.1.1.1.1.1.1.2v11.3c0 .1 0 .2-.1.2-.1.1-.1.1-.2.1h-2.1c-.1 0-.3-.1-.4-.2l-3.7-6.4c0-.1-.1-.1-.1-.1s-.1 0-.1.1v6.3c0 .1 0 .2-.1.2-.1.1-.1.1-.2.1h-2.2c-.1.1-.2 0-.2 0z"/><path d="m197 25c-1.3-.5-2.2-1.8-2.1-3.2v-.2c0-.1 0-.2.1-.2.1-.1.1-.1.2-.1h2.1c.1 0 .2 0 .2.1 0 0 .1.1.1.1v.2c0 .4.2.8.6 1 .4.3.9.4 1.4.4.4 0 .8-.1 1.1-.3.2-.2.3-.5.4-.8 0-.3-.1-.6-.4-.7-.5-.3-1-.5-1.5-.6l-.4-.1c-.7-.2-1.3-.5-1.9-.8-.5-.3-1-.7-1.4-1.1-.4-.5-.6-1.2-.6-1.8 0-.7.2-1.3.6-1.8s.9-1 1.6-1.2c.7-.3 1.5-.4 2.2-.4.8 0 1.6.2 2.4.5.7.3 1.2.8 1.6 1.3.4.6.6 1.3.6 2v.1c0 .2-.1.3-.3.3h-2.2c-.1 0-.1 0-.2 0s-.1-.1-.1-.1v-.1c0-.4-.2-.8-.5-1-.4-.3-.9-.5-1.4-.5-.4 0-.7.1-1 .3-.2.2-.4.5-.4.8 0 .2.1.5.2.6.2.2.5.4.7.5.3.1.9.3 1.5.6s1.4.5 1.9.7.9.6 1.2 1c.4.5.6 1.2.6 1.8 0 .7-.2 1.3-.6 1.9s-1 1-1.6 1.2c-1.5.3-3.2.3-4.7-.4z"/></g><path d="m199.7.1h-115.2c-.2 0-.5-.1-.8-.1-2.3 0-4.3 1.3-5.3 3.3l-17.3 25.7s0-.1.1-.1c-.7 1-1.1 2.1-1.1 3.4 0 3.2 2.6 5.8 5.8 5.8h133.8c10.5 0 19-8.5 19-19 0-10.4-8.5-18.9-19-19z" fill="url(#g)"/><path d="m96.8 14c.6.3 1.1.8 1.4 1.3.3.6.5 1.2.5 2 0 .7-.2 1.4-.5 2s-.8 1-1.4 1.3-1.3.5-2.1.5h-2c-.1 0-.1 0-.1.1v4c0 .1 0 .2-.1.2-.1.1-.1.1-.2.1h-2.2c-.1 0-.2 0-.2-.1-.1-.1-.1-.1-.1-.2v-11.3c0-.1 0-.2.1-.2.1-.1.1-.1.2-.1h4.8c.6 0 1.3.1 1.9.4zm-1.4 4.4c.3-.3.4-.6.4-1s-.1-.8-.4-1c-.3-.3-.7-.4-1.1-.4h-1.7c-.1 0-.1 0-.1.1v2.6c0 .1 0 .1.1.1h1.7c.4 0 .8-.1 1.1-.4z" fill="#fff"/><path d="m106.8 25.2-2-4.4c0-.1-.1-.1-.1-.1h-1.1c-.1 0-.1 0-.1.1v4.3c0 .1 0 .2-.1.2s-.1.1-.2.1h-2.2c-.1 0-.2 0-.2-.1s-.1-.1-.1-.2v-11.2c0-.1 0-.2.1-.2s.1-.1.2-.1h4.9c.7 0 1.4.2 2 .5s1 .7 1.3 1.3.5 1.2.5 1.9-.2 1.4-.6 2-.9 1-1.5 1.2c-.1 0-.1.1-.1.2l2.2 4.5v.1c0 .1-.1.2-.3.2h-2.3c-.1 0-.2-.1-.3-.3zm-3.3-9.1v2.3c0 .1 0 .1.1.1h1.9c.4 0 .8-.1 1-.3s.4-.5.4-.9-.1-.7-.4-1-.6-.4-1-.4h-1.9c0 .1-.1.1-.1.2z" fill="#fff"/><path d="m114 25.1c-.7-.4-1.2-.9-1.6-1.6s-.6-1.4-.6-2.3v-3.4c0-.9.2-1.6.6-2.3s.9-1.2 1.6-1.5 1.5-.6 2.4-.6 1.7.2 2.4.6 1.2.9 1.6 1.5c.4.7.6 1.4.6 2.3v3.4c0 .9-.2 1.7-.6 2.3-.4.7-.9 1.2-1.6 1.6s-1.5.6-2.4.6c-.9-.1-1.7-.2-2.4-.6zm3.7-2.4c.3-.4.5-.8.5-1.4v-3.5c0-.6-.2-1-.5-1.4s-.8-.5-1.3-.5-1 .2-1.3.5c-.3.4-.5.8-.5 1.4v3.5c0 .6.2 1.1.5 1.4.3.4.8.5 1.3.5.6 0 1-.2 1.3-.5z" fill="#fff"/><path d="m123.5 25.4c-.1-.1-.1-.1-.1-.2v-11.3c0-.1 0-.2.1-.2s.1-.1.2-.1h4.2c.9 0 1.7.2 2.3.5.7.3 1.2.7 1.6 1.3s.6 1.2.6 2v4.5c0 .7-.2 1.4-.6 2s-.9 1-1.6 1.3-1.5.5-2.3.5h-4.2c-.1-.2-.2-.3-.2-.3zm2.8-2.4h1.7c.5 0 .8-.2 1.1-.5s.4-.8.4-1.3v-3.5c0-.5-.1-1-.4-1.3s-.7-.5-1.1-.5h-1.7c-.1 0-.1 0-.1.1v6.8c0 .2.1.2.1.2z" fill="#fff"/><path d="m136.9 25.1c-.7-.3-1.2-.8-1.6-1.5-.4-.6-.6-1.4-.6-2.2v-7.5c0-.1 0-.2.1-.2s.1-.1.2-.1h2.2c.1 0 .2 0 .2.1s.1.1.1.2v7.5c0 .5.2 1 .5 1.3s.7.5 1.2.5.9-.2 1.2-.5.5-.8.5-1.3v-7.5c0-.1 0-.2.1-.2s.1-.1.2-.1h2.2c.1 0 .2 0 .2.1s.1.1.1.2v7.5c0 .8-.2 1.6-.6 2.2s-.9 1.1-1.6 1.5c-.7.3-1.5.5-2.4.5s-1.5-.2-2.2-.5z" fill="#fff"/><path d="m148.2 25.1c-.7-.4-1.2-.9-1.6-1.5s-.6-1.4-.6-2.2v-3.7c0-.8.2-1.6.6-2.2s.9-1.1 1.6-1.5 1.5-.5 2.4-.5 1.7.2 2.4.5 1.2.8 1.6 1.4.6 1.3.6 2.1c0 .1-.1.2-.3.2l-2.2.2h-.1c-.2 0-.2 0-.2-.1v-.1c0-.5-.2-1-.5-1.3s-.7-.5-1.3-.5-.9.2-1.3.5c-.3.3-.5.7-.5 1.3v3.9c0 .5.2.9.5 1.3.3.3.7.5 1.3.5s.9-.2 1.3-.5.5-.7.5-1.3c0-.1 0-.1.1-.2s.1 0 .2 0l2.2.1c.2 0 .3.1.3.1v.1c0 .8-.2 1.5-.6 2.1s-.9 1.1-1.6 1.4-1.5.5-2.4.5c-.9-.1-1.7-.3-2.4-.6z" fill="#fff"/><path d="m166.2 13.6c.1.1.1.1.1.2v1.8c0 .1 0 .2-.1.2s-.2.2-.2.2h-2.8c-.1 0-.1 0-.1.1v9c0 .1 0 .2-.1.2s-.1.1-.2.1h-2.2c-.1 0-.2 0-.2-.1s-.1-.1-.1-.2v-9c0-.1 0-.1-.1-.1h-2.7c-.1 0-.2 0-.2-.1s-.1-.1-.1-.2v-1.8c0-.1 0-.2.1-.2s.1-.1.2-.1h8.6c-.1 0 0 0 .1 0z" fill="#fff"/><path d="m168.4 25.4c-.1-.1-.1-.1-.1-.2v-11.3c0-.1 0-.2.1-.2s.1-.1.2-.1h2.2c.1 0 .2 0 .2.1.1.1.1.1.1.2v11.3c0 .1 0 .2-.1.2-.1.1-.1.1-.2.1h-2.2s-.1-.1-.2-.1z" fill="#fff"/><path d="m175.7 25.1c-.7-.4-1.2-.9-1.6-1.6s-.6-1.4-.6-2.3v-3.4c0-.9.2-1.6.6-2.3s.9-1.2 1.6-1.5 1.5-.6 2.4-.6 1.7.2 2.4.6 1.2.9 1.6 1.5c.4.7.6 1.4.6 2.3v3.4c0 .9-.2 1.7-.6 2.3-.4.7-.9 1.2-1.6 1.6s-1.5.6-2.4.6c-.9-.1-1.7-.2-2.4-.6zm3.8-2.4c.3-.4.5-.8.5-1.4v-3.5c0-.6-.2-1-.5-1.4s-.8-.5-1.3-.5-1 .2-1.3.5c-.3.4-.5.8-.5 1.4v3.5c0 .6.2 1.1.5 1.4.3.4.8.5 1.3.5s.9-.2 1.3-.5z" fill="#fff"/><path d="m185.2 25.4c-.1-.1-.1-.1-.1-.2v-11.3c0-.1 0-.2.1-.2s.1-.1.2-.1h2.1c.2 0 .3.1.4.2l3.7 6.3s.1.1.1.1.1 0 .1-.1v-6.2c0-.1 0-.2.1-.2s.1-.1.2-.1h2.2c.1 0 .2 0 .2.1s.1.1.1.2v11.3c0 .1 0 .2-.1.2s-.1.1-.2.1h-2.1c-.1 0-.3-.1-.4-.2l-3.7-6.4c0-.1-.1-.1-.1-.1s-.1 0-.1.1v6.3c0 .1 0 .2-.1.2s-.1.1-.2.1h-2.2c-.1 0-.1-.1-.2-.1z" fill="#fff"/><path d="m198.9 25.1c-.7-.3-1.2-.7-1.6-1.3s-.6-1.2-.6-1.9v-.2c0-.1 0-.2.1-.2.1-.1.1-.1.2-.1h2.2c.1 0 .2 0 .2.1.1 0 .1.1.1.1v.2c0 .4.2.7.6 1s.8.4 1.4.4c.5 0 .9-.1 1.1-.3s.4-.5.4-.7c0-.3-.1-.6-.4-.7-.3-.2-.8-.4-1.5-.6l-.4-.1c-.7-.2-1.4-.5-1.9-.8s-1-.7-1.4-1.2-.6-1.1-.6-1.8.2-1.3.6-1.8.9-.9 1.5-1.2c.7-.3 1.4-.4 2.2-.4.9 0 1.7.2 2.4.5s1.2.8 1.6 1.3.6 1.2.6 2v.1c0 .1 0 .2-.1.2-.1.1-.1.1-.2.1h-2.2c-.1 0-.2 0-.2 0s-.1-.1-.1-.1v-.2c0-.4-.2-.7-.5-1.1-.4-.3-.8-.5-1.4-.5-.4 0-.8.1-1 .3s-.4.4-.4.8c0 .2.1.5.2.6.2.2.4.3.7.5.3.1.8.3 1.5.6.8.3 1.4.5 1.9.7.4.2.9.5 1.2 1 .4.5.6 1.1.6 1.8s-.2 1.3-.6 1.9c-.4.5-.9 1-1.6 1.2-.7.3-1.5.4-2.3.4-.8-.1-1.6-.3-2.3-.6z" fill="#fff"/></svg>