<svg enable-background="new 0 0 218.73 38.3" viewBox="0 0 218.73 38.3" xmlns="http://www.w3.org/2000/svg"><g fill="#fff"><path d="m65.53 2.33c.86 1.12 1.3 2.5 1.23 3.91-.11 1.55-.83 2.99-2 4-1.07.97-2.45 1.54-3.89 1.6h-.13c-1.42-.04-2.78-.57-3.85-1.51.97-1.15 1.54-2.59 1.61-4.1.05-1.7-.52-3.35-1.61-4.65l.11-.15c.49-.42 1.04-.76 1.63-1 1.07-.43 2.23-.55 3.37-.36h.07c1.38.32 2.61 1.12 3.46 2.26z"/><path d="m58.43 17.53c.37 1.33.26 2.74-.31 4l-9.74 14.4-.16.18c-.38.47-.82.88-1.32 1.22-.83.58-1.8.92-2.81 1h-.35c-1.4-.02-2.75-.53-3.81-1.44l10-14.71c.58-1.14.82-2.43.69-3.71-.11-1.31-.64-2.54-1.5-3.53.97-.85 2.2-1.37 3.49-1.46 2.71-.2 5.17 1.55 5.88 4.17z"/><path d="m51.8 0c3.21.14 5.73 2.79 5.73 6-.03 1.56-.69 3.05-1.83 4.11-1.06 1.02-2.46 1.61-3.93 1.68h-.17c-1.79-.09-3.45-.92-4.6-2.29.6-.9.97-1.93 1.07-3 .08-1.45-.39-2.88-1.32-4 1.16-1.54 2.96-2.46 4.88-2.5z"/><path d="m48.88 16.44c-.64-1.17-1.65-2.1-2.88-2.62-.42-.25-.86-.45-1.32-.61l-15.09 22.63c.58.67 1.3 1.21 2.11 1.58.84.53 1.8.83 2.79.87h.2c1.73-.04 3.36-.83 4.47-2.17l5.84-8.62 3.87-5.71.2-.37c.74-1.6.66-3.45-.19-4.98z"/><path d="m46.83 4.94c.38 1.49.13 3.08-.7 4.38l-17.25 25.86c-.13.19-.26.37-.41.55-1.05 1.48-2.72 2.4-4.54 2.48h-.54c-1.93.01-3.75-.92-4.86-2.5-.15-.19-.29-.37-.41-.55-3.28-4.91-6.57-9.83-9.86-14.76l-7.38-11.08c-.84-1.3-1.1-2.88-.72-4.38.39-1.71 1.45-3.19 2.95-4.11 1.42-.83 3.12-1.05 4.7-.59 1.57.45 2.92 1.45 3.82 2.82l11.87 17.8 11.87-17.8c.89-1.37 2.25-2.38 3.82-2.83 1.58-.45 3.28-.24 4.7.6 1.5.91 2.56 2.4 2.94 4.11z"/><path d="m199.42.16-115.17-.04c-.27-.04-.54-.07-.82-.07-2.31 0-4.31 1.35-5.26 3.3l-17.4 25.7c.02-.03.05-.06.07-.09-.68.96-1.09 2.12-1.09 3.39 0 3.23 2.62 5.85 5.85 5.85l133.82.05c10.47-.05 18.95-8.52 19.01-18.99-.02-10.52-8.51-19.04-19.01-19.1zm-133.84 26.34h.01s0 0-.01 0zm32.23-7.19c-.33.57-.81 1-1.42 1.31s-1.32.46-2.13.46h-2.04c-.08 0-.12.04-.12.12v3.96c0 .09-.03.16-.09.22s-.13.08-.22.08h-2.21c-.09 0-.16-.03-.22-.09s-.08-.13-.08-.22v-11.29c0-.09.03-.16.09-.22s.13-.08.22-.08h4.81c.77 0 1.45.16 2.05.48s1.05.76 1.38 1.34c.32.57.48 1.23.48 1.98.01.74-.16 1.39-.5 1.95zm11.36 6.16h-2.33c-.17 0-.29-.08-.36-.24l-1.97-4.42c-.02-.06-.07-.08-.14-.09h-1.05c-.08 0-.12.04-.12.12v4.32c0 .09-.03.16-.09.22s-.13.08-.22.08h-2.21c-.09 0-.16-.03-.22-.09s-.08-.13-.08-.22v-11.29c0-.09.03-.16.09-.22s.13-.08.22-.08h4.95c.75 0 1.41.15 1.97.46.57.31 1.01.74 1.32 1.3s.47 1.21.47 1.93c0 .75-.19 1.4-.55 1.95-.37.56-.88.96-1.54 1.21-.08.03-.1.09-.07.17l2.17 4.52.03.14c0 .16-.09.23-.27.23zm11.58-4.24c0 .88-.19 1.66-.58 2.33s-.93 1.19-1.63 1.56-1.51.55-2.43.55-1.72-.19-2.42-.55-1.24-.89-1.62-1.56-.58-1.45-.58-2.33v-3.4c0-.86.19-1.62.58-2.29.39-.66.93-1.18 1.62-1.55.7-.37 1.5-.55 2.42-.55s1.73.19 2.43.55c.7.37 1.25.88 1.63 1.55.38.66.58 1.43.58 2.29zm11.36.53c0 .74-.19 1.39-.56 1.95-.37.57-.9 1-1.58 1.31s-1.46.46-2.35.46h-4.23c-.09 0-.16-.03-.22-.09s-.08-.13-.08-.22v-11.29c0-.09.03-.16.09-.22s.13-.08.22-.08h4.23c.88 0 1.67.15 2.35.46s1.21.74 1.58 1.31.56 1.22.56 1.96zm11.35-.32c0 .83-.19 1.56-.56 2.19s-.9 1.12-1.59 1.47-1.48.52-2.37.52c-.9 0-1.69-.17-2.37-.52s-1.22-.84-1.6-1.47-.57-1.37-.57-2.19v-7.55c0-.09.03-.16.09-.22s.13-.08.22-.08h2.21c.09 0 .16.03.22.09s.08.13.08.22v7.55c0 .53.15.96.47 1.28.31.32.73.49 1.25.49.51 0 .92-.16 1.23-.48s.47-.75.47-1.28v-7.55c0-.09.03-.16.09-.22s.13-.08.22-.08h2.21c.09 0 .17.03.22.09.06.06.08.13.08.22zm8.09-5.1c-.32-.32-.74-.48-1.26-.48s-.94.16-1.26.48-.48.75-.48 1.27v3.86c0 .52.16.94.48 1.26s.74.48 1.26.48.94-.16 1.26-.48.48-.74.48-1.26c0-.07.03-.12.08-.15s.13-.04.23-.03l2.23.12c.19.02.29.05.29.09v.08c0 .81-.19 1.51-.57 2.12s-.91 1.09-1.6 1.42-1.48.5-2.39.5-1.7-.18-2.39-.53-1.22-.85-1.6-1.5-.57-1.39-.57-2.24v-3.67c0-.84.19-1.58.57-2.22s.91-1.14 1.6-1.49 1.48-.53 2.39-.53 1.7.17 2.39.5 1.22.81 1.6 1.41.57 1.31.57 2.1c0 .1-.1.16-.29.19l-2.21.15h-.08c-.16 0-.24-.03-.24-.09v-.1c-.02-.52-.17-.94-.49-1.26zm14.41-.62c0 .09-.03.16-.09.22s-.13.08-.22.08h-2.84c-.08 0-.12.04-.12.12v9.04c0 .09-.03.16-.09.22s-.13.08-.22.08h-2.21c-.09 0-.17-.03-.22-.09-.06-.06-.08-.13-.08-.22v-9.04c0-.08-.04-.12-.12-.12h-2.74c-.09 0-.17-.03-.22-.09-.06-.06-.08-.13-.08-.22v-1.82c0-.09.03-.16.09-.22s.13-.08.22-.08h8.64c.09 0 .16.03.22.09s.08.13.08.22zm4.91 9.47c0 .09-.03.16-.09.22s-.13.08-.22.08h-2.21c-.09 0-.16-.03-.22-.09s-.08-.13-.08-.22v-11.29c0-.09.03-.16.09-.22s.13-.08.22-.08h2.21c.09 0 .16.03.22.09s.08.13.08.22zm11.6-3.94c0 .88-.19 1.66-.58 2.33s-.93 1.19-1.63 1.56-1.51.55-2.43.55-1.72-.19-2.42-.55c-.7-.37-1.24-.89-1.62-1.56s-.58-1.45-.58-2.33v-3.4c0-.86.19-1.62.58-2.29.39-.66.93-1.18 1.62-1.55.7-.37 1.5-.55 2.42-.55s1.73.19 2.43.55c.7.37 1.25.88 1.63 1.55.38.66.58 1.43.58 2.29zm11.74 3.95c0 .09-.03.16-.09.22s-.13.08-.22.08h-2.09c-.15 0-.27-.07-.36-.2l-3.74-6.41c-.02-.06-.05-.08-.09-.07s-.06.04-.06.1l.03 6.27c0 .09-.03.16-.09.22s-.13.08-.22.08h-2.18c-.09 0-.17-.03-.22-.09-.06-.06-.08-.13-.08-.22v-11.29c0-.09.03-.16.09-.22s.13-.08.22-.08h2.09c.16 0 .28.07.36.2l3.74 6.32c.02.05.05.06.08.05s.05-.05.05-.1l-.02-6.17c0-.09.03-.16.09-.22s.13-.08.22-.08h2.18c.09 0 .16.03.22.09s.08.13.08.22zm10.67-1.25c-.37.54-.9.95-1.58 1.25-.68.29-1.46.44-2.35.44-.91 0-1.7-.15-2.39-.45s-1.22-.73-1.59-1.29-.56-1.21-.56-1.95v-.22c0-.09.03-.16.09-.22s.13-.08.22-.08h2.16c.09 0 .16.02.22.06s.08.09.08.14v.2c0 .36.18.69.55.97s.84.43 1.42.43c.5 0 .87-.11 1.1-.32.24-.21.36-.46.36-.75 0-.32-.14-.56-.42-.73s-.77-.37-1.49-.6l-.37-.12c-.73-.24-1.36-.5-1.9-.77-.54-.28-1.01-.66-1.39-1.16-.39-.49-.58-1.1-.58-1.83 0-.7.19-1.32.55-1.84.37-.53.88-.93 1.53-1.21s1.39-.43 2.22-.43c.87 0 1.66.16 2.35.48.7.32 1.24.77 1.64 1.34.4.58.6 1.24.6 1.99v.14c0 .09-.03.16-.09.22s-.13.08-.22.08h-2.16c-.09 0-.17-.01-.22-.04-.06-.03-.08-.07-.08-.13v-.15c0-.4-.18-.75-.53-1.05-.35-.31-.82-.46-1.41-.46-.44 0-.79.09-1.04.27s-.37.44-.37.76c0 .25.08.46.24.62s.41.32.74.46.85.33 1.54.55c.79.27 1.41.51 1.85.72.44.2.86.54 1.25.99.39.46.59 1.06.59 1.81 0 .71-.18 1.34-.56 1.88z"/><path d="m116.11 15.85c-.53 0-.97.18-1.3.54-.34.36-.5.82-.5 1.4v3.52c0 .59.17 1.06.5 1.41s.77.53 1.3.53c.54 0 .98-.18 1.32-.53.33-.35.5-.82.5-1.41v-3.52c0-.58-.17-1.05-.5-1.4-.33-.36-.77-.54-1.32-.54z"/><path d="m93.95 15.98h-1.72c-.08 0-.12.04-.12.12v2.62c0 .08.04.12.12.12h1.72c.46 0 .84-.13 1.13-.39s.43-.6.43-1.02c0-.43-.14-.78-.43-1.05s-.67-.4-1.13-.4z"/><path d="m127.73 15.99h-1.7c-.08 0-.12.04-.12.12v6.83c0 .08.04.12.12.12h1.72c.45 0 .82-.16 1.1-.48s.43-.76.44-1.3v-3.5c0-.54-.14-.98-.43-1.3-.29-.33-.67-.49-1.13-.49z"/><path d="m105.18 15.98h-1.85c-.08 0-.12.04-.12.12v2.35c0 .08.04.12.12.12h1.85c.42 0 .76-.12 1.02-.35s.39-.54.39-.93c0-.4-.13-.71-.39-.95s-.6-.36-1.02-.36z"/><path d="m177.83 15.87c-.53 0-.97.18-1.3.54-.34.36-.5.82-.5 1.4v3.52c0 .59.17 1.06.5 1.41s.77.53 1.3.53c.54 0 .98-.18 1.32-.53.33-.35.5-.82.5-1.41v-3.52c0-.58-.17-1.05-.5-1.4-.33-.36-.77-.54-1.32-.54z"/></g></svg>