<?xml version="1.0" encoding="utf-8"?>
<!-- Generator: Adobe Illustrator 22.1.0, SVG Export Plug-In . SVG Version: 6.00 Build 0)  -->
<svg version="1.1" id="Layer_1" xmlns="http://www.w3.org/2000/svg" xmlns:xlink="http://www.w3.org/1999/xlink" x="0px" y="0px"
	 viewBox="0 0 141.3 90.9" style="enable-background:new 0 0 141.3 90.9;" xml:space="preserve">
<style type="text/css">
	.st0{fill:#6197EE;stroke:#FFFFFF;stroke-width:2;stroke-miterlimit:10;}
	.st1{fill:#3178EF;stroke:#FFFFFF;stroke-width:2;stroke-miterlimit:10;}
	.st2{fill:#6197EE;}
	.st3{fill:#FFFFFF;}
	.st4{fill:#0CF279;}
	.st5{fill:#3178EF;}
	.st6{fill:#0CE573;}
	.st7{fill:#09D670;}
</style>
<g>
	<path class="st0" d="M70.9-6.1"/>
</g>
<g>
	<path class="st1" d="M70.9-6.1"/>
</g>
<g>
	<g>
		<path class="st2" d="M92.6,75.4c6.7-9.9,13.3-19.9,20-29.8"/>
	</g>
	<g>
		
			<rect x="84.6" y="59.4" transform="matrix(0.5573 -0.8303 0.8303 0.5573 -4.8952 111.9395)" class="st3" width="35.9" height="2.3"/>
	</g>
	<g>
		<path class="st4" d="M104.3,82.3c6.7-9.9,13.3-19.9,20-29.8c4.1-6.1,1.2-15.1-4.9-18.6c-6.7-3.9-14.5-1.2-18.6,4.9
			c-6.7,9.9-13.3,19.9-20,29.8c-4.1,6.1-1.2,15.1,4.9,18.6C92.4,91.1,100.2,88.4,104.3,82.3L104.3,82.3z"/>
	</g>
	<g>
		<path class="st3" d="M92.3,90.1c-2.5,0-4.9-0.6-7.2-2c-3.4-2-6-5.7-7-9.8c-0.9-3.8-0.3-7.5,1.7-10.5l20-29.8
			c4.7-7,13.4-9.2,20.2-5.2c3.4,2,6,5.7,7,9.8c0.9,3.8,0.3,7.5-1.7,10.5l-20,29.8C102.2,87.6,97.3,90.1,92.3,90.1z M112.7,33.2
			c-4.2,0-8.3,2.2-11,6.2L81.8,69.2c-1.6,2.4-2.1,5.5-1.4,8.7c0.8,3.5,3,6.6,5.9,8.3c5.9,3.4,13,1.5,17.1-4.5l20-29.8
			c1.6-2.4,2.1-5.5,1.4-8.7c-0.8-3.5-3-6.6-5.9-8.3C116.9,33.7,114.8,33.2,112.7,33.2z"/>
	</g>
	<g>
		<path class="st4" d="M126.4,29.8c18.4,0,18.5-28.6,0-28.6C108,1.2,108,29.8,126.4,29.8L126.4,29.8z"/>
	</g>
	<g>
		<path class="st3" d="M126.4,31c-9.8,0-15-7.8-15-15.4c0-7.7,5.1-15.5,15-15.5c4.6,0,8.5,1.7,11.2,4.9c2.4,2.8,3.7,6.6,3.7,10.6
			C141.4,23.2,136.3,31,126.4,31z M126.4,2.4c-8.7,0-12.7,6.8-12.7,13.2c0,6.3,4,13.2,12.7,13.2c3.9,0,7.2-1.4,9.5-4.1
			c2.1-2.4,3.2-5.6,3.2-9.1C139.1,9.2,135.1,2.4,126.4,2.4z"/>
	</g>
	<g>
		<path class="st5" d="M75.6,75.4c7-10.2,14-20.4,21-30.7"/>
	</g>
	<g>
		
			<rect x="67.6" y="58.9" transform="matrix(0.5649 -0.8252 0.8252 0.5649 -12.0795 97.2513)" class="st3" width="37.2" height="2.3"/>
	</g>
	<g>
		<path class="st6" d="M88,82.6c7-10.2,14-20.4,21-30.7c4.4-6.4,1.2-15.9-5.1-19.6c-7.1-4.1-15.2-1.3-19.6,5.1
			c-7,10.2-14,20.4-21,30.7c-4.4,6.4-1.2,15.9,5.1,19.6C75.5,91.9,83.6,89,88,82.6L88,82.6z"/>
	</g>
	<g>
		<path class="st3" d="M75.4,90.9c-2.6,0-5.2-0.7-7.6-2.1c-3.6-2.1-6.4-6-7.3-10.4c-0.9-4-0.2-7.8,1.8-10.8l21-30.7
			c5.1-7.4,13.9-9.7,21.1-5.5c3.6,2.1,6.4,6,7.3,10.4c0.9,4,0.2,7.8-1.8,10.8l-21,30.7L88,82.7l0.9,0.6
			C85.6,88.2,80.5,90.9,75.4,90.9z M96.9,31.6c-4.7,0-9.1,2.8-11.7,6.6l-21,30.7c-1.7,2.5-2.2,5.7-1.5,9c0.8,3.8,3.2,7.1,6.3,8.9
			c6.9,4.1,14.3,0.7,18.1-4.8l21-30.7c1.7-2.5,2.2-5.7,1.5-9c-0.8-3.8-3.2-7.1-6.3-8.9C101.2,32.2,99,31.6,96.9,31.6z"/>
	</g>
	<g>
		<path class="st6" d="M112.6,29.8c18.4,0,18.5-28.6,0-28.6C94.1,1.2,94.1,29.8,112.6,29.8L112.6,29.8z"/>
	</g>
	<g>
		<path class="st3" d="M112.6,31c-4.6,0-8.5-1.7-11.2-4.9c-2.4-2.8-3.7-6.6-3.7-10.6c0-7.7,5.1-15.5,15-15.5c4.6,0,8.5,1.7,11.2,4.9
			c2.4,2.8,3.7,6.6,3.7,10.6C127.5,23.2,122.4,31,112.6,31z M112.6,2.4c-8.7,0-12.7,6.8-12.7,13.2c0,6.3,4,13.2,12.7,13.2
			s12.7-6.8,12.7-13.2C125.2,9.2,121.3,2.4,112.6,2.4z"/>
	</g>
	<g>
		<path class="st7" d="M102.7,3.2c-7-4.1-15.3-1.3-19.6,5.1C74,22.1,64.8,35.8,55.7,49.6C46.6,35.8,37.4,22.1,28.3,8.3
			C24.1,1.9,15.7-0.9,8.8,3.2C2.4,6.9-0.6,16.3,3.7,22.8c13.2,20,26.5,39.9,39.7,59.9c0.3,0.4,0.6,0.9,0.9,1.3
			c1.1,1.6,2.5,2.9,4.2,3.9c2.4,1.4,5,2,7.6,1.9c0.1,0,0.3,0,0.4,0c0.1,0,0.1,0,0.2,0c2.1-0.1,4.2-0.7,6.2-1.9
			c1.6-1,3.1-2.3,4.2-3.9c0.3-0.4,0.6-0.8,0.9-1.3c13.2-20,26.5-39.9,39.7-59.9C112.2,16.3,109.1,6.9,102.7,3.2z"/>
	</g>
	<g>
		<path class="st3" d="M55.5,90.8c-2.6,0-5.2-0.7-7.5-2.1c-1.7-1-3.3-2.4-4.5-4.2c-0.4-0.4-0.7-0.9-1-1.3L2.7,23.4
			c-2.1-3.1-2.7-7-1.8-11c1-4.3,3.7-8.1,7.3-10.2C15.4-2,24.5,0.4,29.3,7.7l26.4,39.8L82.1,7.7c5-7.4,14-9.7,21.2-5.5
			c3.6,2.1,6.3,5.9,7.3,10.2c0.9,4,0.3,7.9-1.8,11L69.1,83.3c-0.3,0.4-0.6,0.9-1,1.4c-1.2,1.7-2.8,3.1-4.5,4.1
			c-2.1,1.2-4.4,1.9-6.8,2h-0.4c-0.1,0-0.2,0-0.3,0C55.9,90.8,55.7,90.8,55.5,90.8z M15.8,2.4c-2.2,0-4.4,0.6-6.4,1.7
			c-3,1.8-5.4,5-6.2,8.7c-0.8,3.4-0.3,6.6,1.5,9.2l39.7,59.9c0.3,0.4,0.5,0.8,0.9,1.2c1.1,1.5,2.4,2.7,3.9,3.6
			c2.2,1.3,4.5,1.8,6.9,1.7h0.6c2-0.1,4-0.7,5.7-1.7c1.5-0.9,2.8-2,3.8-3.5c0.3-0.4,0.6-0.8,0.9-1.2l39.7-59.9
			c1.7-2.6,2.2-5.9,1.5-9.2c-0.9-3.7-3.2-7-6.2-8.7l0,0c-6-3.6-13.8-1.6-18,4.7L55.8,51.6L27.4,8.9C24.6,4.7,20.2,2.4,15.8,2.4z"/>
	</g>
</g>
</svg>
