<svg data-name="Warstwa 1" xmlns="http://www.w3.org/2000/svg" xmlns:xlink="http://www.w3.org/1999/xlink" viewBox="0 0 266.93 154.05"><defs><linearGradient id="a" x1="100.83" y1="-56.03" x2="240.78" y2="24.77" gradientUnits="userSpaceOnUse"><stop offset="0" stop-color="#4eba6c"/><stop offset=".19" stop-color="#4dbc7f"/><stop offset=".57" stop-color="#4ac1b2"/><stop offset="1" stop-color="#46c7f0"/></linearGradient><linearGradient id="b" x1="100.79" y1="-56.04" x2="240.77" y2="24.78" xlink:href="#a"/><linearGradient id="c" x1="57.21" y1="26.16" x2="196.98" y2="106.86" xlink:href="#a"/><linearGradient id="d" x1="57.17" y1="26.13" x2="196.95" y2="106.83" xlink:href="#a"/><linearGradient id="e" x1="93.58" y1="-39.69" x2="232.84" y2="40.71" xlink:href="#a"/><linearGradient id="f" x1="93.58" y1="-39.72" x2="232.85" y2="40.69" xlink:href="#a"/><linearGradient id="g" x1="64.05" y1="50.81" x2="187.67" y2="122.18" xlink:href="#a"/><linearGradient id="h" x1="64.17" y1="50.87" x2="187.64" y2="122.16" xlink:href="#a"/><linearGradient id="i" x1="81.2" y1="-36.16" x2="231.9" y2="50.85" xlink:href="#a"/><linearGradient id="j" x1="86.82" y1="-18.83" x2="222.24" y2="59.35" xlink:href="#a"/><linearGradient id="k" x1="99.28" y1="-39.81" x2="232.31" y2="37" xlink:href="#a"/><linearGradient id="l" x1="55.33" y1="34.14" x2="191.39" y2="112.69" xlink:href="#a"/><linearGradient id="m" x1="55.33" y1="34.14" x2="191.38" y2="112.69" xlink:href="#a"/></defs><title>Obszar roboczy 1</title><path d="M261.92 12.34a23.09 23.09 0 0 1 4.81 15.36 22.73 22.73 0 0 1-7.65 15.68 24 24 0 0 1-15.27 6.29h-.5c-7.09 0-12.49-3.69-15.12-5.91a.11.11 0 0 0 0-.09.09.09 0 0 0 0-.06l.06-.06a26.56 26.56 0 0 0 6.35-16.09 26.85 26.85 0 0 0-6.35-18.25v-.06l.33-.29A23.84 23.84 0 0 1 234.81 5a24.78 24.78 0 0 1 13.05-1.51l.27.06a23.81 23.81 0 0 1 13.79 8.79z" fill="url(#a)"/><path d="M266.58 27.67a22.91 22.91 0 0 0-4.78-15.24 23.84 23.84 0 0 0-13.7-8.74l-.27-.06a24.67 24.67 0 0 0-13 1.47 25.57 25.57 0 0 0-6.35 3.81l-.21.21a27.09 27.09 0 0 1 6.32 18.31 27 27 0 0 1-6.38 16.12v.06a23.49 23.49 0 0 0 15 5.88h.5A23.85 23.85 0 0 0 259 43.26a22.53 22.53 0 0 0 7.58-15.59zm-4.78-15.24a22.91 22.91 0 0 1 4.78 15.24A22.53 22.53 0 0 1 259 43.26a23.85 23.85 0 0 1-15.18 6.26h-.5a23.49 23.49 0 0 1-15-5.88v-.06a27 27 0 0 0 6.38-16.12 27.09 27.09 0 0 0-6.32-18.31l.21-.21a25.57 25.57 0 0 1 6.35-3.81 24.67 24.67 0 0 1 13-1.47l.27.06a23.84 23.84 0 0 1 13.59 8.71z" fill="url(#b)"/><path d="M232.27 70.37A23.93 23.93 0 0 1 231 86.49l-39.25 58-.65.74a24.5 24.5 0 0 1-5.35 4.9 22.6 22.6 0 0 1-11.28 3.87c-.47 0-.94.06-1.41.06a23.8 23.8 0 0 1-15.33-5.82l-.18-.12.06-.05 40.19-59.3a26.79 26.79 0 0 0 2.81-15 25.14 25.14 0 0 0-6.05-14.23l-.09-.12h.06a23.85 23.85 0 0 1 14-5.88 22.81 22.81 0 0 1 23.72 16.81z" fill="url(#c)"/><path d="M230.91 86.4a23.61 23.61 0 0 0 1.21-16A23 23 0 0 0 223 57.55a22.77 22.77 0 0 0-12.81-3.87h-1.57a23.86 23.86 0 0 0-13.91 5.79 25.18 25.18 0 0 1 6.09 14.29 27 27 0 0 1-2.84 15.07l-.06.08-40.1 59.16h.06a23.84 23.84 0 0 0 15.24 5.79c.47 0 .94 0 1.41-.06a23.54 23.54 0 0 0 16.49-8.69l.62-.71z" fill="url(#d)"/><path d="M232.12 70.43a23.61 23.61 0 0 1-1.21 16l-39.25 58-.62.71a23.54 23.54 0 0 1-16.57 8.74c-.47 0-.94.06-1.41.06a23.84 23.84 0 0 1-15.24-5.79h-.06l40.1-59.16.06-.08a27 27 0 0 0 2.84-15.07 25.18 25.18 0 0 0-6.09-14.29 23.86 23.86 0 0 1 13.91-5.79h1.57A22.77 22.77 0 0 1 223 57.55a23 23 0 0 1 9.12 12.88z" fill="url(#d)"/><path d="M208.43 3c11.08.35 22.83 9.89 22.66 23.5a22.78 22.78 0 0 1-7.24 16.25 24.18 24.18 0 0 1-15.53 6.64h-.65c-9.81 0-16.39-6.79-18.19-8.92l.08.06a.16.16 0 0 0 .06-.12c1.3 1.57 8.12 8.83 18 8.83h.65a23.93 23.93 0 0 0 15.44-6.61 22.55 22.55 0 0 0 7.18-16.13c.18-13.52-11.49-23-22.51-23.36a5.24 5.24 0 0 0-.67 0c-10 0-16.78 7.39-18.2 9.1l-.11.06-.06-.06c1.3-1.56 8.15-9.21 18.4-9.21a5 5 0 0 1 .69-.03z" fill="url(#e)"/><path d="M208.43 3.18c11 .36 22.69 9.84 22.51 23.36a22.55 22.55 0 0 1-7.18 16.13 23.93 23.93 0 0 1-15.44 6.61h-.65c-9.93 0-16.75-7.26-18-8.83a25.24 25.24 0 0 0 4.23-12 25.82 25.82 0 0 0-4.29-16.24c1.42-1.71 8.15-9.1 18.2-9.1a5.24 5.24 0 0 1 .62.07z" fill="url(#f)"/><path d="M194.53 65.73c3.48 6.65 3.81 14.62.79 20.26l-.76 1.45-15.63 23q-11.77 17.37-23.59 34.79c-.74.92-7.36 8.8-18.14 8.8h-.79a23.69 23.69 0 0 1-17-8.44v-.12q30.48-45.63 61-91.26v-.05h.06a24.28 24.28 0 0 1 14.06 11.57z" fill="url(#g)"/><path d="M195.2 85.9c3-5.58 2.66-13.49-.82-20.08a24.12 24.12 0 0 0-13.94-11.49q-30.44 45.59-60.92 91.2a23.62 23.62 0 0 0 16.89 8.35h.79c10.72 0 17.28-7.82 18-8.74q11.78-17.35 23.59-34.79l15.6-23z" fill="url(#h)"/><path d="M194.38 65.82c3.48 6.59 3.81 14.5.82 20.08l-.79 1.48-15.6 23q-11.81 17.41-23.59 34.79c-.74.92-7.3 8.74-18 8.74h-.79a23.62 23.62 0 0 1-16.89-8.35Q150 99.9 180.44 54.33a24.12 24.12 0 0 1 13.94 11.49z" fill="url(#h)"/><path d="M189.56 12.25a25.82 25.82 0 0 1 4.29 16.24 25.24 25.24 0 0 1-4.23 12l-.11.09a25.44 25.44 0 0 0 4.25-12 25.89 25.89 0 0 0-4.22-16.12s-.03-.18.02-.21z" fill="url(#i)"/><path d="M189.62 40.45a.16.16 0 0 1-.06.12l-.08-.06.11-.09.03.03z" fill="url(#j)"/><path d="M189.56 12.25c-.05 0-.05.06-.08.09l-.06-.06.11-.06.03.03z" fill="url(#k)"/><path d="M188.89 19.9a22.43 22.43 0 0 1-2.84 17.63l-69.52 104.22a21.28 21.28 0 0 1-1.65 2.24A23.82 23.82 0 0 1 96.6 154a.51.51 0 0 1-.21 0h-.17a.83.83 0 0 0-.27 0h-1.5a24 24 0 0 1-12.22-3.34 24.32 24.32 0 0 1-7.4-6.66 35.38 35.38 0 0 1-1.65-2.24L33.46 82.18 3.69 37.53A22.31 22.31 0 0 1 .83 19.9 26.16 26.16 0 0 1 12.7 3.33 24.38 24.38 0 0 1 31.63.94a27.74 27.74 0 0 1 15.42 11.37L94.86 84l47.84-71.69A27.5 27.5 0 0 1 158.08.91a24.4 24.4 0 0 1 19 2.42 26.27 26.27 0 0 1 11.81 16.57z" fill="url(#l)"/><path d="M185.93 37.44a22.24 22.24 0 0 0 2.81-17.51A26 26 0 0 0 177 3.48a24.07 24.07 0 0 0-18.84-2.42 27.62 27.62 0 0 0-15.29 11.31l-48 71.94-.06-.12-47.88-71.82A27.59 27.59 0 0 0 31.6 1.09a24.72 24.72 0 0 0-6.67-.92 24 24 0 0 0-12.17 3.31A26 26 0 0 0 1 19.93a22.08 22.08 0 0 0 2.81 17.51l29.8 44.68 39.72 59.57c.47.71 1 1.44 1.62 2.21a24.17 24.17 0 0 0 7.33 6.68 23.72 23.72 0 0 0 12.13 3.33H96a.83.83 0 0 1 .27 0h.17a.59.59 0 0 0 .21 0 23.41 23.41 0 0 0 10.87-3.24 23.81 23.81 0 0 0 7.29-6.68 23.38 23.38 0 0 0 1.65-2.21z" fill="url(#m)"/><path d="M188.74 19.93a22.24 22.24 0 0 1-2.81 17.51l-69.52 104.25a23.38 23.38 0 0 1-1.65 2.21 23.81 23.81 0 0 1-7.29 6.68 23.41 23.41 0 0 1-10.87 3.24.59.59 0 0 1-.21 0h-.17a.83.83 0 0 0-.27 0h-1.5a23.72 23.72 0 0 1-12.13-3.33A24.17 24.17 0 0 1 75 143.9c-.62-.77-1.15-1.5-1.62-2.21L33.61 82.12 3.81 37.44A22.08 22.08 0 0 1 1 19.93 26 26 0 0 1 12.76 3.48 24 24 0 0 1 24.93.17a24.72 24.72 0 0 1 6.67.92 27.59 27.59 0 0 1 15.33 11.28L94.8 84.19l.06.12 48-71.94a27.62 27.62 0 0 1 15.25-11.31A24.07 24.07 0 0 1 177 3.48a26 26 0 0 1 11.74 16.45z" fill="url(#m)"/></svg>