<svg xmlns="http://www.w3.org/2000/svg" xmlns:xlink="http://www.w3.org/1999/xlink" viewBox="0 0 218.73 38.3"><defs><linearGradient id="a" x1="24.49" y1="-15.09" x2="60.15" y2="5.5" gradientUnits="userSpaceOnUse"><stop offset="0" stop-color="#4db86b"/><stop offset=".19" stop-color="#4cba7e"/><stop offset=".57" stop-color="#49bfb1"/><stop offset="1" stop-color="#45c6ef"/></linearGradient><linearGradient id="b" x1="14.99" y1="6.56" x2="49.68" y2="26.59" xlink:href="#a"/><linearGradient id="c" x1="22.13" y1="-11.16" x2="58.03" y2="9.57" xlink:href="#a"/><linearGradient id="d" x1="14.01" y1="11.27" x2="47.42" y2="30.56" xlink:href="#a"/><linearGradient id="e" x1="22.34" y1="-14.7" x2="55.94" y2="4.7" xlink:href="#a"/><linearGradient id="f" x1="25.43" y1="-12.91" x2="58.44" y2="6.15" xlink:href="#a"/><linearGradient id="g" x1="13.69" y1="8.48" x2="47.45" y2="27.97" xlink:href="#a"/><linearGradient id="h" x1="198.7" y1="58.92" x2="81.83" y2="-8.55" xlink:href="#a"/></defs><title>logo_gradient_full_3</title><g data-name="Warstwa 1"><path d="M65.53 2.33a5.93 5.93 0 0 1 1.23 3.91 5.81 5.81 0 0 1-2 4 6.15 6.15 0 0 1-3.89 1.6h-.13a6.09 6.09 0 0 1-3.85-1.51 6.83 6.83 0 0 0 1.61-4.1 6.89 6.89 0 0 0-1.61-4.65l.11-.15a6 6 0 0 1 1.63-1A6.25 6.25 0 0 1 62 .07h.07a6 6 0 0 1 3.46 2.26z" fill="url(#a)"/><path d="M58.43 17.53a5.86 5.86 0 0 1-.31 4l-9.74 14.4-.16.18a6.31 6.31 0 0 1-1.32 1.22 5.73 5.73 0 0 1-2.81 1h-.35a6 6 0 0 1-3.81-1.44l10-14.71a6.66 6.66 0 0 0 .69-3.71 6.17 6.17 0 0 0-1.5-3.53 5.94 5.94 0 0 1 3.49-1.46 5.66 5.66 0 0 1 5.88 4.17z" fill="url(#b)"/><path d="M51.8 0a6 6 0 0 1 5.73 6 5.74 5.74 0 0 1-1.83 4.11 6.07 6.07 0 0 1-3.93 1.68h-.17A6.41 6.41 0 0 1 47 9.5a6.48 6.48 0 0 0 1.07-3 5.75 5.75 0 0 0-1.32-4A6.27 6.27 0 0 1 51.63 0z" fill="url(#c)"/><path d="M48.88 16.44A5.93 5.93 0 0 0 46 13.82a7 7 0 0 0-1.32-.61L29.59 35.84a6.14 6.14 0 0 0 2.11 1.58 5.55 5.55 0 0 0 2.79.87h.2a6 6 0 0 0 4.47-2.17L45 27.5l3.87-5.71.2-.37a5.5 5.5 0 0 0-.19-4.98z" fill="url(#d)"/><path d="M46.83 4.94a5.56 5.56 0 0 1-.7 4.38L28.88 35.18a6 6 0 0 1-.41.55 5.88 5.88 0 0 1-4.54 2.48h-.54a5.9 5.9 0 0 1-4.86-2.5c-.15-.19-.29-.37-.41-.55Q13.2 27.79 8.26 20.4L.88 9.32a5.57 5.57 0 0 1-.72-4.38A6.52 6.52 0 0 1 3.11.83a6 6 0 0 1 4.7-.59 6.85 6.85 0 0 1 3.82 2.82l11.87 17.8 11.87-17.8A6.82 6.82 0 0 1 39.19.23a6 6 0 0 1 4.7.6 6.47 6.47 0 0 1 2.94 4.11z" fill="url(#g)"/><path d="M199.69.11H80.62L54.85 38.19h144.84a19.09 19.09 0 0 0 19-19 19.09 19.09 0 0 0-19-19.08z" fill="url(#h)"/><path d="M94.91 13.94a3.28 3.28 0 0 1 1.38 1.33 3.88 3.88 0 0 1 .49 2 3.83 3.83 0 0 1-.5 2 3.37 3.37 0 0 1-1.42 1.3 4.67 4.67 0 0 1-2.13.46h-2a.11.11 0 0 0-.12.12v4a.31.31 0 0 1-.08.22.29.29 0 0 1-.22.09h-2.25a.3.3 0 0 1-.23-.09.31.31 0 0 1-.08-.22V13.77a.28.28 0 0 1 .31-.31h4.81a4.21 4.21 0 0 1 2.04.48zm-1.37 4.4a1.3 1.3 0 0 0 .43-1 1.37 1.37 0 0 0-.43-1.05 1.64 1.64 0 0 0-1.13-.4h-1.72a.11.11 0 0 0-.12.12v2.62a.11.11 0 0 0 .12.12h1.72a1.63 1.63 0 0 0 1.13-.41zM105 25.12l-2-4.42c0-.06-.06-.08-.13-.08h-1.06a.11.11 0 0 0-.12.12v4.31a.27.27 0 0 1-.08.22.29.29 0 0 1-.22.09h-2.24a.31.31 0 0 1-.31-.31V13.77a.3.3 0 0 1 .09-.23.31.31 0 0 1 .22-.08h4.95a4.06 4.06 0 0 1 2 .46 3.22 3.22 0 0 1 1.31 1.3 3.81 3.81 0 0 1 .47 1.93 3.41 3.41 0 0 1-.55 2 3.1 3.1 0 0 1-1.54 1.21.12.12 0 0 0-.07.17l2.15 4.47v.14c0 .15-.09.22-.27.22h-2.3a.35.35 0 0 1-.3-.24zM101.66 16v2.35a.11.11 0 0 0 .12.12h1.86a1.49 1.49 0 0 0 1-.35 1.18 1.18 0 0 0 .39-.93 1.24 1.24 0 0 0-.39-.95 1.44 1.44 0 0 0-1-.36h-1.86a.11.11 0 0 0-.12.12zm10.49 9a3.91 3.91 0 0 1-1.62-1.55 4.55 4.55 0 0 1-.58-2.33v-3.4a4.46 4.46 0 0 1 .58-2.29 3.94 3.94 0 0 1 1.62-1.54 5.13 5.13 0 0 1 2.43-.56 5.18 5.18 0 0 1 2.43.56 4 4 0 0 1 1.63 1.54 4.56 4.56 0 0 1 .58 2.29v3.4a4.65 4.65 0 0 1-.58 2.33A3.93 3.93 0 0 1 117 25a5.18 5.18 0 0 1-2.43.56 5.13 5.13 0 0 1-2.42-.56zm3.74-2.38a2 2 0 0 0 .5-1.42v-3.52a2 2 0 0 0-.5-1.41 1.72 1.72 0 0 0-1.31-.53 1.7 1.7 0 0 0-1.3.53 2 2 0 0 0-.51 1.41v3.51a2 2 0 0 0 .51 1.42 1.7 1.7 0 0 0 1.3.52 1.72 1.72 0 0 0 1.31-.52zm5.74 2.65a.27.27 0 0 1-.08-.22V13.77a.3.3 0 0 1 .08-.23.33.33 0 0 1 .22-.08h4.23a5.6 5.6 0 0 1 2.35.46 3.54 3.54 0 0 1 1.57 1.31 3.4 3.4 0 0 1 .56 1.95v4.46a3.43 3.43 0 0 1-.56 1.95 3.6 3.6 0 0 1-1.58 1.31 5.6 5.6 0 0 1-2.35.46h-4.23a.29.29 0 0 1-.21-.09zm2.86-2.27h1.71a1.43 1.43 0 0 0 1.11-.49 2 2 0 0 0 .44-1.3v-3.5a1.86 1.86 0 0 0-.43-1.3 1.47 1.47 0 0 0-1.13-.49h-1.7a.11.11 0 0 0-.12.12v6.84a.11.11 0 0 0 .12.12zM135 25a3.9 3.9 0 0 1-1.59-1.47 4.22 4.22 0 0 1-.57-2.2v-7.56a.34.34 0 0 1 .08-.23.33.33 0 0 1 .22-.08h2.21a.31.31 0 0 1 .22.08.3.3 0 0 1 .09.23v7.54a1.75 1.75 0 0 0 .47 1.29 1.84 1.84 0 0 0 2.48 0 1.79 1.79 0 0 0 .47-1.29v-7.54a.3.3 0 0 1 .08-.23.33.33 0 0 1 .22-.08h2.21a.31.31 0 0 1 .22.08.3.3 0 0 1 .09.23v7.54a4.31 4.31 0 0 1-.56 2.2 3.9 3.9 0 0 1-1.57 1.49 5.68 5.68 0 0 1-4.77 0zm11.36 0a3.86 3.86 0 0 1-1.6-1.5 4.31 4.31 0 0 1-.57-2.24v-3.7a4.27 4.27 0 0 1 .57-2.22 3.9 3.9 0 0 1 1.6-1.49 5.2 5.2 0 0 1 2.39-.53 5.32 5.32 0 0 1 2.39.51 3.79 3.79 0 0 1 1.6 1.41 3.83 3.83 0 0 1 .57 2.09c0 .11-.1.17-.29.19l-2.21.16h-.09q-.24 0-.24-.09v-.1a1.62 1.62 0 0 0-1.73-1.75 1.63 1.63 0 0 0-1.75 1.75v3.86a1.7 1.7 0 0 0 .47 1.26 1.92 1.92 0 0 0 2.52 0 1.7 1.7 0 0 0 .47-1.26.19.19 0 0 1 .08-.16.39.39 0 0 1 .23 0l2.23.12c.19 0 .29 0 .29.08v.09a3.93 3.93 0 0 1-.57 2.12 3.74 3.74 0 0 1-1.6 1.42 5.32 5.32 0 0 1-2.39.51 5.2 5.2 0 0 1-2.37-.53zm17.97-11.46a.3.3 0 0 1 .09.23v1.81a.32.32 0 0 1-.09.23.33.33 0 0 1-.22.08h-2.84a.11.11 0 0 0-.12.12v9a.31.31 0 0 1-.08.22.29.29 0 0 1-.22.09h-2.21a.3.3 0 0 1-.23-.09.31.31 0 0 1-.08-.22V16a.11.11 0 0 0-.12-.12h-2.74a.33.33 0 0 1-.22-.08.36.36 0 0 1-.08-.23v-1.8a.34.34 0 0 1 .08-.23.33.33 0 0 1 .22-.08h8.64a.33.33 0 0 1 .22.08zm2.26 11.73a.27.27 0 0 1-.08-.22V13.77a.3.3 0 0 1 .08-.23.33.33 0 0 1 .22-.08H169a.31.31 0 0 1 .22.08.3.3 0 0 1 .09.23v11.28a.31.31 0 0 1-.31.31h-2.21a.29.29 0 0 1-.2-.09zm7.28-.27a3.85 3.85 0 0 1-1.62-1.55 4.55 4.55 0 0 1-.58-2.33v-3.4a4.46 4.46 0 0 1 .58-2.29 3.88 3.88 0 0 1 1.62-1.54 5.53 5.53 0 0 1 4.85 0 3.94 3.94 0 0 1 1.64 1.54 4.55 4.55 0 0 1 .57 2.29v3.4a4.65 4.65 0 0 1-.57 2.33 3.9 3.9 0 0 1-1.64 1.55 5.53 5.53 0 0 1-4.85 0zm3.74-2.38a2 2 0 0 0 .5-1.42v-3.52a2 2 0 0 0-.5-1.41 1.88 1.88 0 0 0-2.62 0 2 2 0 0 0-.5 1.41v3.51a2 2 0 0 0 .5 1.42 1.91 1.91 0 0 0 2.62 0zm5.75 2.65a.27.27 0 0 1-.08-.22V13.77a.3.3 0 0 1 .08-.23.33.33 0 0 1 .22-.08h2.09a.4.4 0 0 1 .36.2l3.74 6.34s0 .06.08.05a.09.09 0 0 0 .06-.1v-6.17a.34.34 0 0 1 .08-.23.33.33 0 0 1 .22-.08h2.18a.33.33 0 0 1 .22.08.3.3 0 0 1 .09.23v11.27a.28.28 0 0 1-.09.22.29.29 0 0 1-.22.09h-2.09a.42.42 0 0 1-.36-.2l-3.74-6.41c0-.06-.05-.08-.09-.07s-.06 0-.06.1v6.27a.31.31 0 0 1-.08.22.29.29 0 0 1-.22.09h-2.18a.29.29 0 0 1-.21-.09zM197 25a3.4 3.4 0 0 1-2.15-3.23v-.23a.35.35 0 0 1 .08-.22.34.34 0 0 1 .23-.08h2.15a.41.41 0 0 1 .23.06.19.19 0 0 1 .08.14v.21a1.22 1.22 0 0 0 .55 1 2.28 2.28 0 0 0 1.42.42 1.65 1.65 0 0 0 1.11-.32 1 1 0 0 0 .35-.75.8.8 0 0 0-.41-.73 7.9 7.9 0 0 0-1.49-.6l-.37-.11a13.48 13.48 0 0 1-1.91-.78 4.16 4.16 0 0 1-1.39-1.15 2.88 2.88 0 0 1-.58-1.83 3.15 3.15 0 0 1 .55-1.85 3.57 3.57 0 0 1 1.55-1.2 5.4 5.4 0 0 1 2.22-.43 5.62 5.62 0 0 1 2.36.48 4 4 0 0 1 1.64 1.34 3.48 3.48 0 0 1 .59 2v.14a.28.28 0 0 1-.3.3h-2.16a.46.46 0 0 1-.22 0 .14.14 0 0 1-.09-.13v-.15a1.35 1.35 0 0 0-.53-1.05 2 2 0 0 0-1.41-.46 1.71 1.71 0 0 0-1 .27.89.89 0 0 0-.38.76.84.84 0 0 0 .24.62 2.09 2.09 0 0 0 .74.46c.33.15.85.33 1.54.56s1.41.51 1.85.71a3.68 3.68 0 0 1 1.25 1 2.68 2.68 0 0 1 .59 1.81 3.2 3.2 0 0 1-.56 1.87 3.64 3.64 0 0 1-1.59 1.25A6.37 6.37 0 0 1 197 25z" fill="#fff"/></g></svg>