<svg xmlns="http://www.w3.org/2000/svg" viewBox="0 0 190.07 38.23"><title>logo_white_full</title><g data-name="Warstwa 1" fill="#fff"><path d="M65 3.06a5.77 5.77 0 0 1 1.2 3.82 5.67 5.67 0 0 1-1.9 3.89 6 6 0 0 1-3.79 1.56h-.12a5.93 5.93 0 0 1-3.75-1.47 6.64 6.64 0 0 0 1.58-4 6.69 6.69 0 0 0-1.58-4.53l.08-.07A6.07 6.07 0 0 1 61.47.87h.06A5.89 5.89 0 0 1 65 3.06z"/><path d="M66.11 6.87a5.65 5.65 0 0 0-1.18-3.78A6 6 0 0 0 61.52.92h-.06a6 6 0 0 0-4.79 1.31l-.06.06a6.56 6.56 0 0 1 0 8.54 5.84 5.84 0 0 0 3.73 1.46h.12a5.91 5.91 0 0 0 3.77-1.55 5.62 5.62 0 0 0 1.88-3.87z"/><path d="M64.93 3.09a5.61 5.61 0 0 1-.7 7.65 5.91 5.91 0 0 1-3.77 1.55h-.12a5.84 5.84 0 0 1-3.73-1.46 6.56 6.56 0 0 0 0-8.54l.06-.06A6 6 0 0 1 61.46.9h.06a6 6 0 0 1 3.41 2.19zM57.6 17.46a6 6 0 0 1-.31 4l-9.74 14.4-.16.18a6.17 6.17 0 0 1-1.33 1.22 5.59 5.59 0 0 1-2.8 1h-.36a6 6 0 0 1-3.8-1.44L49 22a6.57 6.57 0 0 0 .7-3.71 6.24 6.24 0 0 0-1.5-3.53 5.86 5.86 0 0 1 3.48-1.45 5.67 5.67 0 0 1 5.89 4.16z"/><path d="M57.26 21.44a5.81 5.81 0 0 0-2-7.16 5.67 5.67 0 0 0-3.18-1h-.39a5.89 5.89 0 0 0-3.45 1.44 6.27 6.27 0 0 1 1.51 3.55 6.61 6.61 0 0 1-.71 3.73l-10 14.68a6 6 0 0 0 3.86 1.52h.36a5.83 5.83 0 0 0 4.11-2.2l.15-.17z"/><path d="M57.56 17.48a5.81 5.81 0 0 1-.3 4l-9.74 14.4-.15.17a5.83 5.83 0 0 1-4.11 2.17h-.36a6 6 0 0 1-3.78-1.44l10-14.68a6.61 6.61 0 0 0 .71-3.73 6.27 6.27 0 0 0-1.51-3.55 5.89 5.89 0 0 1 3.45-1.44h.39a5.67 5.67 0 0 1 3.18 1 5.75 5.75 0 0 1 2.22 3.1zM51.68.76a5.88 5.88 0 0 1 5.62 5.83 5.66 5.66 0 0 1-1.79 4 6 6 0 0 1-3.86 1.65h-.16A6.22 6.22 0 0 1 47 10.06a6.28 6.28 0 0 0 4.48 2.19h.16a6 6 0 0 0 3.84-1.64 5.62 5.62 0 0 0 1.78-4A5.86 5.86 0 0 0 51.68.79h-.17A6.22 6.22 0 0 0 47 3 6.29 6.29 0 0 1 51.51.75z"/><path d="M51.68.79a5.86 5.86 0 0 1 5.59 5.8 5.62 5.62 0 0 1-1.78 4 6 6 0 0 1-3.84 1.64h-.16A6.28 6.28 0 0 1 47 10a6.22 6.22 0 0 0 1.05-3A6.39 6.39 0 0 0 47 3 6.22 6.22 0 0 1 51.51.79zm-3.45 15.52a5.54 5.54 0 0 1 .2 5l-.19.36-3.88 5.72-5.85 8.63A6.1 6.1 0 0 1 34 38.23h-.2a5.89 5.89 0 0 1-4.23-2.1Q37.13 24.8 44.7 13.49a6 6 0 0 1 3.53 2.82z"/><path d="M48.4 21.32a5.47 5.47 0 0 0-.21-5 5.93 5.93 0 0 0-3.45-2.85Q37.16 24.8 29.62 36.12a5.89 5.89 0 0 0 4.19 2.07H34A6.07 6.07 0 0 0 38.48 36l5.85-8.64 3.87-5.7z"/><path d="M48.19 16.34a5.47 5.47 0 0 1 .21 5l-.2.37-3.87 5.7L38.48 36A6.07 6.07 0 0 1 34 38.2h-.2a5.89 5.89 0 0 1-4.19-2.07q7.57-11.33 15.13-22.64a5.93 5.93 0 0 1 3.45 2.85zM47 3a6.39 6.39 0 0 1 1.06 4A6.22 6.22 0 0 1 47 10a6.28 6.28 0 0 0 1.06-3 6.52 6.52 0 0 0-1.05-4S47 3.05 47 3zm0 7zm0-7z"/><path d="M46.83 4.94a5.56 5.56 0 0 1-.7 4.38L28.88 35.18a6 6 0 0 1-.41.55 5.88 5.88 0 0 1-4.54 2.48h-.54a5.9 5.9 0 0 1-4.86-2.5c-.15-.19-.29-.37-.41-.55Q13.2 27.79 8.26 20.4L.88 9.32a5.57 5.57 0 0 1-.72-4.38A6.52 6.52 0 0 1 3.11.83a6 6 0 0 1 4.7-.59 6.85 6.85 0 0 1 3.82 2.82l11.87 17.8 11.87-17.8A6.82 6.82 0 0 1 39.19.23a6 6 0 0 1 4.7.6 6.47 6.47 0 0 1 2.94 4.11z"/><path d="M46.1 9.29A5.5 5.5 0 0 0 46.79 5 6.39 6.39 0 0 0 43.87.87a5.93 5.93 0 0 0-4.67-.6 6.8 6.8 0 0 0-3.8 2.8L23.5 20.92 11.6 3.07A6.86 6.86 0 0 0 7.8.27 6.31 6.31 0 0 0 6.14.05a5.88 5.88 0 0 0-3 .82A6.43 6.43 0 0 0 .2 5a5.46 5.46 0 0 0 .7 4.29l7.4 11.09q4.92 7.4 9.86 14.78a4.46 4.46 0 0 0 .4.55 6 6 0 0 0 4.83 2.49h.54a5.8 5.8 0 0 0 2.7-.8 5.93 5.93 0 0 0 1.81-1.66 6 6 0 0 0 .41-.55z"/><path d="M46.79 5a5.5 5.5 0 0 1-.69 4.34L28.85 35.16a6 6 0 0 1-.41.55 5.93 5.93 0 0 1-1.81 1.66 5.8 5.8 0 0 1-2.7.8h-.54a6 6 0 0 1-4.83-2.49 4.46 4.46 0 0 1-.4-.55q-4.94-7.36-9.86-14.75L.9 9.29A5.46 5.46 0 0 1 .2 5 6.43 6.43 0 0 1 3.13.87a5.88 5.88 0 0 1 3-.82A6.31 6.31 0 0 1 7.8.27a6.86 6.86 0 0 1 3.8 2.8l11.88 17.82L35.4 3.07a6.8 6.8 0 0 1 3.8-2.8 5.93 5.93 0 0 1 4.67.6A6.39 6.39 0 0 1 46.79 5zm35.7 16.59h-2.41a.11.11 0 0 0-.12.12v3.48a.11.11 0 0 0 .12.12h2.41a2 2 0 0 0 1.42-.51 1.74 1.74 0 0 0 .54-1.33 1.81 1.81 0 0 0-.54-1.36 2 2 0 0 0-1.42-.52zm18.64 3.78A1.62 1.62 0 0 0 100 25a1.58 1.58 0 0 0-1.07.37 1.91 1.91 0 0 0-.63 1 4.88 4.88 0 0 0-.16 1.36 4.73 4.73 0 0 0 .16 1.34 2.07 2.07 0 0 0 .7 1.07 1.65 1.65 0 0 0 1.1.38 1.56 1.56 0 0 0 1-.38 2.06 2.06 0 0 0 .63-1.06 4.5 4.5 0 0 0 .16-1.34 4.88 4.88 0 0 0-.16-1.36 1.91 1.91 0 0 0-.6-1.01zm9.48-.37a1.49 1.49 0 0 0-1.34.73 3.93 3.93 0 0 0-.46 2 3.93 3.93 0 0 0 .41 1.88 1.48 1.48 0 0 0 1.39.82 1.43 1.43 0 0 0 1.31-.82 4.08 4.08 0 0 0 .38-1.9 4 4 0 0 0-.4-2 1.47 1.47 0 0 0-1.29-.71zm44.85.37a1.62 1.62 0 0 0-1.09-.37 1.58 1.58 0 0 0-1.07.37 2 2 0 0 0-.64 1 5.32 5.32 0 0 0-.15 1.36 5.16 5.16 0 0 0 .15 1.34 2.14 2.14 0 0 0 .64 1.06 1.68 1.68 0 0 0 1.11.38 1.56 1.56 0 0 0 1.05-.38 2.2 2.2 0 0 0 .63-1.06 4.85 4.85 0 0 0 .16-1.34 5.28 5.28 0 0 0-.16-1.36 2 2 0 0 0-.63-1z"/><path d="M177.8 13.59H78.72a12.3 12.3 0 0 0-12.26 12.26V26a12.3 12.3 0 0 0 12.26 12.23h99.08A12.3 12.3 0 0 0 190.07 26v-.11a12.3 12.3 0 0 0-12.27-12.3zm-91.22 12A3.75 3.75 0 0 1 85.05 27a4.9 4.9 0 0 1-2.27.51h-2.7a.11.11 0 0 0-.12.12v4.77a.29.29 0 0 1-.33.32h-2a.29.29 0 0 1-.33-.32V19.58a.29.29 0 0 1 .33-.33h5.3a4.52 4.52 0 0 1 2.22.52 3.58 3.58 0 0 1 1.49 1.47 4.39 4.39 0 0 1 .53 2.17 4.17 4.17 0 0 1-.59 2.13zm7.77-.2c0 .12 0 .19-.11.22a.64.64 0 0 1-.28 0 1.92 1.92 0 0 0-.55-.08 3.15 3.15 0 0 0-.44 0 1.89 1.89 0 0 0-1.17.5 1.57 1.57 0 0 0-.48 1.2v5.14a.29.29 0 0 1-.33.32H89a.29.29 0 0 1-.33-.32v-9.2c0-.22.11-.32.33-.32h2c.22 0 .33.1.33.32v.69c0 .01.06 0 .09 0a2.4 2.4 0 0 1 2.07-1.11 2.08 2.08 0 0 1 1 .23.33.33 0 0 1 .17.4zm10 4.3A4.44 4.44 0 0 1 102.8 32a4.37 4.37 0 0 1-2.72.85A4.56 4.56 0 0 1 97.3 32a4.18 4.18 0 0 1-1.57-2.3 6.76 6.76 0 0 1-.27-2 6.17 6.17 0 0 1 .29-2 4.07 4.07 0 0 1 1.58-2.22 4.64 4.64 0 0 1 2.76-.81 4.5 4.5 0 0 1 2.7.81 4.22 4.22 0 0 1 1.56 2.2 6.55 6.55 0 0 1 .28 2 7.87 7.87 0 0 1-.24 1.96zM115 32.36a.29.29 0 0 1-.33.32h-2a.28.28 0 0 1-.32-.32v-.52-.09a.11.11 0 0 0-.09.05 2.57 2.57 0 0 1-2.18 1 3.66 3.66 0 0 1-2.31-.77 4 4 0 0 1-1.39-2 6.89 6.89 0 0 1-.32-2.3 6.81 6.81 0 0 1 .36-2.38 4 4 0 0 1 1.39-1.95 3.69 3.69 0 0 1 2.27-.73 2.67 2.67 0 0 1 2.18.94h.09a.1.1 0 0 0 0-.1V19.6c0-.22.1-.33.32-.33h2a.29.29 0 0 1 .33.33zm10.48 0a.29.29 0 0 1-.33.32h-2a.28.28 0 0 1-.32-.32v-.52-.09a.11.11 0 0 0-.09.05 2.73 2.73 0 0 1-2.36 1 3.35 3.35 0 0 1-2.39-.89 3.2 3.2 0 0 1-.94-2.47v-6.3c0-.22.11-.32.33-.32h2a.28.28 0 0 1 .32.32v5.63a1.84 1.84 0 0 0 .42 1.25 1.4 1.4 0 0 0 1.13.48 1.49 1.49 0 0 0 1.08-.4 1.73 1.73 0 0 0 .52-1v-5.94a.28.28 0 0 1 .32-.32h2c.22 0 .33.1.33.32zM136.2 26c0 .16-.09.26-.28.3l-2 .31h-.1a.25.25 0 0 1-.27-.23l-.06-.27a1.41 1.41 0 0 0-.59-.82 1.83 1.83 0 0 0-1.1-.29 1.69 1.69 0 0 0-1 .31 1.56 1.56 0 0 0-.59.84 4.72 4.72 0 0 0-.21 1.57 5.08 5.08 0 0 0 .19 1.57 1.8 1.8 0 0 0 .6.9 1.69 1.69 0 0 0 1.05.33 1.78 1.78 0 0 0 1-.32 1.64 1.64 0 0 0 .63-.85v-.1a.49.49 0 0 1 .14-.18.31.31 0 0 1 .25-.09l2 .31a.43.43 0 0 1 .22.13.37.37 0 0 1 .05.23 1.92 1.92 0 0 1-.1.45 3.62 3.62 0 0 1-1.56 2 4.94 4.94 0 0 1-2.67.72 4.62 4.62 0 0 1-2.66-.76 4.13 4.13 0 0 1-1.57-2.06 7 7 0 0 1-.33-2.26 6.7 6.7 0 0 1 .33-2.22 3.94 3.94 0 0 1 1.58-2.05 5.11 5.11 0 0 1 5.36 0 3.64 3.64 0 0 1 1.54 1.93 1.89 1.89 0 0 1 .15.6zm7.23-1.35a.29.29 0 0 1-.33.33h-1.72c-.08 0-.12 0-.12.11v4a1.41 1.41 0 0 0 .26.93 1 1 0 0 0 .83.3h.54c.22 0 .33.1.33.32v1.65a.32.32 0 0 1-.33.34h-1a4.32 4.32 0 0 1-2.38-.53 2.31 2.31 0 0 1-.8-2v-5c0-.07 0-.11-.12-.11h-1a.29.29 0 0 1-.32-.33v-1.5a.28.28 0 0 1 .32-.32h1a.11.11 0 0 0 .12-.12v-2.16c0-.22.1-.33.32-.33h2a.29.29 0 0 1 .32.33v2.16a.11.11 0 0 0 .12.12h1.72c.22 0 .33.1.33.32zm4.48 7.69a.29.29 0 0 1-.33.32h-2.05a.29.29 0 0 1-.32-.32v-9.2a.28.28 0 0 1 .32-.32h2.05c.22 0 .33.1.33.32zm-.16-10.9a1.66 1.66 0 0 1-1.2.44 1.63 1.63 0 0 1-1.19-.45 1.69 1.69 0 0 1 0-2.32 1.63 1.63 0 0 1 1.19-.45 1.66 1.66 0 0 1 1.2.44 1.55 1.55 0 0 1 .45 1.17 1.58 1.58 0 0 1-.45 1.19zm11 8.18a4.37 4.37 0 0 1-1.62 2.38 4.42 4.42 0 0 1-2.73.85 4.55 4.55 0 0 1-2.77-.84 4.2 4.2 0 0 1-1.58-2.3 7.13 7.13 0 0 1-.26-2 6.47 6.47 0 0 1 .28-2 4.12 4.12 0 0 1 1.58-2.22 4.67 4.67 0 0 1 2.77-.81 4.45 4.45 0 0 1 2.69.81 4.11 4.11 0 0 1 1.56 2.2 6.25 6.25 0 0 1 .29 2 7.43 7.43 0 0 1-.25 1.95zm10.54 2.71a.29.29 0 0 1-.33.33h-2.06a.29.29 0 0 1-.33-.33v-5.64a1.84 1.84 0 0 0-.42-1.25A1.44 1.44 0 0 0 165 25a1.49 1.49 0 0 0-1.15.48 1.76 1.76 0 0 0-.45 1.25v5.66c0 .22-.1.33-.32.33H161a.29.29 0 0 1-.33-.33v-9.28a.29.29 0 0 1 .33-.33h2.06c.22 0 .32.11.32.33v.54a.1.1 0 0 0 0 .09h.08a2.7 2.7 0 0 1 2.33-1.08 3.36 3.36 0 0 1 2.49.94 3.49 3.49 0 0 1 .94 2.56zm8.89-.33a5.18 5.18 0 0 1-3 .8 6.37 6.37 0 0 1-2.24-.37 3.39 3.39 0 0 1-1.48-1 2.35 2.35 0 0 1-.51-1.48v-.09a.29.29 0 0 1 .32-.33h1.94c.22 0 .32 0 .32.11v.14a.87.87 0 0 0 .46.72 2.12 2.12 0 0 0 1.17.29 2 2 0 0 0 1.06-.25.75.75 0 0 0 .4-.65.54.54 0 0 0-.35-.51 5.45 5.45 0 0 0-1.13-.37 10.9 10.9 0 0 1-1.4-.44 6.05 6.05 0 0 1-2-1 2.2 2.2 0 0 1-.73-1.76 2.68 2.68 0 0 1 1.11-2.26 4.79 4.79 0 0 1 2.88-.85 5.53 5.53 0 0 1 2.15.39 3.33 3.33 0 0 1 1.44 1.11 2.65 2.65 0 0 1 .51 1.6.21.21 0 0 1-.1.2.43.43 0 0 1-.24.06h-1.88c-.21 0-.32 0-.32-.11v-.15a.83.83 0 0 0-.42-.7 1.94 1.94 0 0 0-1.13-.29A2.18 2.18 0 0 0 174 25a.7.7 0 0 0-.41.63.6.6 0 0 0 .39.57 6.27 6.27 0 0 0 1.3.41 9.33 9.33 0 0 1 1.07.28 6.21 6.21 0 0 1 2.16 1 2.2 2.2 0 0 1 .79 1.84 2.56 2.56 0 0 1-1.16 2.27z"/></g></svg>