<svg xmlns="http://www.w3.org/2000/svg" viewBox="0 0 130.6 124.17"><title>logo_green</title><g id="Layer_2" data-name="Layer 2"><g id="Layer_1-2" data-name="Layer 1"><path d="M84.17,65.82l17.46-26" style="fill:#6197ee"/><rect x="77.24" y="51.81" width="31.33" height="2" transform="translate(-2.72 100.52) rotate(-56.13)" style="fill:#fff"/><path d="M94.44,71.82l17.46-26c3.58-5.33,1-13.17-4.26-16.27C101.79,26.11,95,28.45,91.36,33.8l-17.46,26c-3.58,5.34-1,13.18,4.27,16.28,5.84,3.42,12.68,1.08,16.27-4.27Z" style="fill:#0cf279"/><path d="M84,78.67A12.46,12.46,0,0,1,77.66,77a13.52,13.52,0,0,1-6.09-8.56,11.57,11.57,0,0,1,1.5-9.14l17.46-26c4.09-6.09,11.66-8.06,17.61-4.57a13.41,13.41,0,0,1,6.09,8.55,11.57,11.57,0,0,1-1.5,9.14l-17.46,26A13.72,13.72,0,0,1,84,78.67Zm17.81-49.75a11.62,11.62,0,0,0-9.58,5.43l-17.46,26A9.57,9.57,0,0,0,73.52,68a11.44,11.44,0,0,0,5.15,7.27c5.11,3,11.4,1.33,14.94-4l17.46-26a9.57,9.57,0,0,0,1.21-7.58,11.45,11.45,0,0,0-5.15-7.28A10.52,10.52,0,0,0,101.77,28.92Z" style="fill:#fff"/><path d="M113.74,26c16.09,0,16.12-25,0-25s-16.11,25,0,25Z" style="fill:#0cf279"/><path d="M113.74,27c-8.58,0-13.07-6.79-13.07-13.49S105.16,0,113.74,0a12.49,12.49,0,0,1,9.82,4.25,14.15,14.15,0,0,1,3.26,9.24C126.82,20.21,122.33,27,113.74,27Zm0-25c-7.6,0-11.07,6-11.07,11.51S106.14,25,113.74,25a10.55,10.55,0,0,0,8.3-3.56,12.17,12.17,0,0,0,2.78-8C124.82,8,121.35,2,113.74,2Z" style="fill:#fff"/><path d="M69.39,65.82,87.73,39.05" style="fill:#3178ef"/><rect x="62.33" y="51.43" width="32.45" height="2" transform="translate(-9.08 87.64) rotate(-55.6)" style="fill:#fff"/><path d="M80.18,72.13,98.52,45.35c3.82-5.57,1-13.86-4.48-17.1-6.19-3.62-13.28-1.1-17.1,4.49L58.6,59.51c-3.82,5.57-1.05,13.86,4.48,17.1,6.19,3.62,13.28,1.1,17.1-4.48Z" style="fill:#0ce573"/><path d="M69.2,79.29a13,13,0,0,1-6.62-1.82,14.12,14.12,0,0,1-6.41-9.07,11.9,11.9,0,0,1,1.6-9.46L76.11,32.17c4.41-6.44,12.16-8.45,18.43-4.78A14.15,14.15,0,0,1,101,36.46a11.9,11.9,0,0,1-1.6,9.46L81,72.69l-.83-.57.83.57A14.42,14.42,0,0,1,69.2,79.29ZM88,27.56A12.75,12.75,0,0,0,77.76,33.3L59.42,60.07A9.92,9.92,0,0,0,58.12,68a12.12,12.12,0,0,0,5.47,7.79c6,3.54,12.51.57,15.77-4.19L97.7,44.79A10,10,0,0,0,99,36.9a12.09,12.09,0,0,0-5.47-7.78A10.85,10.85,0,0,0,88,27.56Z" style="fill:#fff"/><path d="M101.63,26c16.09,0,16.11-25,0-25s-16.11,25,0,25Z" style="fill:#0ce573"/><path d="M101.63,27a12.47,12.47,0,0,1-9.81-4.25,14.09,14.09,0,0,1-3.26-9.24C88.56,6.8,93.05,0,101.63,0a12.51,12.51,0,0,1,9.82,4.25,14.15,14.15,0,0,1,3.26,9.24C114.71,20.2,110.22,27,101.63,27Zm0-25C94,2,90.56,8,90.56,13.51S94,25,101.63,25s11.08-6,11.08-11.51S109.24,2,101.63,2Z" style="fill:#fff"/><path d="M93.05,2.71C86.93-.87,79.69,1.55,76,7.19L52,43.24,28.12,7.19c-3.73-5.62-11-8-17.1-4.48C5.43,6,2.78,14.16,6.53,19.81L41.24,72.13c.26.38.54.75.83,1.11a12,12,0,0,0,10.26,5h.38l.19,0a11.89,11.89,0,0,0,5.44-1.63A12.13,12.13,0,0,0,62,73.24c.29-.36.57-.73.83-1.11L97.54,19.81C101.27,14.18,98.64,6,93.05,2.71Z" style="fill:#09d670"/><path d="M51.79,79.28a12.88,12.88,0,0,1-6.57-1.81,13,13,0,0,1-4-3.64,14.13,14.13,0,0,1-.85-1.15L5.7,20.36a12.22,12.22,0,0,1-1.56-9.61,14.12,14.12,0,0,1,6.37-8.91C16.78-1.82,24.71.24,29,6.64L52,41.43,75.12,6.64c4.24-6.4,12.17-8.46,18.44-4.8a14.09,14.09,0,0,1,6.36,8.9,12.19,12.19,0,0,1-1.55,9.62L63.66,72.68a13.92,13.92,0,0,1-.88,1.19A12.87,12.87,0,0,1,53,79.24l-.31,0h-.85ZM17.13,2a11.1,11.1,0,0,0-5.61,1.53A12.06,12.06,0,0,0,6.09,11.2a10.25,10.25,0,0,0,1.27,8.06L42.07,71.57c.22.33.48.67.77,1a11.16,11.16,0,0,0,3.39,3.14,11,11,0,0,0,6.05,1.52l.56,0a10.8,10.8,0,0,0,8.35-4.59,10.32,10.32,0,0,0,.8-1.08L96.7,19.26A10.24,10.24,0,0,0,98,11.2a12,12,0,0,0-5.42-7.63h0C87.21.45,80.43,2.24,76.78,7.74L52,45.05,27.28,7.74A12.28,12.28,0,0,0,17.13,2Z" style="fill:#fff"/><text transform="translate(0 119.11)" style="font-size:21.319469451904297px;fill:#09d670;font-family:Dosis-ExtraBold, Dosis;font-weight:700">Vii<tspan x="22.96" y="0" style="fill:#0ce573;letter-spacing:-0.0060006037105474535em">P</tspan><tspan x="34.96" y="0" style="fill:#0ce573;letter-spacing:-0.006985435617240356em">r</tspan><tspan x="43.21" y="0" style="fill:#0ce573;letter-spacing:-0.000022903067597509364em">o</tspan><tspan x="54.06" y="0" style="fill:#0cf279">ductions</tspan></text></g></g></svg>