<svg viewBox="0 0 266.93 154.05" xmlns="http://www.w3.org/2000/svg"><g fill="#42bc9e"><path d="M261.83 12.36a23.11 23.11 0 0 1 4.81 15.36A22.71 22.71 0 0 1 259 43.4a24 24 0 0 1-15.26 6.29h-.51c-7.08 0-12.49-3.69-15.12-5.91a.09.09 0 0 0 0-.08.12.12 0 0 0 0-.06v-.06a26.59 26.59 0 0 0 6.35-16.1A26.88 26.88 0 0 0 228 9.17v-.06l.32-.29a24 24 0 0 1 6.4-3.82 24.78 24.78 0 0 1 13.05-1.5l.27.06a23.81 23.81 0 0 1 13.79 8.8z"/><path d="M266.49 27.69a22.87 22.87 0 0 0-4.78-15.24A23.84 23.84 0 0 0 248 3.71l-.27-.06a24.7 24.7 0 0 0-13 1.48 25 25 0 0 0-6.35 3.81l-.21.2a27 27 0 0 1 6.32 18.31 26.86 26.86 0 0 1-6.38 16.13v.06a23.57 23.57 0 0 0 15 5.87h.51a23.89 23.89 0 0 0 15.18-6.26 22.52 22.52 0 0 0 7.69-15.56z"/><path d="M261.71 12.45a22.87 22.87 0 0 1 4.78 15.24 22.52 22.52 0 0 1-7.58 15.59 23.89 23.89 0 0 1-15.18 6.26h-.51a23.57 23.57 0 0 1-15-5.87v-.06a26.86 26.86 0 0 0 6.38-16.13 27 27 0 0 0-6.32-18.31l.21-.2a25 25 0 0 1 6.35-3.81 24.7 24.7 0 0 1 13-1.48l.27.06a23.84 23.84 0 0 1 13.6 8.71zm-29.53 57.94a23.89 23.89 0 0 1-1.24 16.13l-39.25 58-.65.73a24.6 24.6 0 0 1-5.34 4.91 22.77 22.77 0 0 1-11.31 3.84c-.48 0-.95.05-1.42.05a23.92 23.92 0 0 1-15.33-5.81l-.18-.12.06-.06 40.2-59.3a26.86 26.86 0 0 0 2.8-14.94 25.13 25.13 0 0 0-6.05-14.24l-.09-.12h.06a23.78 23.78 0 0 1 14-5.88 22.8 22.8 0 0 1 23.71 16.8z"/><path d="M230.82 86.43a23.58 23.58 0 0 0 1.21-16 22.54 22.54 0 0 0-22-16.74h-1.57a23.81 23.81 0 0 0-13.9 5.78 25.3 25.3 0 0 1 6.08 14.3 26.87 26.87 0 0 1-2.84 15.06l-.05.09-40.11 59.15h.06a23.89 23.89 0 0 0 15.3 5.87c.47 0 .94 0 1.42-.06a23.49 23.49 0 0 0 16.58-8.74l.62-.71z"/><path d="M232 70.45a23.58 23.58 0 0 1-1.21 16l-39.25 58-.62.71a23.49 23.49 0 0 1-16.56 8.74c-.48 0-.95.06-1.42.06a23.89 23.89 0 0 1-15.24-5.79h-.06L197.78 89l.05-.09a26.87 26.87 0 0 0 2.84-15.06 25.3 25.3 0 0 0-6.08-14.3 23.81 23.81 0 0 1 13.9-5.78h1.57a22.54 22.54 0 0 1 22 16.74zM208.35 3.06c11.07.35 22.83 9.94 22.65 23.51a22.76 22.76 0 0 1-7.24 16.24 24.07 24.07 0 0 1-15.53 6.64h-.65c-9.8 0-16.39-6.79-18.19-8.91l.09.05a.12.12 0 0 0 .06-.11c1.3 1.56 8.12 8.83 18 8.83h.65a23.94 23.94 0 0 0 15.44-6.62 22.55 22.55 0 0 0 7.18-16.12c.18-13.53-11.49-23-22.5-23.36a5.47 5.47 0 0 0-.68 0c-10 0-16.78 7.38-18.19 9.09l-.12.06-.06-.06c1.3-1.56 8.15-9.21 18.4-9.21a5.23 5.23 0 0 1 .69-.03z"/><path d="M208.35 3.21c11 .35 22.68 9.83 22.5 23.36a22.55 22.55 0 0 1-7.18 16.12 23.94 23.94 0 0 1-15.44 6.62h-.65c-9.92 0-16.74-7.27-18-8.83a25.29 25.29 0 0 0 4.22-12 25.87 25.87 0 0 0-4.28-16.25c1.41-1.71 8.15-9.09 18.19-9.09a5.47 5.47 0 0 1 .64.07zm-13.91 62.55c3.48 6.64 3.81 14.61.8 20.25l-.77 1.45-15.62 23q-11.79 17.35-23.6 34.78c-.74.92-7.35 8.8-18.13 8.8h-.8a23.71 23.71 0 0 1-17-8.44v-.12q30.48-45.63 61-91.25v-.06h.06a24.28 24.28 0 0 1 14.06 11.59z"/><path d="M195.12 85.93c3-5.59 2.66-13.5-.83-20.09a24.06 24.06 0 0 0-13.94-11.48q-30.48 45.57-60.92 91.19a23.65 23.65 0 0 0 16.89 8.36h.8c10.72 0 17.27-7.83 18-8.74q11.79-17.37 23.6-34.79l15.59-23z"/><path d="M194.29 65.84c3.49 6.59 3.81 14.5.83 20.09l-.8 1.47-15.59 23q-11.79 17.4-23.6 34.79c-.74.91-7.29 8.74-18 8.74h-.8a23.65 23.65 0 0 1-16.89-8.36q30.48-45.63 60.92-91.19a24.06 24.06 0 0 1 13.93 11.46zm-4.81-53.57a25.87 25.87 0 0 1 4.28 16.25 25.29 25.29 0 0 1-4.22 12l-.12.09a25.48 25.48 0 0 0 4.25-12 26 26 0 0 0-4.22-16.13s-.03-.18.03-.21z"/><path d="M189.54 40.48a.12.12 0 0 1-.06.11l-.09-.05.12-.09zm-.06-28.21c-.06 0-.06.06-.09.09l-.06-.06.12-.06zm-.68 7.65a22.43 22.43 0 0 1-2.8 17.63l-69.55 104.22a20.79 20.79 0 0 1-1.66 2.24 23.79 23.79 0 0 1-18.28 10 .51.51 0 0 1-.21 0h-.17a1.23 1.23 0 0 0-.27 0h-1.5a24.05 24.05 0 0 1-12.23-3.33 24.33 24.33 0 0 1-7.38-6.68c-.62-.76-1.15-1.5-1.66-2.24L33.37 82.2 3.61 37.55A22.27 22.27 0 0 1 .74 19.92 26.15 26.15 0 0 1 12.61 3.36 24.38 24.38 0 0 1 31.54 1 27.75 27.75 0 0 1 47 12.33l47.77 71.73 47.84-71.73A27.53 27.53 0 0 1 158 .93a24.37 24.37 0 0 1 19 2.43 26.25 26.25 0 0 1 11.8 16.56z"/><path d="M185.84 37.46A22.2 22.2 0 0 0 188.65 20a25.92 25.92 0 0 0-11.78-16.5A24.12 24.12 0 0 0 158 1.08a27.61 27.61 0 0 0-15.3 11.31l-48 71.94-.06-.12-47.8-71.82A27.59 27.59 0 0 0 31.51 1.11 24.7 24.7 0 0 0 24.84.2a24.13 24.13 0 0 0-12.17 3.3A26 26 0 0 0 .89 20a22.12 22.12 0 0 0 2.83 17.46l29.8 44.69q19.84 29.76 39.72 59.56c.47.71 1 1.45 1.62 2.22a24.13 24.13 0 0 0 7.33 6.67 23.74 23.74 0 0 0 12.14 3.34h1.5a.83.83 0 0 1 .27 0h.17a.59.59 0 0 0 .21 0 23.76 23.76 0 0 0 18.16-9.92 25.53 25.53 0 0 0 1.66-2.22z"/><path d="M188.65 20a22.2 22.2 0 0 1-2.81 17.51l-69.51 104.2a25.53 25.53 0 0 1-1.66 2.22 23.76 23.76 0 0 1-18.16 9.92.59.59 0 0 1-.21 0h-.17a.83.83 0 0 0-.27 0h-1.5a23.74 23.74 0 0 1-12.14-3.34 24.13 24.13 0 0 1-7.33-6.67c-.62-.77-1.15-1.51-1.62-2.22q-19.92-29.71-39.75-59.47L3.72 37.46A22.12 22.12 0 0 1 .89 20 26 26 0 0 1 12.67 3.5 24.13 24.13 0 0 1 24.84.2a24.7 24.7 0 0 1 6.67.91 27.59 27.59 0 0 1 15.33 11.28l47.87 71.82.06.12 48-71.94A27.61 27.61 0 0 1 158 1.08a24.12 24.12 0 0 1 18.87 2.42A25.92 25.92 0 0 1 188.65 20z"/></g></svg>